<?xml version="1.0" encoding="utf-8"?>
<!-- Generator: Adobe Illustrator 17.0.0, SVG Export Plug-In . SVG Version: 6.00 Build 0)  -->
<!DOCTYPE svg PUBLIC "-//W3C//DTD SVG 1.1//EN" "http://www.w3.org/Graphics/SVG/1.1/DTD/svg11.dtd">
<svg version="1.1" id="Layer_1" xmlns:sketch="http://www.bohemiancoding.com/sketch/ns"
	 xmlns="http://www.w3.org/2000/svg" xmlns:xlink="http://www.w3.org/1999/xlink" x="0px" y="0px" width="38px" height="60px"
	 viewBox="0 0 38 60" enable-background="new 0 0 38 60" xml:space="preserve">
<title>71 - Generic Mouse (Webby)</title>
<desc>Created with Sketch.</desc>
<g id="Page-1" sketch:type="MSPage">
	<g id="_x37_1---Generic-Mouse-_x28_Webby_x29_" transform="translate(1.000000, 0.000000)" sketch:type="MSLayerGroup">
		<path id="Fill-1090" sketch:type="MSShapeGroup" fill="#FFFFFF" stroke="#2A76D2" stroke-miterlimit="10" d="M2.916,31.656
			c0.837-2.99,1.17-6.089,1.065-9.193C3.817,17.602,2.261,12.091,3.253,8.23c0.442-3.093,2.886-5.515,5.983-5.928l0,0
			c7.03-1.773,13.554-1.702,19.528,0c3.097,0.413,5.541,2.835,5.983,5.928c1.484,5.776,1.684,11.808,0.584,17.67l-0.673,3.588
			C35.516,31.966,36,34.665,36,37.5C36,49.374,27.717,59,17.5,59S0,52.874,0,41C0,37.776,2.113,34.523,2.916,31.656L2.916,31.656z"
			/>
		
			<path id="Stroke-1091" sketch:type="MSShapeGroup" fill="none" stroke="#2A76D2" stroke-width="2" stroke-linecap="round" stroke-linejoin="round" d="
			M2.916,31.656c0.837-2.99,1.17-6.089,1.065-9.193C3.817,17.602,2.261,12.091,3.253,8.23c0.442-3.093,2.886-5.515,5.983-5.928l0,0
			c7.03-1.773,13.554-1.702,19.528,0c3.097,0.413,5.541,2.835,5.983,5.928c1.484,5.776,1.684,11.808,0.584,17.67l-0.673,3.588
			C35.516,31.966,36,34.665,36,37.5C36,49.374,27.717,59,17.5,59S0,52.874,0,41C0,37.776,2.113,34.523,2.916,31.656L2.916,31.656z"
			/>
		<path id="Fill-1092" sketch:type="MSShapeGroup" fill="#CFE0F4" stroke="#2A76D2" stroke-miterlimit="10" d="M35.331,25.9
			l-0.673,3.588C35.516,31.966,36,34.665,36,37.5c0,3.021-0.541,5.893-1.509,8.501c-11.699,3.957-1.552-14.807,0.929-20.655
			C35.388,25.53,35.366,25.716,35.331,25.9L35.331,25.9z"/>
		
			<path id="Stroke-1093" sketch:type="MSShapeGroup" fill="none" stroke="#2A76D2" stroke-width="2" stroke-linecap="round" stroke-linejoin="round" d="
			M35.331,25.9l-0.673,3.588C35.516,31.966,36,34.665,36,37.5c0,3.021-0.541,5.893-1.509,8.501
			c-11.699,3.957-1.552-14.807,0.929-20.655C35.388,25.53,35.366,25.716,35.331,25.9L35.331,25.9z"/>
		<path id="Fill-1094" sketch:type="MSShapeGroup" fill="#CFE0F4" stroke="#2A76D2" stroke-miterlimit="10" d="M0.027,40.644
			c0.145-3.107,2.116-6.226,2.889-8.988c0.837-2.99,1.17-6.089,1.065-9.193c-0.002-0.075-0.008-0.153-0.011-0.229
			C6.642,31.726,9.82,45.361,0.027,40.644L0.027,40.644z"/>
		
			<path id="Stroke-1095" sketch:type="MSShapeGroup" fill="none" stroke="#2A76D2" stroke-width="2" stroke-linecap="round" stroke-linejoin="round" d="
			M0.027,40.644c0.145-3.107,2.116-6.226,2.889-8.988c0.837-2.99,1.17-6.089,1.065-9.193c-0.002-0.075-0.008-0.153-0.011-0.229
			C6.642,31.726,9.82,45.361,0.027,40.644L0.027,40.644z"/>
		<path id="Fill-1096" sketch:type="MSShapeGroup" fill="#CFE0F4" stroke="#2A76D2" stroke-miterlimit="10" d="M19,21L19,21
			c1.1,0,2-0.9,2-2v-8c0-1.1-0.9-2-2-2c-1.1,0-2,0.9-2,2v8C17,20.1,17.9,21,19,21L19,21z"/>
		
			<path id="Stroke-1097" sketch:type="MSShapeGroup" fill="none" stroke="#2A76D2" stroke-width="2" stroke-linecap="round" stroke-linejoin="round" d="
			M19,21L19,21c1.1,0,2-0.9,2-2v-8c0-1.1-0.9-2-2-2c-1.1,0-2,0.9-2,2v8C17,20.1,17.9,21,19,21L19,21z"/>
		<path id="Fill-1098" sketch:type="MSShapeGroup" fill="#FFFFFF" stroke="#2A76D2" stroke-miterlimit="10" d="M19,9V1"/>
		
			<path id="Stroke-1099" sketch:type="MSShapeGroup" fill="none" stroke="#2A76D2" stroke-width="2" stroke-linecap="round" stroke-linejoin="round" d="
			M19,9V1"/>
		
			<path id="Stroke-1100" sketch:type="MSShapeGroup" fill="none" stroke="#2A76D2" stroke-width="2" stroke-linecap="round" stroke-linejoin="round" d="
			M19,21v6"/>
		<path id="Fill-1101" sketch:type="MSShapeGroup" fill="#CFE0F4" stroke="#2A76D2" stroke-miterlimit="10" d="M14,44
			c0,2.209,1.791,4,4,4s4-1.791,4-4s-1.791-4-4-4S14,41.791,14,44L14,44z"/>
		
			<path id="Stroke-1102" sketch:type="MSShapeGroup" fill="none" stroke="#2A76D2" stroke-width="2" stroke-linecap="round" stroke-linejoin="round" d="
			M14,44c0,2.209,1.791,4,4,4s4-1.791,4-4s-1.791-4-4-4S14,41.791,14,44L14,44z"/>
	</g>
</g>
</svg>
