<?xml version="1.0" encoding="UTF-8" standalone="no"?>
<!DOCTYPE svg PUBLIC "-//W3C//DTD SVG 1.1//EN" "http://www.w3.org/Graphics/SVG/1.1/DTD/svg11.dtd">
<svg width="100%" height="100%" viewBox="0 0 60 60" version="1.1" xmlns="http://www.w3.org/2000/svg" xmlns:xlink="http://www.w3.org/1999/xlink" xml:space="preserve" style="fill-rule:evenodd;clip-rule:evenodd;stroke-linecap:round;stroke-miterlimit:10;">
    <path d="M3.931,47.379L12.621,38.69L18.414,46.414L25.172,31.931L30.966,39.655L41.586,23.241L47.379,30.966L58,14.552L58,56.069L3.931,56.069L3.931,47.379Z" style="fill:#cfe0f4;fill-rule:nonzero;stroke:#2a76d2;stroke-width:1.93px;"/>
    <circle cx="52.207" cy="26.138" r="0.966" style="fill:#2a76d2;"/>
    <circle cx="55.103" cy="23.241" r="0.966" style="fill:#2a76d2;"/>
    <circle cx="55.103" cy="29.034" r="0.966" style="fill:#2a76d2;"/>
    <circle cx="52.207" cy="31.931" r="0.966" style="fill:#2a76d2;"/>
    <circle cx="46.414" cy="31.931" r="0.966" style="fill:#2a76d2;"/>
    <circle cx="40.621" cy="31.931" r="0.966" style="fill:#2a76d2;"/>
    <circle cx="43.517" cy="29.034" r="0.966" style="fill:#2a76d2;"/>
    <circle cx="26.138" cy="40.621" r="0.966" style="fill:#2a76d2;"/>
    <circle cx="52.207" cy="37.724" r="0.966" style="fill:#2a76d2;"/>
    <circle cx="55.103" cy="34.828" r="0.966" style="fill:#2a76d2;"/>
    <circle cx="55.103" cy="40.621" r="0.966" style="fill:#2a76d2;"/>
    <circle cx="46.414" cy="37.724" r="0.966" style="fill:#2a76d2;"/>
    <circle cx="49.31" cy="34.828" r="0.966" style="fill:#2a76d2;"/>
    <circle cx="49.31" cy="40.621" r="0.966" style="fill:#2a76d2;"/>
    <circle cx="31.931" cy="40.621" r="0.966" style="fill:#2a76d2;"/>
    <circle cx="34.828" cy="37.724" r="0.966" style="fill:#2a76d2;"/>
    <circle cx="40.621" cy="37.724" r="0.966" style="fill:#2a76d2;"/>
    <circle cx="23.241" cy="43.517" r="0.966" style="fill:#2a76d2;"/>
    <circle cx="29.034" cy="43.517" r="0.966" style="fill:#2a76d2;"/>
    <circle cx="11.655" cy="43.517" r="0.966" style="fill:#2a76d2;"/>
    <circle cx="52.207" cy="43.517" r="0.966" style="fill:#2a76d2;"/>
    <circle cx="46.414" cy="43.517" r="0.966" style="fill:#2a76d2;"/>
    <circle cx="34.828" cy="43.517" r="0.966" style="fill:#2a76d2;"/>
    <circle cx="40.621" cy="43.517" r="0.966" style="fill:#2a76d2;"/>
    <circle cx="37.724" cy="34.828" r="0.966" style="fill:#2a76d2;"/>
    <circle cx="43.517" cy="34.828" r="0.966" style="fill:#2a76d2;"/>
    <circle cx="37.724" cy="40.621" r="0.966" style="fill:#2a76d2;"/>
    <circle cx="43.517" cy="40.621" r="0.966" style="fill:#2a76d2;"/>
    <circle cx="23.241" cy="49.31" r="0.966" style="fill:#2a76d2;"/>
    <circle cx="26.138" cy="46.414" r="0.966" style="fill:#2a76d2;"/>
    <circle cx="26.138" cy="52.207" r="0.966" style="fill:#2a76d2;"/>
    <circle cx="29.034" cy="49.31" r="0.966" style="fill:#2a76d2;"/>
    <circle cx="17.448" cy="49.31" r="0.966" style="fill:#2a76d2;"/>
    <circle cx="20.345" cy="46.414" r="0.966" style="fill:#2a76d2;"/>
    <circle cx="20.345" cy="52.207" r="0.966" style="fill:#2a76d2;"/>
    <circle cx="5.862" cy="49.31" r="0.966" style="fill:#2a76d2;"/>
    <circle cx="11.655" cy="49.31" r="0.966" style="fill:#2a76d2;"/>
    <circle cx="8.759" cy="46.414" r="0.966" style="fill:#2a76d2;"/>
    <circle cx="14.552" cy="46.414" r="0.966" style="fill:#2a76d2;"/>
    <circle cx="8.759" cy="52.207" r="0.966" style="fill:#2a76d2;"/>
    <circle cx="14.552" cy="52.207" r="0.966" style="fill:#2a76d2;"/>
    <circle cx="52.207" cy="49.31" r="0.966" style="fill:#2a76d2;"/>
    <circle cx="55.103" cy="46.414" r="0.966" style="fill:#2a76d2;"/>
    <circle cx="55.103" cy="52.207" r="0.966" style="fill:#2a76d2;"/>
    <circle cx="46.414" cy="49.31" r="0.966" style="fill:#2a76d2;"/>
    <circle cx="49.31" cy="46.414" r="0.966" style="fill:#2a76d2;"/>
    <circle cx="49.31" cy="52.207" r="0.966" style="fill:#2a76d2;"/>
    <circle cx="31.931" cy="46.414" r="0.966" style="fill:#2a76d2;"/>
    <circle cx="31.931" cy="52.207" r="0.966" style="fill:#2a76d2;"/>
    <circle cx="34.828" cy="49.31" r="0.966" style="fill:#2a76d2;"/>
    <circle cx="40.621" cy="49.31" r="0.966" style="fill:#2a76d2;"/>
    <circle cx="23.241" cy="55.103" r="0.966" style="fill:#2a76d2;"/>
    <circle cx="29.034" cy="55.103" r="0.966" style="fill:#2a76d2;"/>
    <circle cx="17.448" cy="55.103" r="0.966" style="fill:#2a76d2;"/>
    <circle cx="5.862" cy="55.103" r="0.966" style="fill:#2a76d2;"/>
    <circle cx="11.655" cy="55.103" r="0.966" style="fill:#2a76d2;"/>
    <circle cx="52.207" cy="55.103" r="0.966" style="fill:#2a76d2;"/>
    <circle cx="46.414" cy="55.103" r="0.966" style="fill:#2a76d2;"/>
    <circle cx="34.828" cy="55.103" r="0.966" style="fill:#2a76d2;"/>
    <circle cx="40.621" cy="55.103" r="0.966" style="fill:#2a76d2;"/>
    <circle cx="37.724" cy="46.414" r="0.966" style="fill:#2a76d2;"/>
    <circle cx="43.517" cy="46.414" r="0.966" style="fill:#2a76d2;"/>
    <circle cx="37.724" cy="52.207" r="0.966" style="fill:#2a76d2;"/>
    <circle cx="43.517" cy="52.207" r="0.966" style="fill:#2a76d2;"/>
    <path d="M3.931,2L3.931,58" style="fill:none;stroke:#2a76d2;stroke-width:1.93px;"/>
    <path d="M58,56.069L2,56.069" style="fill:none;stroke:#2a76d2;stroke-width:1.93px;"/>
    <path d="M7.793,28.069L9.724,28.069" style="fill:none;stroke:#2a76d2;stroke-width:1.93px;"/>
    <path d="M7.793,24.207L9.724,24.207" style="fill:none;stroke:#2a76d2;stroke-width:1.93px;"/>
    <path d="M7.793,20.345L9.724,20.345" style="fill:none;stroke:#2a76d2;stroke-width:1.93px;"/>
    <path d="M7.793,16.483L9.724,16.483" style="fill:none;stroke:#2a76d2;stroke-width:1.93px;"/>
    <path d="M7.793,12.621L9.724,12.621" style="fill:none;stroke:#2a76d2;stroke-width:1.93px;"/>
    <path d="M7.793,8.759L9.724,8.759" style="fill:none;stroke:#2a76d2;stroke-width:1.93px;"/>
    <path d="M7.793,4.897L9.724,4.897" style="fill:none;stroke:#2a76d2;stroke-width:1.93px;"/>
</svg>
