<?xml version="1.0" encoding="utf-8"?>
<!-- Generator: Adobe Illustrator 17.0.0, SVG Export Plug-In . SVG Version: 6.00 Build 0)  -->
<!DOCTYPE svg PUBLIC "-//W3C//DTD SVG 1.1//EN" "http://www.w3.org/Graphics/SVG/1.1/DTD/svg11.dtd">
<svg version="1.1" id="Layer_1" xmlns:sketch="http://www.bohemiancoding.com/sketch/ns"
	 xmlns="http://www.w3.org/2000/svg" xmlns:xlink="http://www.w3.org/1999/xlink" x="0px" y="0px" width="45px" height="58px"
	 viewBox="0 0 45 58" enable-background="new 0 0 45 58" xml:space="preserve">
<title>17 - CSV File (Webby)</title>
<desc>Created with Sketch.</desc>
<g id="Page-1" sketch:type="MSPage">
	<g id="_x31_7---CSV-File-_x28_Webby_x29_" transform="translate(1.000000, 1.000000)" sketch:type="MSLayerGroup">
		<path id="Fill-23" sketch:type="MSShapeGroup" fill="#FFFFFF" stroke="#2A76D2" stroke-miterlimit="10" d="M30.485,0H1.463
			C0.655,0,0,0.655,0,1.926V55c0,0.345,0.655,1,1.463,1h40.074C42.345,56,43,55.345,43,55V12.978c0-0.696-0.093-0.92-0.257-1.085
			L31.107,0.257C30.942,0.093,30.718,0,30.485,0L30.485,0z"/>
		<path id="Stroke-24" sketch:type="MSShapeGroup" fill="none" stroke="#2A76D2" stroke-width="2" d="M30.485,0H1.463
			C0.655,0,0,0.655,0,1.926V55c0,0.345,0.655,1,1.463,1h40.074C42.345,56,43,55.345,43,55V12.978c0-0.696-0.093-0.92-0.257-1.085
			L31.107,0.257C30.942,0.093,30.718,0,30.485,0L30.485,0z"/>
		<path id="Fill-361" sketch:type="MSShapeGroup" fill="#CFE0F4" stroke="#2A76D2" stroke-miterlimit="10" d="M41.537,56H1.463
			C0.655,56,0,55.345,0,54.537V39h43v15.537C43,55.345,42.345,56,41.537,56L41.537,56z"/>
		<path id="Stroke-362" sketch:type="MSShapeGroup" fill="none" stroke="#2A76D2" stroke-width="2" d="M41.537,56H1.463
			C0.655,56,0,55.345,0,54.537V39h43v15.537C43,55.345,42.345,56,41.537,56L41.537,56z"/>
		<path id="Fill-363" sketch:type="MSShapeGroup" fill="#CFE0F4" stroke="#2A76D2" stroke-miterlimit="10" d="M31,1.391V12h10.609
			c0.457,0,0.687-0.554,0.363-0.877L31.877,1.028C31.553,0.704,31,0.933,31,1.391L31,1.391z"/>
		<path id="Stroke-364" sketch:type="MSShapeGroup" fill="none" stroke="#2A76D2" stroke-width="2" d="M31,1.391V12h10.609
			c0.457,0,0.687-0.554,0.363-0.877L31.877,1.028C31.553,0.704,31,0.933,31,1.391L31,1.391z"/>
		<path id="Fill-365" sketch:type="MSShapeGroup" fill="#2A76D2" d="M15.08,51.975c-0.374,0.364-0.798,0.637-1.271,0.82
			c-0.475,0.182-0.985,0.273-1.532,0.273c-0.601,0-1.155-0.109-1.661-0.328c-0.506-0.218-0.948-0.542-1.326-0.971
			c-0.378-0.428-0.675-0.965-0.889-1.613c-0.214-0.647-0.321-1.394-0.321-2.242s0.107-1.593,0.321-2.235
			c0.214-0.643,0.511-1.178,0.889-1.607c0.378-0.428,0.822-0.754,1.333-0.977c0.51-0.224,1.062-0.335,1.654-0.335
			c0.547,0,1.057,0.091,1.532,0.273c0.473,0.183,0.897,0.456,1.271,0.821l-1.135,1.011c-0.228-0.264-0.481-0.456-0.759-0.574
			s-0.567-0.178-0.868-0.178c-0.337,0-0.658,0.064-0.964,0.192c-0.305,0.128-0.579,0.343-0.82,0.649
			c-0.241,0.306-0.431,0.699-0.567,1.183c-0.137,0.483-0.21,1.075-0.219,1.777c0.009,0.684,0.08,1.267,0.212,1.75
			c0.132,0.484,0.314,0.877,0.547,1.183c0.232,0.305,0.496,0.528,0.793,0.67c0.296,0.141,0.608,0.212,0.936,0.212
			s0.636-0.06,0.923-0.178c0.287-0.118,0.549-0.31,0.786-0.574L15.08,51.975"/>
		<path id="Fill-366" sketch:type="MSShapeGroup" fill="#2A76D2" d="M23.133,50.238c0,0.365-0.075,0.718-0.226,1.06
			c-0.15,0.342-0.362,0.642-0.636,0.902c-0.273,0.26-0.61,0.467-1.011,0.622c-0.402,0.155-0.857,0.233-1.367,0.233
			c-0.219,0-0.445-0.012-0.677-0.035c-0.233-0.022-0.468-0.061-0.704-0.116c-0.238-0.054-0.463-0.13-0.677-0.225
			c-0.214-0.096-0.399-0.212-0.554-0.349l0.287-1.176c0.128,0.073,0.289,0.144,0.486,0.212c0.195,0.069,0.398,0.132,0.608,0.192
			c0.21,0.059,0.419,0.107,0.629,0.143c0.209,0.036,0.405,0.055,0.588,0.055c0.556,0,0.982-0.13,1.278-0.39
			c0.296-0.26,0.445-0.644,0.445-1.155c0-0.31-0.105-0.574-0.315-0.793c-0.21-0.219-0.472-0.417-0.786-0.595
			c-0.315-0.177-0.654-0.355-1.019-0.533c-0.364-0.178-0.706-0.388-1.025-0.629s-0.584-0.526-0.793-0.854
			c-0.21-0.328-0.314-0.739-0.314-1.231c0-0.446,0.082-0.843,0.246-1.189c0.164-0.347,0.384-0.641,0.663-0.882
			c0.278-0.241,0.601-0.426,0.97-0.554c0.37-0.128,0.759-0.191,1.169-0.191c0.419,0,0.843,0.039,1.272,0.116
			c0.428,0.077,0.774,0.203,1.039,0.376c-0.055,0.118-0.119,0.248-0.191,0.39c-0.074,0.141-0.142,0.273-0.206,0.396
			c-0.064,0.123-0.118,0.226-0.164,0.308c-0.046,0.082-0.073,0.128-0.082,0.136c-0.054-0.027-0.116-0.063-0.184-0.109
			c-0.068-0.046-0.167-0.091-0.294-0.137c-0.128-0.046-0.296-0.077-0.506-0.095c-0.21-0.019-0.479-0.014-0.807,0.013
			c-0.182,0.019-0.355,0.071-0.519,0.158c-0.164,0.086-0.31,0.193-0.438,0.321c-0.128,0.128-0.228,0.271-0.3,0.43
			c-0.074,0.16-0.11,0.313-0.11,0.458c0,0.365,0.105,0.659,0.315,0.882c0.209,0.224,0.469,0.419,0.779,0.588
			c0.309,0.169,0.647,0.333,1.012,0.492c0.364,0.16,0.704,0.354,1.018,0.582c0.315,0.227,0.576,0.512,0.786,0.854
			C23.028,49.261,23.133,49.7,23.133,50.238"/>
		<path id="Fill-367" sketch:type="MSShapeGroup" fill="#2A76D2" d="M27.535,53.055l-3.131-10.131h1.873l2.338,8.695l2.475-8.695
			h1.859l-3.281,10.131H27.535"/>
		<path id="Fill-368" sketch:type="MSShapeGroup" fill="#CFE0F4" stroke="#2A76D2" stroke-miterlimit="10" d="M6,17h10v4H6V17z"/>
		<path id="Stroke-369" sketch:type="MSShapeGroup" fill="none" stroke="#2A76D2" stroke-width="2" d="M6,17h10v4H6V17z"/>
		<path id="Fill-370" sketch:type="MSShapeGroup" fill="#CFE0F4" stroke="#2A76D2" stroke-miterlimit="10" d="M6,13h10v4H6V13z"/>
		<path id="Stroke-371" sketch:type="MSShapeGroup" fill="none" stroke="#2A76D2" stroke-width="2" d="M6,13h10v4H6V13z"/>
		<path id="Fill-372" sketch:type="MSShapeGroup" fill="#CFE0F4" stroke="#2A76D2" stroke-miterlimit="10" d="M16,17h21v4H16V17z"/>
		<path id="Stroke-373" sketch:type="MSShapeGroup" fill="none" stroke="#2A76D2" stroke-width="2" d="M16,17h21v4H16V17z"/>
		<path id="Fill-374" sketch:type="MSShapeGroup" fill="#CFE0F4" stroke="#2A76D2" stroke-miterlimit="10" d="M6,21h10v4H6V21z"/>
		<path id="Stroke-375" sketch:type="MSShapeGroup" fill="none" stroke="#2A76D2" stroke-width="2" d="M6,21h10v4H6V21z"/>
		<path id="Fill-376" sketch:type="MSShapeGroup" fill="#CFE0F4" stroke="#2A76D2" stroke-miterlimit="10" d="M16,21h21v4H16V21z"/>
		<path id="Stroke-377" sketch:type="MSShapeGroup" fill="none" stroke="#2A76D2" stroke-width="2" d="M16,21h21v4H16V21z"/>
		<path id="Fill-378" sketch:type="MSShapeGroup" fill="#CFE0F4" stroke="#2A76D2" stroke-miterlimit="10" d="M6,25h10v4H6V25z"/>
		<path id="Stroke-379" sketch:type="MSShapeGroup" fill="none" stroke="#2A76D2" stroke-width="2" d="M6,25h10v4H6V25z"/>
		<path id="Fill-380" sketch:type="MSShapeGroup" fill="#CFE0F4" stroke="#2A76D2" stroke-miterlimit="10" d="M16,25h21v4H16V25z"/>
		<path id="Stroke-381" sketch:type="MSShapeGroup" fill="none" stroke="#2A76D2" stroke-width="2" d="M16,25h21v4H16V25z"/>
		<path id="Fill-382" sketch:type="MSShapeGroup" fill="#CFE0F4" stroke="#2A76D2" stroke-miterlimit="10" d="M6,29h10v4H6V29z"/>
		<path id="Stroke-383" sketch:type="MSShapeGroup" fill="none" stroke="#2A76D2" stroke-width="2" d="M6,29h10v4H6V29z"/>
		<path id="Fill-384" sketch:type="MSShapeGroup" fill="#CFE0F4" stroke="#2A76D2" stroke-miterlimit="10" d="M16,29h21v4H16V29z"/>
		<path id="Stroke-385" sketch:type="MSShapeGroup" fill="none" stroke="#2A76D2" stroke-width="2" d="M16,29h21v4H16V29z"/>
	</g>
</g>
</svg>
