<?xml version="1.0" encoding="UTF-8" standalone="no"?>
<!DOCTYPE svg PUBLIC "-//W3C//DTD SVG 1.1//EN" "http://www.w3.org/Graphics/SVG/1.1/DTD/svg11.dtd">
<svg width="100%" height="100%" viewBox="0 0 60 60" version="1.1" xmlns="http://www.w3.org/2000/svg" xmlns:xlink="http://www.w3.org/1999/xlink" xml:space="preserve" style="fill-rule:evenodd;clip-rule:evenodd;">
    <g id="_73---Picture-Content--Webby-">
        <rect id="Fill-141" x="1" y="1" width="58" height="58" style="fill:#fff;"/>
        <rect id="Stroke-142" x="1" y="1" width="58" height="58" style="fill:none;stroke:#2a76d2;stroke-width:2px;"/>
        <path id="Fill-1483" d="M21,28.069C21,30.592 18.954,32.638 16.431,32.638C13.908,32.638 11.862,30.592 11.862,28.069C11.862,25.546 13.908,23.5 16.431,23.5C18.954,23.5 21,25.546 21,28.069Z" style="fill:#cfe0f4;"/>
        <path id="Stroke-1484" d="M21,28.069C21,30.592 18.954,32.638 16.431,32.638C13.908,32.638 11.862,30.592 11.862,28.069C11.862,25.546 13.908,23.5 16.431,23.5C18.954,23.5 21,25.546 21,28.069Z" style="fill:none;stroke:#2a76d2;stroke-width:2px;"/>
        <path id="Fill-1804" d="M6,50L6,54L54,54L54,43L39,30L29,41L23,36L6,50" style="fill:#cfe0f4;"/>
        <path id="Stroke-1858" d="M6,50.5L23.017,35.517L33.983,46.483M28.5,41L39,29.5L54,44" style="fill:none;stroke:#2a76d2;stroke-width:2px;stroke-linecap:round;stroke-linejoin:round;"/>
        <rect id="Stroke-1859" x="6" y="18" width="48" height="36" style="fill:none;stroke:#2a76d2;stroke-width:2px;"/>
        <rect id="Fill-1860" x="1" y="1" width="58" height="12" style="fill:#cfe0f4;"/>
        <rect id="Stroke-1861" x="1" y="1" width="58" height="12" style="fill:none;stroke:#2a76d2;stroke-width:2px;"/>
        <path id="Fill-1862" d="M10,7C10,8.657 8.657,10 7,10C5.343,10 4,8.657 4,7C4,5.343 5.343,4 7,4C8.657,4 10,5.343 10,7Z" style="fill:#fff;"/>
        <path id="Stroke-1863" d="M10,7C10,8.657 8.657,10 7,10C5.343,10 4,8.657 4,7C4,5.343 5.343,4 7,4C8.657,4 10,5.343 10,7Z" style="fill:none;stroke:#2a76d2;stroke-width:2px;"/>
        <path id="Fill-1864" d="M19,7C19,8.657 17.657,10 16,10C14.343,10 13,8.657 13,7C13,5.343 14.343,4 16,4C17.657,4 19,5.343 19,7Z" style="fill:#fff;"/>
        <path id="Stroke-1865" d="M19,7C19,8.657 17.657,10 16,10C14.343,10 13,8.657 13,7C13,5.343 14.343,4 16,4C17.657,4 19,5.343 19,7Z" style="fill:none;stroke:#2a76d2;stroke-width:2px;"/>
        <path id="Fill-1866" d="M28,7C28,8.657 26.657,10 25,10C23.343,10 22,8.657 22,7C22,5.343 23.343,4 25,4C26.657,4 28,5.343 28,7Z" style="fill:#fff;"/>
        <path id="Stroke-1867" d="M28,7C28,8.657 26.657,10 25,10C23.343,10 22,8.657 22,7C22,5.343 23.343,4 25,4C26.657,4 28,5.343 28,7Z" style="fill:none;stroke:#2a76d2;stroke-width:2px;"/>
    </g>
</svg>
