<?xml version="1.0" encoding="utf-8"?>
<!-- Generator: Adobe Illustrator 17.0.0, SVG Export Plug-In . SVG Version: 6.00 Build 0)  -->
<!DOCTYPE svg PUBLIC "-//W3C//DTD SVG 1.1//EN" "http://www.w3.org/Graphics/SVG/1.1/DTD/svg11.dtd">
<svg version="1.1" id="Layer_1" xmlns:sketch="http://www.bohemiancoding.com/sketch/ns"
	 xmlns="http://www.w3.org/2000/svg" xmlns:xlink="http://www.w3.org/1999/xlink" x="0px" y="0px" width="60px" height="44px"
	 viewBox="0 0 60 44" enable-background="new 0 0 60 44" xml:space="preserve">
<title>143 - Credit Card (Webby)</title>
<desc>Created with Sketch.</desc>
<g id="Page-1" sketch:type="MSPage">
	<g id="_x31_43---Credit-Card-_x28_Webby_x29_" transform="translate(1.000000, 1.000000)" sketch:type="MSLayerGroup">
		<path id="Fill-5" sketch:type="MSShapeGroup" fill="#FFFFFF" stroke="#2A76D2" stroke-miterlimit="10" d="M54.783,42H3.217
			C1.44,42,0,40.56,0,38.783V3.217C0,1.44,1.44,0,3.217,0h51.566C56.56,0,58,1.44,58,3.217v35.566C58,40.56,56.56,42,54.783,42
			L54.783,42z"/>
		<path id="Stroke-6" sketch:type="MSShapeGroup" fill="none" stroke="#2A76D2" stroke-width="2" d="M54.783,42H3.217
			C1.44,42,0,40.56,0,38.783V3.217C0,1.44,1.44,0,3.217,0h51.566C56.56,0,58,1.44,58,3.217v35.566C58,40.56,56.56,42,54.783,42
			L54.783,42z"/>
		<path id="Fill-323" sketch:type="MSShapeGroup" fill="#CFE0F4" stroke="#2A76D2" stroke-miterlimit="10" d="M46,12
			c0,3.314-2.686,6-6,6s-6-2.686-6-6s2.686-6,6-6S46,8.686,46,12L46,12z"/>
		<path id="Stroke-324" sketch:type="MSShapeGroup" fill="none" stroke="#2A76D2" stroke-width="2" stroke-linecap="round" d="
			M46,12c0,3.314-2.686,6-6,6s-6-2.686-6-6s2.686-6,6-6S46,8.686,46,12L46,12z"/>
		<path id="Fill-325" sketch:type="MSShapeGroup" fill="#CFE0F4" stroke="#2A76D2" stroke-miterlimit="10" d="M53,12
			c0,3.314-2.686,6-6,6s-6-2.686-6-6s2.686-6,6-6S53,8.686,53,12L53,12z"/>
		<path id="Stroke-326" sketch:type="MSShapeGroup" fill="none" stroke="#2A76D2" stroke-width="2" stroke-linecap="round" d="
			M53,12c0,3.314-2.686,6-6,6s-6-2.686-6-6s2.686-6,6-6S53,8.686,53,12L53,12z"/>
		<path id="Stroke-375" sketch:type="MSShapeGroup" fill="none" stroke="#2A76D2" stroke-width="2" stroke-linecap="round" d="M5,8
			h9 M18,8h9 M5,13h1 M10,13h2 M16,13h1 M21,13h2"/>
		<path id="Fill-376" sketch:type="MSShapeGroup" fill="#CFE0F4" stroke="#2A76D2" stroke-miterlimit="10" d="M5,29h9v6H5V29z"/>
		<path id="Stroke-377" sketch:type="MSShapeGroup" fill="none" stroke="#2A76D2" stroke-width="2" d="M5,29h9v6H5V29z"/>
		<path id="Fill-378" sketch:type="MSShapeGroup" fill="#CFE0F4" stroke="#2A76D2" stroke-miterlimit="10" d="M18,29h9v6h-9V29z"/>
		<path id="Stroke-379" sketch:type="MSShapeGroup" fill="none" stroke="#2A76D2" stroke-width="2" d="M18,29h9v6h-9V29z"/>
		<path id="Fill-380" sketch:type="MSShapeGroup" fill="#CFE0F4" stroke="#2A76D2" stroke-miterlimit="10" d="M31,29h9v6h-9V29z"/>
		<path id="Stroke-381" sketch:type="MSShapeGroup" fill="none" stroke="#2A76D2" stroke-width="2" d="M31,29h9v6h-9V29z"/>
		<path id="Fill-382" sketch:type="MSShapeGroup" fill="#CFE0F4" stroke="#2A76D2" stroke-miterlimit="10" d="M44,29h9v6h-9V29z"/>
		<path id="Stroke-383" sketch:type="MSShapeGroup" fill="none" stroke="#2A76D2" stroke-width="2" d="M44,29h9v6h-9V29z"/>
	</g>
</g>
</svg>
