<?xml version="1.0" encoding="utf-8"?>
<!-- Generator: Adobe Illustrator 17.0.0, SVG Export Plug-In . SVG Version: 6.00 Build 0)  -->
<!DOCTYPE svg PUBLIC "-//W3C//DTD SVG 1.1//EN" "http://www.w3.org/Graphics/SVG/1.1/DTD/svg11.dtd">
<svg version="1.1" id="Layer_1" xmlns:sketch="http://www.bohemiancoding.com/sketch/ns"
	 xmlns="http://www.w3.org/2000/svg" xmlns:xlink="http://www.w3.org/1999/xlink" x="0px" y="0px" width="60px" height="57px"
	 viewBox="0 0 60 57" enable-background="new 0 0 60 57" xml:space="preserve">
<title>8 - Mail Contents (Webby)</title>
<desc>Created with Sketch.</desc>
<g id="Page-1" sketch:type="MSPage">
	<g id="_x38_---Mail-Contents-_x28_Webby_x29_" transform="translate(1.000000, 1.000000)" sketch:type="MSLayerGroup">
		<path id="Fill-25" sketch:type="MSShapeGroup" fill="#FFFFFF" stroke="#2A76D2" stroke-miterlimit="10" d="M0,55h58V14H0V55z"/>
		<path id="Stroke-26" sketch:type="MSShapeGroup" fill="none" stroke="#2A76D2" stroke-width="2" stroke-linecap="round" d="M0,55
			h58V14H0V55z"/>
		<path id="Fill-27" sketch:type="MSShapeGroup" fill="#FFFFFF" stroke="#2A76D2" stroke-miterlimit="10" d="M58,53.709V15.291
			c0-0.529-0.606-0.829-1.027-0.508L37,35l19.973,19.218C57.394,54.538,58,54.238,58,53.709L58,53.709z"/>
		<path id="Stroke-28" sketch:type="MSShapeGroup" fill="none" stroke="#2A76D2" stroke-width="2" stroke-linecap="round" d="
			M58,53.709V15.291c0-0.529-0.606-0.829-1.027-0.508L37,35l19.973,19.218C57.394,54.538,58,54.238,58,53.709L58,53.709z"/>
		<path id="Fill-43" sketch:type="MSShapeGroup" fill="#FFFFFF" stroke="#2A76D2" stroke-miterlimit="10" d="M0,14.001
			l27.139,27.267c1.048,0.976,2.674,0.976,3.723,0L58,14"/>
		<path id="Stroke-44" sketch:type="MSShapeGroup" fill="none" stroke="#2A76D2" stroke-width="2" stroke-linecap="round" d="
			M0,14.001l27.139,27.267c1.048,0.976,2.674,0.976,3.723,0L58,14"/>
		<path id="Fill-45" sketch:type="MSShapeGroup" fill="#FFFFFF" stroke="#2A76D2" stroke-miterlimit="10" d="M0,53.709V15.291
			c0-0.529,0.606-0.829,1.027-0.508L21,35L1.027,54.218C0.606,54.538,0,54.238,0,53.709L0,53.709z"/>
		<path id="Stroke-46" sketch:type="MSShapeGroup" fill="none" stroke="#2A76D2" stroke-width="2" stroke-linecap="round" d="
			M0,53.709V15.291c0-0.529,0.606-0.829,1.027-0.508L21,35L1.027,54.218C0.606,54.538,0,54.238,0,53.709L0,53.709z"/>
		<path id="Fill-123" sketch:type="MSShapeGroup" fill="#CFE0F4" stroke="#2A76D2" stroke-miterlimit="10" d="M56.672,14
			L53.051,0.486l-0.027-0.101L3.18,13.741C3.031,13.781,3.06,14,3.214,14H56.672L56.672,14z"/>
		<path id="Stroke-124" sketch:type="MSShapeGroup" fill="none" stroke="#2A76D2" stroke-width="2" stroke-linecap="round" d="
			M56.672,14L53.051,0.486l-0.027-0.101L3.18,13.741C3.031,13.781,3.06,14,3.214,14H56.672L56.672,14z"/>
		<path id="Fill-125" sketch:type="MSShapeGroup" fill="#FFFFFF" stroke="#2A76D2" stroke-miterlimit="10" d="M49.425,14
			l-1.351-5.041l-7.727,2.07L41.143,14H49.425L49.425,14z"/>
		<path id="Stroke-126" sketch:type="MSShapeGroup" fill="none" stroke="#2A76D2" stroke-width="2" stroke-linecap="round" d="
			M49.425,14l-1.351-5.041l-7.727,2.07L41.143,14H49.425L49.425,14z"/>
		<path id="Fill-127" sketch:type="MSShapeGroup" fill="#CFE0F4" stroke="#2A76D2" stroke-miterlimit="10" d="M3.18,13.741L32.07,6
			H3v8h0.214C3.06,14,3.031,13.781,3.18,13.741L3.18,13.741z"/>
		<path id="Stroke-128" sketch:type="MSShapeGroup" fill="none" stroke="#2A76D2" stroke-width="2" stroke-linecap="round" d="
			M3.18,13.741L32.07,6H3v8h0.214C3.06,14,3.031,13.781,3.18,13.741L3.18,13.741z"/>
	</g>
</g>
</svg>
