<?xml version="1.0" encoding="utf-8"?>
<!-- Generator: Adobe Illustrator 17.0.0, SVG Export Plug-In . SVG Version: 6.00 Build 0)  -->
<!DOCTYPE svg PUBLIC "-//W3C//DTD SVG 1.1//EN" "http://www.w3.org/Graphics/SVG/1.1/DTD/svg11.dtd">
<svg version="1.1" id="Layer_1" xmlns:sketch="http://www.bohemiancoding.com/sketch/ns"
	 xmlns="http://www.w3.org/2000/svg" xmlns:xlink="http://www.w3.org/1999/xlink" x="0px" y="0px" width="60px" height="60px"
	 viewBox="0 0 60 60" enable-background="new 0 0 60 60" xml:space="preserve">
<title>65 - Profile (Webby)</title>
<desc>Created with Sketch.</desc>
<g id="Page-1" sketch:type="MSPage">
	<g id="_x36_5---Profile-_x28_Webby_x29_" transform="translate(1.000000, 1.000000)" sketch:type="MSLayerGroup">
		<path id="Fill-1559" sketch:type="MSShapeGroup" fill="#FFFFFF" stroke="#2A76D2" stroke-miterlimit="10" d="M0,0h58v58H0V0z"/>
		<path id="Stroke-1560" sketch:type="MSShapeGroup" fill="none" stroke="#2A76D2" stroke-width="2" d="M0,0h58v58H0V0z"/>
		<path id="Fill-1561" sketch:type="MSShapeGroup" fill="#CFE0F4" stroke="#2A76D2" stroke-miterlimit="10" d="M0,0h58v12H0V0z"/>
		<path id="Stroke-1562" sketch:type="MSShapeGroup" fill="none" stroke="#2A76D2" stroke-width="2" d="M0,0h58v12H0V0z"/>
		<path id="Stroke-1563" sketch:type="MSShapeGroup" fill="none" stroke="#2A76D2" stroke-width="2" stroke-linecap="round" d="
			M35,46H22 M40,50H17"/>
		<path id="Fill-1564" sketch:type="MSShapeGroup" fill="#FFFFFF" stroke="#2A76D2" stroke-miterlimit="10" d="M9,6
			c0,1.657-1.343,3-3,3S3,7.657,3,6s1.343-3,3-3S9,4.343,9,6L9,6z"/>
		<path id="Stroke-1565" sketch:type="MSShapeGroup" fill="none" stroke="#2A76D2" stroke-width="2" d="M9,6c0,1.657-1.343,3-3,3
			S3,7.657,3,6s1.343-3,3-3S9,4.343,9,6L9,6z"/>
		<path id="Fill-1566" sketch:type="MSShapeGroup" fill="#FFFFFF" stroke="#2A76D2" stroke-miterlimit="10" d="M18,6
			c0,1.657-1.343,3-3,3s-3-1.343-3-3s1.343-3,3-3S18,4.343,18,6L18,6z"/>
		<path id="Stroke-1567" sketch:type="MSShapeGroup" fill="none" stroke="#2A76D2" stroke-width="2" d="M18,6c0,1.657-1.343,3-3,3
			s-3-1.343-3-3s1.343-3,3-3S18,4.343,18,6L18,6z"/>
		<path id="Fill-1568" sketch:type="MSShapeGroup" fill="#FFFFFF" stroke="#2A76D2" stroke-miterlimit="10" d="M27,6
			c0,1.657-1.343,3-3,3c-1.657,0-3-1.343-3-3s1.343-3,3-3C25.657,3,27,4.343,27,6L27,6z"/>
		<path id="Stroke-1569" sketch:type="MSShapeGroup" fill="none" stroke="#2A76D2" stroke-width="2" d="M27,6c0,1.657-1.343,3-3,3
			c-1.657,0-3-1.343-3-3s1.343-3,3-3C25.657,3,27,4.343,27,6L27,6z"/>
		<path id="Fill-1570" sketch:type="MSShapeGroup" fill="#FFFFFF" stroke="#2A76D2" stroke-miterlimit="10" d="M41,29
			c0,6.627-5.373,12-12,12s-12-5.373-12-12s5.373-12,12-12S41,22.373,41,29L41,29z"/>
		<path id="Stroke-1571" sketch:type="MSShapeGroup" fill="none" stroke="#2A76D2" stroke-width="2" d="M41,29
			c0,6.627-5.373,12-12,12s-12-5.373-12-12s5.373-12,12-12S41,22.373,41,29L41,29z"/>
		<path id="Fill-1572" sketch:type="MSShapeGroup" fill="#CFE0F4" stroke="#2A76D2" stroke-miterlimit="10" d="M31.932,36.567
			c-0.447-0.223-0.73-0.681-0.73-1.181v-1.358c0.098-0.11,0.209-0.253,0.328-0.421c0.472-0.666,0.828-1.399,1.076-2.168
			c0.443-0.137,0.771-0.547,0.771-1.034v-1.45c0-0.319-0.142-0.604-0.363-0.803v-2.095c0,0,0.431-3.262-3.986-3.262
			c-4.416,0-3.986,3.262-3.986,3.262v2.095c-0.22,0.199-0.362,0.484-0.362,0.803v1.45c0,0.382,0.201,0.718,0.501,0.912
			c0.362,1.577,1.311,2.711,1.311,2.711v1.325c0,0.483-0.264,0.927-0.688,1.159l-3.233,1.763c-0.221,0.121-0.418,0.271-0.597,0.439
			C23.951,40.146,26.373,41,29,41c2.623,0,5.041-0.851,7.016-2.278c-0.187-0.165-0.394-0.31-0.623-0.424L31.932,36.567
			L31.932,36.567z"/>
		<path id="Stroke-1573" sketch:type="MSShapeGroup" fill="none" stroke="#2A76D2" stroke-width="2" d="M31.932,36.567
			c-0.447-0.223-0.73-0.681-0.73-1.181v-1.358c0.098-0.11,0.209-0.253,0.328-0.421c0.472-0.666,0.828-1.399,1.076-2.168
			c0.443-0.137,0.771-0.547,0.771-1.034v-1.45c0-0.319-0.142-0.604-0.363-0.803v-2.095c0,0,0.431-3.262-3.986-3.262
			c-4.416,0-3.986,3.262-3.986,3.262v2.095c-0.22,0.199-0.362,0.484-0.362,0.803v1.45c0,0.382,0.201,0.718,0.501,0.912
			c0.362,1.577,1.311,2.711,1.311,2.711v1.325c0,0.483-0.264,0.927-0.688,1.159l-3.233,1.763c-0.221,0.121-0.418,0.271-0.597,0.439
			C23.951,40.146,26.373,41,29,41c2.623,0,5.041-0.851,7.016-2.278c-0.187-0.165-0.394-0.31-0.623-0.424L31.932,36.567
			L31.932,36.567z"/>
	</g>
</g>
</svg>
