<?xml version="1.0" encoding="UTF-8" standalone="no"?>
<!DOCTYPE svg PUBLIC "-//W3C//DTD SVG 1.1//EN" "http://www.w3.org/Graphics/SVG/1.1/DTD/svg11.dtd">
<svg width="100%" height="100%" viewBox="0 0 60 60" version="1.1" xmlns="http://www.w3.org/2000/svg" xmlns:xlink="http://www.w3.org/1999/xlink" xml:space="preserve" style="fill-rule:evenodd;clip-rule:evenodd;stroke-linecap:round;stroke-miterlimit:10;">
    <g id="money">
        <g id="money-bag">
            <path d="M22.681,2.74C20.617,1.069 18.062,1.265 15.998,1.953C14.623,2.445 14.328,4.214 15.409,5.196C16.588,6.179 18.259,9.029 18.652,10.012C18.947,10.798 19.635,11.29 20.421,11.29L27.792,11.29C28.578,11.29 29.266,10.798 29.561,10.012C29.954,9.029 31.231,6.179 32.411,5.196C33.59,4.214 33.295,2.445 31.821,1.953C29.757,1.265 27.3,1.069 25.138,2.74C24.352,3.329 23.369,3.329 22.681,2.74Z" style="fill:#fff;fill-rule:nonzero;stroke:#2a76d2;stroke-width:1.97px;"/>
            <path d="M18.75,17.186L30.543,17.186" style="fill:none;stroke:#2a76d2;stroke-width:1.97px;"/>
            <path d="M18.75,14.238L30.543,14.238" style="fill:none;stroke:#2a76d2;stroke-width:1.97px;"/>
            <path d="M29.659,50.502C30.052,47.75 32.312,45.391 35.064,44.802C36.636,44.507 38.111,44.704 39.388,45.293L39.388,44.31L39.388,40.379L39.388,36.448C39.388,35.662 41.943,34.188 45.481,33.598C44.204,30.945 42.336,28.488 39.88,26.621L32.804,21.805C31.526,20.822 29.855,20.036 28.283,20.036L20.617,20.036C18.947,20.036 17.276,20.626 15.998,21.609L9.119,26.621C2.24,32.124 -0.021,41.559 3.812,49.323C5.483,52.566 7.743,55.317 10.397,55.514L30.543,55.514C29.757,54.236 29.364,52.173 29.659,50.502Z" style="fill:#fff;fill-rule:nonzero;stroke:#2a76d2;stroke-width:1.97px;stroke-linecap:butt;"/>
            <path d="M30.543,14.238L30.543,17.186" style="fill:none;stroke:#2a76d2;stroke-width:1.97px;"/>
            <path d="M30.74,17.186C32.312,18.759 34.769,18.759 36.342,17.186" style="fill:none;stroke:#2a76d2;stroke-width:1.97px;"/>
            <path d="M8.923,40.772C8.923,34.778 15.704,27.014 21.698,27.014" style="fill:none;stroke:#2a76d2;stroke-width:1.97px;"/>
        </g>
        <g id="coin">
            <path d="M48.233,38.414C43.319,38.414 39.388,37.529 39.388,36.547L39.388,40.478C39.388,41.559 43.319,42.345 48.233,42.345C53.147,42.345 57.078,41.46 57.078,40.478L57.078,36.547C57.078,37.529 53.049,38.414 48.233,38.414Z" style="fill:#fff;fill-rule:nonzero;stroke:#2a76d2;stroke-width:1.97px;stroke-linejoin:round;stroke-miterlimit:1;"/>
            <path d="M57.078,36.547C57.078,37.628 53.147,38.414 48.233,38.414C43.319,38.414 39.388,37.529 39.388,36.547C39.388,35.466 43.319,33.5 48.233,33.5C53.147,33.5 57.078,35.466 57.078,36.547Z" style="fill:#fff;fill-rule:nonzero;stroke:#2a76d2;stroke-width:1.97px;"/>
            <path d="M48.233,42.345C43.319,42.345 39.388,41.46 39.388,40.478L39.388,44.409C39.388,45.49 43.319,46.276 48.233,46.276C53.147,46.276 57.078,45.391 57.078,44.409L57.078,40.478C57.078,41.46 53.049,42.345 48.233,42.345Z" style="fill:#fff;fill-rule:nonzero;stroke:#2a76d2;stroke-width:1.97px;stroke-miterlimit:1;"/>
            <path d="M48.233,54.138C46.268,54.138 44.4,54.04 42.926,53.745C42.435,55.121 41.649,56.3 40.469,57.086C41.943,57.676 44.892,58.069 48.135,58.069C53.049,58.069 57.078,57.185 57.078,56.202L57.078,52.271C57.176,53.254 53.049,54.138 48.233,54.138Z" style="fill:#fff;fill-rule:nonzero;stroke:#2a76d2;stroke-width:1.97px;stroke-miterlimit:1;"/>
            <path d="M48.233,46.276C43.319,46.276 39.388,45.391 39.388,44.409L39.388,45.391C41.157,46.276 42.533,47.848 43.123,49.912C44.597,50.109 46.366,50.305 48.233,50.305C53.147,50.305 57.078,49.421 57.078,48.438L57.078,44.507C57.078,45.391 53.049,46.276 48.233,46.276Z" style="fill:#fff;fill-rule:nonzero;stroke:#2a76d2;stroke-width:1.97px;stroke-miterlimit:1;"/>
            <path d="M48.233,50.207C46.268,50.207 44.499,50.109 43.123,49.814C43.221,50.404 43.319,50.993 43.319,51.583C43.319,52.369 43.221,53.057 42.926,53.745C44.4,53.941 46.268,54.138 48.233,54.138C53.147,54.138 57.078,53.254 57.078,52.271L57.078,48.34C57.078,49.323 53.049,50.207 48.233,50.207Z" style="fill:#fff;fill-rule:nonzero;stroke:#2a76d2;stroke-width:1.97px;"/>
            <circle cx="36.44" cy="51.583" r="6.879" style="fill:#cfe0f4;stroke:#2a76d2;stroke-width:1.97px;stroke-linecap:butt;"/>
        </g>
    </g>
</svg>
