<?xml version="1.0" encoding="utf-8"?>
<!-- Generator: Adobe Illustrator 17.0.0, SVG Export Plug-In . SVG Version: 6.00 Build 0)  -->
<!DOCTYPE svg PUBLIC "-//W3C//DTD SVG 1.1//EN" "http://www.w3.org/Graphics/SVG/1.1/DTD/svg11.dtd">
<svg version="1.1" id="Layer_1" xmlns:sketch="http://www.bohemiancoding.com/sketch/ns"
	 xmlns="http://www.w3.org/2000/svg" xmlns:xlink="http://www.w3.org/1999/xlink" x="0px" y="0px" width="60px" height="60px"
	 viewBox="0 0 60 60" enable-background="new 0 0 60 60" xml:space="preserve">
<title>113 - Chart Presentation (Webby)</title>
<desc>Created with Sketch.</desc>
<g id="Page-1" sketch:type="MSPage">
	<g id="_x31_13---Chart-Presentation-_x28_Webby_x29_" transform="translate(1.000000, 1.000000)" sketch:type="MSLayerGroup">
		<path id="Fill-1" sketch:type="MSShapeGroup" fill="#CFE0F4" stroke="#2A76D2" stroke-miterlimit="10" d="M0,0h58v6H0V0z"/>
		<path id="Stroke-2" sketch:type="MSShapeGroup" fill="none" stroke="#2A76D2" stroke-width="2" d="M0,0h58v6H0V0z"/>
		<path id="Stroke-3" sketch:type="MSShapeGroup" fill="none" stroke="#2A76D2" stroke-width="2" stroke-linecap="round" d="M0,48
			h58 M29,48v3"/>
		<path id="Fill-4" sketch:type="MSShapeGroup" fill="#CFE0F4" stroke="#2A76D2" stroke-miterlimit="10" d="M32,55
			c0,1.657-1.343,3-3,3c-1.657,0-3-1.343-3-3s1.343-3,3-3C30.657,52,32,53.343,32,55L32,55z"/>
		<path id="Stroke-5" sketch:type="MSShapeGroup" fill="none" stroke="#2A76D2" stroke-width="2" stroke-linecap="round" d="M32,55
			c0,1.657-1.343,3-3,3c-1.657,0-3-1.343-3-3s1.343-3,3-3C30.657,52,32,53.343,32,55L32,55z"/>
		<path id="Fill-6" sketch:type="MSShapeGroup" fill="#FFFFFF" stroke="#2A76D2" stroke-miterlimit="10" d="M2,6h54v42H2V6z"/>
		<path id="Stroke-7" sketch:type="MSShapeGroup" fill="none" stroke="#2A76D2" stroke-width="2" stroke-linecap="round" d="M2,6h54
			v42H2V6z"/>
		<path id="Stroke-8" sketch:type="MSShapeGroup" fill="none" stroke="#2A76D2" stroke-width="2" stroke-linecap="round" d="M35,43
			v-3 M39,43v-7 M43,43v-5 M47,43V31 M51,43v-8 M9,38h10 M9,42h15"/>
		<path id="Fill-9" sketch:type="MSShapeGroup" fill="#CFE0F4" stroke="#2A76D2" stroke-miterlimit="10" d="M29,21.5
			C29,27.299,24.299,32,18.5,32S8,27.299,8,21.5S12.701,11,18.5,11S29,15.701,29,21.5L29,21.5z"/>
		<path id="Stroke-10" sketch:type="MSShapeGroup" fill="none" stroke="#2A76D2" stroke-width="2" stroke-linecap="round" d="
			M29,21.5C29,27.299,24.299,32,18.5,32S8,27.299,8,21.5S12.701,11,18.5,11S29,15.701,29,21.5L29,21.5z"/>
		<path id="Stroke-11" sketch:type="MSShapeGroup" fill="none" stroke="#2A76D2" stroke-width="2" stroke-linecap="round" d="
			M18.014,11.011c-0.006,0.005-0.009,0.009-0.014,0.014v10.938C18,21.984,18.016,22,18.037,22h10.938
			c0.005-0.005,0.009-0.008,0.014-0.014C29.268,15.803,24.197,10.732,18.014,11.011L18.014,11.011z M18,22l7.408,7.408L18,22z
			 M38,17h8H38z M48,12h3H48z M38,12h2H38z"/>
	</g>
</g>
</svg>
