<?xml version="1.0" encoding="utf-8"?>
<!-- Generator: Adobe Illustrator 17.0.0, SVG Export Plug-In . SVG Version: 6.00 Build 0)  -->
<!DOCTYPE svg PUBLIC "-//W3C//DTD SVG 1.1//EN" "http://www.w3.org/Graphics/SVG/1.1/DTD/svg11.dtd">
<svg version="1.1" id="Layer_1" xmlns="http://www.w3.org/2000/svg" xmlns:xlink="http://www.w3.org/1999/xlink" x="0px" y="0px"
	 width="63.479px" height="55.46px" viewBox="0 0 63.479 55.46" enable-background="new 0 0 63.479 55.46" xml:space="preserve">
<g>

		<circle class="shading" fill="#CFE0F4" stroke="#2A76D2" stroke-width="2" stroke-linecap="round" stroke-linejoin="round" stroke-miterlimit="10" cx="9.029" cy="46.468" r="8.019"/>

		<circle class="shading" fill="#CFE0F4" stroke="#2A76D2" stroke-width="2" stroke-linecap="round" stroke-linejoin="round" stroke-miterlimit="10" cx="9.029" cy="9.046" r="8.019"/>
	<g>
		<g>

				<line fill="none" stroke="#2A76D2" stroke-width="2" stroke-linecap="round" stroke-linejoin="round" x1="27.74" y1="42.458" x2="29.077" y2="42.458"/>

				<line fill="none" stroke="#2A76D2" stroke-width="2" stroke-linecap="round" stroke-linejoin="round" stroke-dasharray="2.916,5.832" x1="34.909" y1="42.458" x2="58.236" y2="42.458"/>

				<line fill="none" stroke="#2A76D2" stroke-width="2" stroke-linecap="round" stroke-linejoin="round" x1="61.152" y1="42.458" x2="62.489" y2="42.458"/>
		</g>
		<path class="shading" fill="#CFE0F4" d="M22.172,27.282c0,0,9.476-18.871,27.19-18.871c4.772,0,9.298,1.042,13.365,2.909L22.302,27.04"/>
	</g>
	<path fill="none" stroke="#2A76D2" stroke-width="2" stroke-linecap="round" stroke-linejoin="round" stroke-miterlimit="10" d="
		M28.86,37.112c-7.207-7.369-11.812-18.036-11.812-28.066"/>
	<path fill="none" stroke="#2A76D2" stroke-width="2" stroke-linecap="round" stroke-linejoin="round" stroke-miterlimit="10" d="
		M17.048,46.468c0-17.715,14.362-37.422,32.076-37.422c4.772,0,9.298,1.042,13.365,2.909L22.394,27.757l24.057,9.355"/>
</g>
</svg>
