<?xml version="1.0" encoding="UTF-8" standalone="no"?>
<svg width="45px" height="58px" viewBox="0 0 45 58" version="1.1" xmlns="http://www.w3.org/2000/svg" xmlns:xlink="http://www.w3.org/1999/xlink" xmlns:sketch="http://www.bohemiancoding.com/sketch/ns">
    <!-- Generator: Sketch 3.2.2 (9983) - http://www.bohemiancoding.com/sketch -->
    <title>17 - CSV File (Webby)</title>
    <desc>Created with Sketch.</desc>
    <defs></defs>
    <g id="Page-1" stroke="none" stroke-width="1" fill="none" fill-rule="evenodd" sketch:type="MSPage">
        <g id="17---CSV-File-(Webby)" sketch:type="MSLayerGroup" transform="translate(1.000000, 1.000000)">
            <path d="M30.485,0 L1.463,0 C0.655,0 0,0.655 0,1.926 L0,55 C0,55.345 0.655,56 1.463,56 L41.537,56 C42.345,56 43,55.345 43,55 L43,12.978 C43,12.282 42.907,12.058 42.743,11.893 L31.107,0.257 C30.942,0.093 30.718,0 30.485,0 L30.485,0 Z" id="Fill-23" fill="#FFFFFF" sketch:type="MSShapeGroup"></path>
            <path d="M30.485,0 L1.463,0 C0.655,0 0,0.655 0,1.926 L0,55 C0,55.345 0.655,56 1.463,56 L41.537,56 C42.345,56 43,55.345 43,55 L43,12.978 C43,12.282 42.907,12.058 42.743,11.893 L31.107,0.257 C30.942,0.093 30.718,0 30.485,0 L30.485,0 Z" id="Stroke-24" stroke="#0096E6" stroke-width="2" sketch:type="MSShapeGroup"></path>
            <path class="shading" d="M41.537,56 L1.463,56 C0.655,56 0,55.345 0,54.537 L0,39 L43,39 L43,54.537 C43,55.345 42.345,56 41.537,56 L41.537,56 Z" id="Fill-361" fill="#D0E8F9" sketch:type="MSShapeGroup"></path>
            <path d="M41.537,56 L1.463,56 C0.655,56 0,55.345 0,54.537 L0,39 L43,39 L43,54.537 C43,55.345 42.345,56 41.537,56 L41.537,56 Z" id="Stroke-362" stroke="#0096E6" stroke-width="2" sketch:type="MSShapeGroup"></path>
            <path class="shading" d="M31,1.391 L31,12 L41.609,12 C42.066,12 42.296,11.446 41.972,11.123 L31.877,1.028 C31.553,0.704 31,0.933 31,1.391 L31,1.391 Z" id="Fill-363" fill="#D0E8F9" sketch:type="MSShapeGroup"></path>
            <path d="M31,1.391 L31,12 L41.609,12 C42.066,12 42.296,11.446 41.972,11.123 L31.877,1.028 C31.553,0.704 31,0.933 31,1.391 L31,1.391 Z" id="Stroke-364" stroke="#0096E6" stroke-width="2" sketch:type="MSShapeGroup"></path>

            <!-- C -->
            <path class="fill" d="M15.08,51.975 C14.706,52.339 14.282,52.612 13.809,52.795 C13.334,52.977 12.824,53.068 12.277,53.068 C11.676,53.068 11.122,52.959 10.616,52.74 C10.11,52.522 9.668,52.198 9.29,51.769 C8.912,51.341 8.615,50.804 8.401,50.156 C8.187,49.509 8.08,48.762 8.08,47.914 C8.08,47.066 8.187,46.321 8.401,45.679 C8.615,45.036 8.912,44.501 9.29,44.072 C9.668,43.644 10.112,43.318 10.623,43.095 C11.133,42.871 11.685,42.76 12.277,42.76 C12.824,42.76 13.334,42.851 13.809,43.033 C14.282,43.216 14.706,43.489 15.08,43.854 L13.945,44.865 C13.717,44.601 13.464,44.409 13.186,44.291 C12.908,44.173 12.619,44.113 12.318,44.113 C11.981,44.113 11.66,44.177 11.354,44.305 C11.049,44.433 10.775,44.648 10.534,44.954 C10.293,45.26 10.103,45.653 9.967,46.137 C9.83,46.62 9.757,47.212 9.748,47.914 C9.757,48.598 9.828,49.181 9.96,49.664 C10.092,50.148 10.274,50.541 10.507,50.847 C10.739,51.152 11.003,51.375 11.3,51.517 C11.596,51.658 11.908,51.729 12.236,51.729 C12.564,51.729 12.872,51.669 13.159,51.551 C13.446,51.433 13.708,51.241 13.945,50.977 L15.08,51.975" id="Fill-365" fill="#0096E6" sketch:type="MSShapeGroup"></path>
            <!-- S -->
            <path class="fill" d="M23.133,50.238 C23.133,50.603 23.058,50.956 22.907,51.298 C22.757,51.64 22.545,51.94 22.271,52.2 C21.998,52.46 21.661,52.667 21.26,52.822 C20.858,52.977 20.403,53.055 19.893,53.055 C19.674,53.055 19.448,53.043 19.216,53.02 C18.983,52.998 18.748,52.959 18.512,52.904 C18.274,52.85 18.049,52.774 17.835,52.679 C17.621,52.583 17.436,52.467 17.281,52.33 L17.568,51.154 C17.696,51.227 17.857,51.298 18.054,51.366 C18.249,51.435 18.452,51.498 18.662,51.558 C18.872,51.617 19.081,51.665 19.291,51.701 C19.5,51.737 19.696,51.756 19.879,51.756 C20.435,51.756 20.861,51.626 21.157,51.366 C21.453,51.106 21.602,50.722 21.602,50.211 C21.602,49.901 21.497,49.637 21.287,49.418 C21.077,49.199 20.815,49.001 20.501,48.823 C20.186,48.646 19.847,48.468 19.482,48.29 C19.118,48.112 18.776,47.902 18.457,47.661 C18.138,47.42 17.873,47.135 17.664,46.807 C17.454,46.479 17.35,46.068 17.35,45.576 C17.35,45.13 17.432,44.733 17.596,44.387 C17.76,44.04 17.98,43.746 18.259,43.505 C18.537,43.264 18.86,43.079 19.229,42.951 C19.599,42.823 19.988,42.76 20.398,42.76 C20.817,42.76 21.241,42.799 21.67,42.876 C22.098,42.953 22.444,43.079 22.709,43.252 C22.654,43.37 22.59,43.5 22.518,43.642 C22.444,43.783 22.376,43.915 22.312,44.038 C22.248,44.161 22.194,44.264 22.148,44.346 C22.102,44.428 22.075,44.474 22.066,44.482 C22.012,44.455 21.95,44.419 21.882,44.373 C21.814,44.327 21.715,44.282 21.588,44.236 C21.46,44.19 21.292,44.159 21.082,44.141 C20.872,44.122 20.603,44.127 20.275,44.154 C20.093,44.173 19.92,44.225 19.756,44.312 C19.592,44.398 19.446,44.505 19.318,44.633 C19.19,44.761 19.09,44.904 19.018,45.063 C18.944,45.223 18.908,45.376 18.908,45.521 C18.908,45.886 19.013,46.18 19.223,46.403 C19.432,46.627 19.692,46.822 20.002,46.991 C20.311,47.16 20.649,47.324 21.014,47.483 C21.378,47.643 21.718,47.837 22.032,48.065 C22.347,48.292 22.608,48.577 22.818,48.919 C23.028,49.261 23.133,49.7 23.133,50.238" id="Fill-366" fill="#0096E6" sketch:type="MSShapeGroup"></path>
            <!-- V -->
            <path class="fill" d="M27.535,53.055 L24.404,42.924 L26.277,42.924 L28.615,51.619 L31.09,42.924 L32.949,42.924 L29.668,53.055 L27.535,53.055" id="Fill-367" fill="#0096E6" sketch:type="MSShapeGroup"></path>

            <path class="shading" d="M6,17 L16,17 L16,21 L6,21 L6,17 Z" id="Fill-368" fill="#D0E8F9" sketch:type="MSShapeGroup"></path>
            <path d="M6,17 L16,17 L16,21 L6,21 L6,17 Z" id="Stroke-369" stroke="#0096E6" stroke-width="2" sketch:type="MSShapeGroup"></path>
            <path class="shading" d="M6,13 L16,13 L16,17 L6,17 L6,13 Z" id="Fill-370" fill="#D0E8F9" sketch:type="MSShapeGroup"></path>
            <path d="M6,13 L16,13 L16,17 L6,17 L6,13 Z" id="Stroke-371" stroke="#0096E6" stroke-width="2" sketch:type="MSShapeGroup"></path>
            <path class="shading" d="M16,17 L37,17 L37,21 L16,21 L16,17 Z" id="Fill-372" fill="#D0E8F9" sketch:type="MSShapeGroup"></path>
            <path d="M16,17 L37,17 L37,21 L16,21 L16,17 Z" id="Stroke-373" stroke="#0096E6" stroke-width="2" sketch:type="MSShapeGroup"></path>
            <path class="shading" d="M6,21 L16,21 L16,25 L6,25 L6,21 Z" id="Fill-374" fill="#D0E8F9" sketch:type="MSShapeGroup"></path>
            <path d="M6,21 L16,21 L16,25 L6,25 L6,21 Z" id="Stroke-375" stroke="#0096E6" stroke-width="2" sketch:type="MSShapeGroup"></path>
            <path class="shading" d="M16,21 L37,21 L37,25 L16,25 L16,21 Z" id="Fill-376" fill="#D0E8F9" sketch:type="MSShapeGroup"></path>
            <path d="M16,21 L37,21 L37,25 L16,25 L16,21 Z" id="Stroke-377" stroke="#0096E6" stroke-width="2" sketch:type="MSShapeGroup"></path>
            <path class="shading" d="M6,25 L16,25 L16,29 L6,29 L6,25 Z" id="Fill-378" fill="#D0E8F9" sketch:type="MSShapeGroup"></path>
            <path d="M6,25 L16,25 L16,29 L6,29 L6,25 Z" id="Stroke-379" stroke="#0096E6" stroke-width="2" sketch:type="MSShapeGroup"></path>
            <path class="shading" d="M16,25 L37,25 L37,29 L16,29 L16,25 Z" id="Fill-380" fill="#D0E8F9" sketch:type="MSShapeGroup"></path>
            <path d="M16,25 L37,25 L37,29 L16,29 L16,25 Z" id="Stroke-381" stroke="#0096E6" stroke-width="2" sketch:type="MSShapeGroup"></path>
            <path class="shading" d="M6,29 L16,29 L16,33 L6,33 L6,29 Z" id="Fill-382" fill="#D0E8F9" sketch:type="MSShapeGroup"></path>
            <path d="M6,29 L16,29 L16,33 L6,33 L6,29 Z" id="Stroke-383" stroke="#0096E6" stroke-width="2" sketch:type="MSShapeGroup"></path>
            <path class="shading" d="M16,29 L37,29 L37,33 L16,33 L16,29 Z" id="Fill-384" fill="#D0E8F9" sketch:type="MSShapeGroup"></path>
            <path d="M16,29 L37,29 L37,33 L16,33 L16,29 Z" id="Stroke-385" stroke="#0096E6" stroke-width="2" sketch:type="MSShapeGroup"></path>
        </g>
    </g>
</svg>
