<?xml version="1.0" encoding="UTF-8" standalone="no"?>
<svg width="60px" height="44px" viewBox="0 0 60 44" version="1.1" xmlns="http://www.w3.org/2000/svg" xmlns:xlink="http://www.w3.org/1999/xlink" xmlns:sketch="http://www.bohemiancoding.com/sketch/ns">
    <!-- Generator: Sketch 3.2.2 (9983) - http://www.bohemiancoding.com/sketch -->
    <title>143 - Credit Card (Webby)</title>
    <desc>Created with Sketch.</desc>
    <defs></defs>
    <g id="Page-1" stroke="none" stroke-width="1" fill="none" fill-rule="evenodd" sketch:type="MSPage">
        <g id="143---Credit-Card-(Webby)" sketch:type="MSLayerGroup" transform="translate(1.000000, 1.000000)">
            <path d="M54.783,42 L3.217,42 C1.44,42 0,40.56 0,38.783 L0,3.217 C0,1.44 1.44,0 3.217,0 L54.783,0 C56.56,0 58,1.44 58,3.217 L58,38.783 C58,40.56 56.56,42 54.783,42 L54.783,42 Z" id="Fill-5" fill="#FFFFFF" sketch:type="MSShapeGroup"></path>
            <path d="M54.783,42 L3.217,42 C1.44,42 0,40.56 0,38.783 L0,3.217 C0,1.44 1.44,0 3.217,0 L54.783,0 C56.56,0 58,1.44 58,3.217 L58,38.783 C58,40.56 56.56,42 54.783,42 L54.783,42 Z" id="Stroke-6" stroke="#0096E6" stroke-width="2" sketch:type="MSShapeGroup"></path>
            <path class="shading" d="M46,12 C46,15.314 43.314,18 40,18 C36.686,18 34,15.314 34,12 C34,8.686 36.686,6 40,6 C43.314,6 46,8.686 46,12 L46,12 Z" id="Fill-323" fill="#D0E8F9" sketch:type="MSShapeGroup"></path>
            <path d="M46,12 C46,15.314 43.314,18 40,18 C36.686,18 34,15.314 34,12 C34,8.686 36.686,6 40,6 C43.314,6 46,8.686 46,12 L46,12 Z" id="Stroke-324" stroke="#0096E6" stroke-width="2" stroke-linecap="round" sketch:type="MSShapeGroup"></path>
            <path class="shading" d="M53,12 C53,15.314 50.314,18 47,18 C43.686,18 41,15.314 41,12 C41,8.686 43.686,6 47,6 C50.314,6 53,8.686 53,12 L53,12 Z" id="Fill-325" fill="#D0E8F9" sketch:type="MSShapeGroup"></path>
            <path d="M53,12 C53,15.314 50.314,18 47,18 C43.686,18 41,15.314 41,12 C41,8.686 43.686,6 47,6 C50.314,6 53,8.686 53,12 L53,12 Z" id="Stroke-326" stroke="#0096E6" stroke-width="2" stroke-linecap="round" sketch:type="MSShapeGroup"></path>
            <path d="M5,8 L14,8 M18,8 L27,8 M5,13 L6,13 M10,13 L12,13 M16,13 L17,13 M21,13 L23,13" id="Stroke-375" stroke="#0096E6" stroke-width="2" stroke-linecap="round" sketch:type="MSShapeGroup"></path>
            <path class="shading" d="M5,29 L14,29 L14,35 L5,35 L5,29 Z" id="Fill-376" fill="#D0E8F9" sketch:type="MSShapeGroup"></path>
            <path d="M5,29 L14,29 L14,35 L5,35 L5,29 Z" id="Stroke-377" stroke="#0096E6" stroke-width="2" sketch:type="MSShapeGroup"></path>
            <path class="shading" d="M18,29 L27,29 L27,35 L18,35 L18,29 Z" id="Fill-378" fill="#D0E8F9" sketch:type="MSShapeGroup"></path>
            <path d="M18,29 L27,29 L27,35 L18,35 L18,29 Z" id="Stroke-379" stroke="#0096E6" stroke-width="2" sketch:type="MSShapeGroup"></path>
            <path class="shading" d="M31,29 L40,29 L40,35 L31,35 L31,29 Z" id="Fill-380" fill="#D0E8F9" sketch:type="MSShapeGroup"></path>
            <path d="M31,29 L40,29 L40,35 L31,35 L31,29 Z" id="Stroke-381" stroke="#0096E6" stroke-width="2" sketch:type="MSShapeGroup"></path>
            <path class="shading" d="M44,29 L53,29 L53,35 L44,35 L44,29 Z" id="Fill-382" fill="#D0E8F9" sketch:type="MSShapeGroup"></path>
            <path d="M44,29 L53,29 L53,35 L44,35 L44,29 Z" id="Stroke-383" stroke="#0096E6" stroke-width="2" sketch:type="MSShapeGroup"></path>
        </g>
    </g>
</svg>
