<?xml version="1.0" encoding="UTF-8" standalone="no"?>
<svg width="55px" height="57px" viewBox="0 0 55 57" version="1.1" xmlns="http://www.w3.org/2000/svg" xmlns:xlink="http://www.w3.org/1999/xlink" xmlns:sketch="http://www.bohemiancoding.com/sketch/ns">
    <!-- Generator: Sketch 3.2.2 (9983) - http://www.bohemiancoding.com/sketch -->
    <title>254 - LIke Calendar (Webby)</title>
    <desc>Created with Sketch.</desc>
    <defs></defs>
    <g id="Page-1" stroke="none" stroke-width="1" fill="none" fill-rule="evenodd" sketch:type="MSPage">
        <g id="254---LIke-Calendar-(Webby)" sketch:type="MSLayerGroup" transform="translate(1.000000, 1.000000)" stroke="#0096E6" stroke-width="2">
            <path d="M41,38.257 C41.969,36.074 44.109,34.058 46.684,34.058 C50.151,34.058 52.648,36.879 52.962,40.241 C52.962,40.241 53.131,41.075 52.758,42.578 C52.25,44.624 51.057,46.442 49.447,47.829 L41.118,54.956 C41.05,55.014 40.95,55.014 40.882,54.956 L32.553,47.829 C30.943,46.441 29.75,44.624 29.242,42.577 C28.869,41.075 29.038,40.24 29.038,40.24 C29.352,36.878 31.849,34.057 35.316,34.057 C37.891,34.057 40.031,36.074 41,38.257 L41,38.257 Z" id="Stroke-132" fill="#D0E8F9" sketch:type="MSShapeGroup"></path>
            <path d="M6,0 L13,0 L13,8 L6,8 L6,0 Z" id="Stroke-4446" stroke-linecap="round" stroke-linejoin="round" sketch:type="MSShapeGroup"></path>
            <path d="M37,0 L44,0 L44,8 L37,8 L37,0 Z" id="Stroke-4448" stroke-linecap="round" stroke-linejoin="round" sketch:type="MSShapeGroup"></path>
            <path d="M44,4 L44,8 L37,8 L37,4 L13,4 L13,8 L6,8 L6,4 L0,4 L0,14 L50,14 L50,4 L44,4 L44,4 Z" id="Stroke-4450" stroke-linecap="round" stroke-linejoin="round" sketch:type="MSShapeGroup"></path>
            <path d="M7,21 L16,21 L16,30 L7,30 L7,21 Z" id="Stroke-4452" stroke-linecap="round" sketch:type="MSShapeGroup"></path>
            <path d="M7,30 L16,30 L16,39 L7,39 L7,30 Z" id="Stroke-4454" stroke-linecap="round" sketch:type="MSShapeGroup"></path>
            <path d="M7,39 L16,39 L16,48 L7,48 L7,39 Z" id="Stroke-4456" stroke-linecap="round" sketch:type="MSShapeGroup"></path>
            <path d="M16,21 L25,21 L25,30 L16,30 L16,21 Z" id="Stroke-4458" stroke-linecap="round" sketch:type="MSShapeGroup"></path>
            <path d="M16,30 L25,30 L25,39 L16,39 L16,30 Z" id="Stroke-4460" stroke-linecap="round" sketch:type="MSShapeGroup"></path>
            <path d="M16,39 L25,39 L25,48 L16,48 L16,39 Z" id="Stroke-4462" stroke-linecap="round" sketch:type="MSShapeGroup"></path>
            <path d="M25,21 L34,21 L34,30 L25,30 L25,21 Z" id="Stroke-4464" stroke-linecap="round" sketch:type="MSShapeGroup"></path>
            <path d="M34,21 L43,21 L43,30 L34,30 L34,21 Z" id="Stroke-4466" stroke-linecap="round" sketch:type="MSShapeGroup"></path>
            <path d="M50,28 L50,4 L44,4 L44,8 L37,8 L37,4 L13,4 L13,8 L6,8 L6,4 L0,4 L0,55 L25,55" id="Stroke-4468" stroke-linecap="round" stroke-linejoin="round" sketch:type="MSShapeGroup"></path>
        </g>
    </g>
</svg>