<?xml version="1.0" encoding="utf-8"?>
<!-- Generator: Adobe Illustrator 17.0.0, SVG Export Plug-In . SVG Version: 6.00 Build 0)  -->
<!DOCTYPE svg PUBLIC "-//W3C//DTD SVG 1.1//EN" "http://www.w3.org/Graphics/SVG/1.1/DTD/svg11.dtd">
<svg version="1.1" id="Layer_1" xmlns="http://www.w3.org/2000/svg" xmlns:xlink="http://www.w3.org/1999/xlink" x="0px" y="0px"
	 width="60px" height="60px" viewBox="0 0 60 60" enable-background="new 0 0 60 60" xml:space="preserve">
<g>
	<path fill="#D8EAF9" d="M15.243,25.566L1.651,22.19v15.699l13.592-3.379V25.566z M44.875,34.51l13.592,3.378V22.189l-13.592,3.378
		V34.51z M37.632,58.632L34.234,45.12h-8.996L21.84,58.632H37.632z M21.84,1.444l3.398,13.512h8.996l3.398-13.512H21.84z"/>
	
		<ellipse fill="none" stroke="#3492D0" stroke-width="2.0703" stroke-linecap="round" stroke-linejoin="round" stroke-miterlimit="10" cx="29.938" cy="30.039" rx="28.966" ry="29.004"/>
	<ellipse fill-rule="evenodd" clip-rule="evenodd" fill="#FFFFFF" cx="29.938" cy="30.038" rx="15.062" ry="15.082"/>
	
		<ellipse fill="none" stroke="#3492D0" stroke-width="2.0703" stroke-linecap="round" stroke-linejoin="round" stroke-miterlimit="10" cx="29.938" cy="30.038" rx="15.062" ry="15.082"/>
	
		<path fill="none" stroke="#3492D0" stroke-width="2.0703" stroke-linecap="round" stroke-linejoin="round" stroke-miterlimit="10" d="
		M15.549,25.566L2.054,22.19 M2.054,37.889l13.495-3.379 M44.326,34.51l13.495,3.378 M57.821,22.189l-13.495,3.378 M25.472,44.446
		l-3.373,13.512 M37.777,57.958l-3.373-13.512 M34.404,15.631l3.373-13.512 M22.098,2.118l3.373,13.512"/>
</g>
<rect x="-0.062" y="-0.001" display="none" fill="none" width="60" height="60"/>
</svg>
