<svg class="logo" xmlns="http://www.w3.org/2000/svg" viewBox="0 0 666 83"><path d="M64.6 60c-1.7 0-3.2.6-4.2 1.5-8.5 7.3-20.6 10-31 5-9.7-4.7-15-15-15-25.5v-.2c0-10 5-20 14.2-25 10-5.4 22.3-3 30.8 4.2C66.2 25.7 75 14.8 68 9.2 55-1 36.2-3 21.6 4.5 8 11.5 0 26 0 41v.2c0 15.6 8.5 30.3 22.7 37 15.2 7 33.7 4.2 46-7 1.4-1 2.4-2.7 2.4-4.8.2-3.5-3-6.5-6.4-6.5zm52-25.4c-15.4-3.6-19-6.3-19-12.3V22c0-5.6 5.2-8.6 10.2-9.3 7.4-1 14.8 2 21 6 7.2 4.5 14.7-7.2 7-11-10-6.7-23.6-9.5-35.2-6-9.7 3-17 11.2-17 21.6v.2C83.7 38.2 93.4 43 110 47c14.6 3.5 18 6.6 18 12.2v.3c0 7-7.8 10-13.7 10-8.4 0-16.2-3-22.7-8.2-6.5-5.4-15 5.4-8 10.6 11 8.2 26.2 12.2 39.8 8.6 10.6-2.8 18.2-11 18.2-22.4V58c.2-13.2-8.4-19.3-25-23.4zm70 0c-15.5-3.6-19-6.3-19-12.5 0-5.7 5.3-8.8 10.3-9.4 7.3-1 14.7 2 20.8 6 7.3 4.4 14.8-7.3 7.2-11-10-6.7-23.7-9.5-35.3-6C161 4.7 154 13 154 23.2v.4C154 38 163.3 43 180 47c15 3.4 18 6.5 18 12v.4c0 7-7.6 9.8-13.6 10-8.4 0-16.2-3-22.7-8.2-6.5-5.4-15 5.4-8 10.5 11 8.3 26.2 12.4 39.8 8.8 10.6-2.8 18.2-11 18.2-22.4V58c.2-13-8.5-19-25.2-23.2zm64 4.5h-21.2c-8.4 0-8.5 13.5 0 13.5h21.3c8.5 0 8.4-13.4 0-13.4zm64-37.5h-52.4c-8.3 0-8.4 13 0 13h19.2v59.8c0 8.8 14 9 14 0v-60h19.3c8.2 0 8.2-12.8 0-12.8zm54.6 0H341c-4 0-7 3-7 7v65.8c0 8.8 14 9 14 0V53h17.5l19.2 24.6c2.3 3.2 6.6 5 10.2 2.7 4-2.5 3.6-7.5.8-10.8l-15.2-19c10.7-3.4 18-11 18-23.7v-.3c0-7-2.4-12.8-6.6-17-5-5-12.8-8-22.8-8zm15.4 26c0 8-6.4 13.2-16.3 13.2H348V14h20c10.4 0 16.6 4.8 16.6 13.2v.3zM422.4 1c-4 0-7 3-7 6.8v66.5c0 8.8 13.8 9 13.8 0V7.8c0-4-3-7-6.8-7zm88 59c-1.6 0-3.2.6-4.2 1.5-8.5 7.3-20.6 10-31 5-9.6-4.7-15-15-15-25.5v-.2c0-10 5-20 14.2-25 10-5.4 22.3-3 31 4.2 6.6 5.7 15.3-5.2 8.3-10.8C500.7-1 482-3 467.3 4.6c-13.5 7-21.5 21.3-21.5 36.4v.2c0 15.6 8.5 30.3 22.7 37 15.2 7 33.7 4.2 46.2-7 1.2-1 2.2-2.7 2.2-4.8 0-3.5-3-6.5-6.5-6.5zM568.2 36l24.6-23.8c3-2.7 3.6-7.4.3-10-3-2.7-7.6-1.8-10 1l-37.6 37.8V7.8c0-9-14-9-14 0v66.5c0 8.8 14 9 14 0V57.8l13-12.5 25.4 32.5c5.7 8 17.2-.6 11-8.5l-26.7-33zm72.8-1.6C625.5 31 622 28.3 622 22c0-5.7 5.3-8.8 10.3-9.4 7.4-1 14.8 2 21 6 7.2 4.4 14.7-7.3 7-11C650.4 1 636.7-2 625 1.7c-9.7 3-17 11-17 21.5v.2c0 14.7 9.7 19.6 26.4 23.6 14.7 3.5 17.8 6.6 17.8 12.2v.3c0 7-7.6 10-13.6 10-8.4 0-16-3-22.6-8.2-6.5-5.4-15 5.4-8 10.6 11 8.2 26.2 12.2 39.8 8.6 10.6-2.8 18.2-11 18.2-22.4V58c.3-13.2-8.4-19.3-25.2-23.4z"></path></svg>
