<?xml version="1.0" encoding="utf-8"?>
<!-- Generator: Adobe Illustrator 17.0.0, SVG Export Plug-In . SVG Version: 6.00 Build 0)  -->
<!DOCTYPE svg PUBLIC "-//W3C//DTD SVG 1.1//EN" "http://www.w3.org/Graphics/SVG/1.1/DTD/svg11.dtd">
<svg version="1.1" id="Layer_1" xmlns="http://www.w3.org/2000/svg" xmlns:xlink="http://www.w3.org/1999/xlink" x="0px" y="0px"
	 width="75px" height="75px" viewBox="40.046 40.092 75 75" enable-background="new 40.046 40.092 75 75" xml:space="preserve">
<g id="EDD_logo">
	<path fill="#1D2428" d="M104.062,51.075c-6.784-6.786-16.161-10.983-26.514-10.983c-10.356,0-19.731,4.197-26.517,10.983
		c-6.788,6.786-10.984,16.162-10.984,26.517s4.197,19.731,10.983,26.517c6.786,6.787,16.162,10.983,26.519,10.983
		c10.355,0,19.732-4.198,26.516-10.983c6.786-6.787,10.983-16.162,10.983-26.517S110.848,57.861,104.062,51.075z M102.824,102.87
		c-6.469,6.469-15.406,10.47-25.278,10.47s-18.811-4.001-25.28-10.47c-6.469-6.469-10.471-15.406-10.471-25.278
		s4.002-18.809,10.47-25.278c6.469-6.469,15.406-10.47,25.278-10.47s18.809,4.002,25.278,10.47
		c6.469,6.469,10.47,15.406,10.47,25.278C113.294,87.464,109.293,96.401,102.824,102.87z"/>
	<path fill="#1D2428" d="M109.805,77.279c-0.168-17.673-14.545-31.948-32.258-31.948c-17.714,0-32.092,14.276-32.258,31.95
		l14.792-14.792l4.961,4.961L54.218,78.275h46.66L90.053,67.45l4.961-4.961L109.805,77.279z M77.546,71.736L63.801,57.312h9.134
		v-7.109c0-1.845,2.075-3.358,4.611-3.358c2.536,0,4.611,1.511,4.611,3.358v7.109h9.134L77.546,71.736z"/>
	<path fill="#1D2428" d="M81.555,93.248c-0.733-0.476-1.661-0.905-2.781-1.276c-0.856-0.295-1.561-0.573-2.111-0.842
		c-0.545-0.266-0.948-0.561-1.206-0.872c-0.264-0.317-0.388-0.697-0.388-1.133c0-0.349,0.105-0.68,0.33-0.994
		c0.221-0.313,0.566-0.573,1.034-0.77c0.474-0.2,1.077-0.308,1.825-0.311c0.603,0.003,1.153,0.052,1.652,0.137
		c0.492,0.089,0.928,0.197,1.301,0.32c0.378,0.128,0.684,0.248,0.925,0.363l0.833-2.511c-0.503-0.253-1.134-0.462-1.9-0.633
		c-0.65-0.144-1.394-0.227-2.239-0.255v-2.598h-2.289v2.728c-0.367,0.059-0.719,0.139-1.052,0.236
		c-0.842,0.248-1.566,0.594-2.164,1.044c-0.594,0.448-1.053,0.973-1.369,1.575c-0.317,0.601-0.474,1.264-0.479,1.977
		c0.005,0.825,0.22,1.551,0.647,2.18s1.034,1.174,1.819,1.641c0.781,0.465,1.714,0.867,2.792,1.205
		c0.809,0.259,1.469,0.53,1.972,0.808c0.503,0.276,0.872,0.581,1.101,0.914c0.235,0.333,0.35,0.719,0.346,1.15
		c0,0.474-0.139,0.884-0.411,1.239c-0.269,0.35-0.665,0.625-1.188,0.82c-0.522,0.197-1.159,0.294-1.906,0.3
		c-0.608-0.005-1.197-0.056-1.772-0.155c-0.57-0.103-1.106-0.236-1.6-0.401c-0.499-0.166-0.934-0.346-1.313-0.547l-0.805,2.616
		c0.364,0.2,0.819,0.38,1.375,0.545c0.556,0.167,1.169,0.3,1.839,0.401c0.665,0.099,1.35,0.148,2.045,0.155l0.122-0.002v2.686h2.289
		v-2.902c0.29-0.056,0.567-0.123,0.83-0.201c0.919-0.276,1.681-0.653,2.284-1.136c0.608-0.478,1.058-1.033,1.356-1.658
		c0.297-0.625,0.445-1.286,0.445-1.99c0-0.825-0.177-1.555-0.54-2.183C82.838,94.283,82.291,93.728,81.555,93.248z"/>
</g>
</svg>
