<?xml version="1.0" encoding="utf-8"?>
<!-- Generator: Adobe Illustrator 17.0.0, SVG Export Plug-In . SVG Version: 6.00 Build 0)  -->
<!DOCTYPE svg PUBLIC "-//W3C//DTD SVG 1.1//EN" "http://www.w3.org/Graphics/SVG/1.1/DTD/svg11.dtd">
<svg version="1.1" id="Layer_1" xmlns="http://www.w3.org/2000/svg" xmlns:xlink="http://www.w3.org/1999/xlink" x="0px" y="0px"
	 width="65.771px" height="75px" viewBox="0 0 65.771 75" enable-background="new 0 0 65.771 75" xml:space="preserve">


	<style type="text/css">
	     <![CDATA[
		path {
		/*	 fill: red; */
		}

	]]>
	</style>

<path fill="#222" d="M30.953,39.309h-6.944v-5.05h-4.017c-0.887,0-1.606-0.719-1.606-1.606c0-0.887,0.719-1.606,1.606-1.606
	h4.017v-4.661h-4.017c-0.887,0-1.606-0.719-1.606-1.606s0.719-1.606,1.606-1.606h4.017v-5.05h7.062c7.12,0,11.29,2.634,11.726,8.986
	h22.974C65.367,9.855,54.637,0,32.013,0H0v75h24.009V55.786h9.062c20.143,0,31.921-8.914,32.678-25.463H42.751
	C42.143,36.217,38.095,39.309,30.953,39.309z"/>
</svg>
