<?xml version="1.0" encoding="UTF-8" standalone="no"?>
<!DOCTYPE svg PUBLIC "-//W3C//DTD SVG 1.1//EN" "http://www.w3.org/Graphics/SVG/1.1/DTD/svg11.dtd">
<svg width="100%" height="100%" viewBox="0 0 384 50" version="1.1" xmlns="http://www.w3.org/2000/svg" xmlns:xlink="http://www.w3.org/1999/xlink" xml:space="preserve" style="fill-rule:evenodd;clip-rule:evenodd;stroke-linejoin:round;stroke-miterlimit:1.41421;">
    <g>
        <path d="M20.233,16.325L20.438,16.325L25.453,30.604L15.32,30.604L20.233,16.325M26.323,49.13L45.259,49.13L45.259,46.981C41.574,46.52 40.448,46.264 38.094,39.713C35.484,32.702 32.414,24.463 29.496,16.274L24.993,3.378L21.615,4.299L7.593,39.918C5.187,46.111 4.266,46.469 0.121,46.981L0.121,49.13L15.73,49.13L15.73,46.981L14.041,46.776C10.817,46.418 10.714,45.701 11.738,42.17C12.659,39.15 13.529,36.131 14.399,34.135L26.682,34.135C27.705,36.694 29.036,40.276 29.957,42.579C31.134,45.548 30.776,46.315 28.217,46.673L26.426,46.929L26.426,49.13L26.323,49.13Z" style="fill:#025580;fill-rule:nonzero;"/>
        <path d="M65.116,25.026C65.116,22.518 64.757,22.057 62.966,21.75L60.817,21.392L60.817,19.396C64.297,19.243 70.285,18.526 73.56,18.117L73.56,41.658C73.56,44.524 73.816,45.292 76.068,45.292L78.217,45.292L78.217,47.441C74.072,48.055 69.619,49.028 65.679,50L65.116,49.539L65.116,45.087C63.785,46.059 62.659,46.929 61.124,47.851C58.974,49.13 57.234,49.898 55.034,49.898C49.251,49.898 46.078,46.059 46.078,40.737L46.078,25.026C46.078,22.518 45.72,22.057 43.928,21.75L42.086,21.443L42.086,19.447C45.259,19.294 50.94,18.577 54.573,18.168L54.573,39.048C54.573,43.142 56.62,44.729 59.23,44.729C61.175,44.729 63.12,43.808 65.116,42.068L65.116,25.026" style="fill:#025580;fill-rule:nonzero;"/>
        <path d="M90.653,38.895C90.653,44.217 93.263,45.189 94.542,45.189C95.617,45.189 96.845,44.831 98.125,44.063L99.097,46.111L93.161,49.13C92.086,49.642 91.011,49.846 90.551,49.846C85.228,49.846 82.209,47.544 82.209,41.351L82.209,22.211L77.756,22.211L77.245,21.341L79.445,18.68L82.158,18.68L82.158,14.432L89.425,8.956L90.602,9.519L90.602,18.628L97.46,18.628C98.33,19.396 98.227,21.597 96.999,22.16L90.653,22.16L90.653,38.895" style="fill:#025580;fill-rule:nonzero;"/>
        <path d="M113.069,22.262C115.423,19.959 118.903,17.81 122.536,17.81C128.831,17.81 132.311,21.75 132.311,28.301L132.311,42.323C132.311,46.213 132.669,46.469 136.508,46.929L136.508,49.13L120.233,49.13L120.233,46.981C123.56,46.52 123.867,46.264 123.867,42.375L123.867,29.069C123.867,24.77 121.462,22.979 118.596,22.979C116.702,22.979 114.655,23.695 113.12,25.23L113.12,42.323C113.12,46.213 113.427,46.469 116.344,46.929L116.344,49.13L99.66,49.13L99.66,46.981C104.266,46.52 104.624,46.264 104.624,42.375L104.624,8.905C104.624,4.811 104.471,4.708 100.121,4.452L100.121,2.456C103.191,1.996 108.514,0.972 113.12,0L113.12,22.262" style="fill:#025580;fill-rule:nonzero;"/>
        <path d="M147.204,31.883C147.204,24.36 150.121,20.727 152.987,20.727C157.439,20.727 160.049,26.049 160.049,35.312C160.049,45.343 156.927,47.032 154.42,47.032C149.967,47.032 147.204,40.583 147.204,31.883M154.01,17.861C146.231,17.861 137.634,23.695 137.634,34.647C137.634,42.068 142.956,49.898 153.652,49.898C161.636,49.898 169.619,44.473 169.619,33.163C169.568,25.128 163.632,17.861 154.01,17.861Z" style="fill:#025580;fill-rule:nonzero;"/>
        <path d="M184.409,42.323C184.409,46.213 184.768,46.469 190.09,46.929L190.09,49.13L171.257,49.13L171.257,46.981C175.607,46.52 175.965,46.264 175.965,42.375L175.965,27.021C175.965,22.774 175.812,22.723 171.359,22.262L171.359,20.42C175.402,19.857 179.855,18.936 184.409,17.912L184.409,24.77L184.563,24.77C185.433,23.388 186.508,21.699 187.787,20.317C189.118,18.936 190.653,17.861 192.342,17.861C194.952,17.861 196.999,19.806 196.999,22.108C196.999,24.411 195.464,26.407 193.724,27.021C192.802,27.38 192.137,27.124 191.574,26.714C190.397,25.793 189.22,25.281 188.094,25.281C186.917,25.281 185.535,25.793 184.358,28.71L184.358,42.323" style="fill:#025580;fill-rule:nonzero;"/>
        <path d="M202.475,26.97C202.475,22.723 202.321,22.671 197.92,22.211L197.92,20.368C202.014,19.806 206.569,18.884 210.97,17.861L210.97,42.272C210.97,46.213 211.329,46.52 215.73,46.981L215.73,49.13L197.715,49.13L197.715,46.981C202.168,46.52 202.475,46.264 202.475,42.272L202.475,26.97M211.175,6.909C211.175,9.724 208.974,11.924 206.16,11.924C203.447,11.924 201.144,9.724 201.144,6.909C201.144,4.094 203.498,1.894 206.16,1.894C208.923,1.894 211.175,4.094 211.175,6.909Z" style="fill:#025580;fill-rule:nonzero;"/>
        <path d="M243.263,18.628L243.877,19.601L227.961,46.162L233.437,46.162C238.197,46.162 240.039,45.292 242.393,41.351L243.417,39.611L245.924,40.532C244.645,44.012 243.724,46.571 242.7,49.13L217.726,49.13L217.06,48.106L233.488,21.597L228.626,21.597C224.072,21.597 222.843,22.671 221.257,26.049L220.182,28.147L217.675,27.226C218.493,24.616 219.568,20.215 220.233,17.195L221.769,17.195C222.127,18.219 222.843,18.628 225.505,18.628L243.263,18.628" style="fill:#025580;fill-rule:nonzero;"/>
        <path d="M253.857,29.324C254.266,24.616 256.825,21.034 259.384,21.034C262.045,21.034 264.246,24.667 264.246,27.482C264.246,28.813 263.99,29.12 262.966,29.12L253.857,29.324M271.052,41.095C268.289,42.989 266.139,43.756 263.58,43.756C258.309,43.756 253.601,40.174 253.601,32.395C260.459,32.139 269.722,31.474 270.643,31.269C272.025,31.013 272.229,30.86 272.229,28.25C272.229,22.876 267.419,17.81 261.431,17.81C252.987,17.81 245.515,25.23 245.515,35.21C245.515,42.989 250.888,49.846 260.254,49.846C262.659,49.846 268.084,48.465 272.025,42.426L271.052,41.095Z" style="fill:#025580;fill-rule:nonzero;"/>
        <path d="M274.43,44.473C274.43,41.351 276.733,39.048 279.65,39.048C282.669,39.048 284.972,41.351 284.972,44.473C284.972,47.697 282.669,49.898 279.65,49.898C276.733,49.898 274.43,47.697 274.43,44.473" style="fill:#025580;fill-rule:nonzero;"/>
        <path d="M329.701,49.591L325.505,49.591L297.971,15.814L297.818,15.814L297.818,30.143C297.818,37.41 298.227,41.249 298.483,43.398C298.841,45.803 300.581,46.725 305.187,46.878L305.187,49.13L287.992,49.13L287.992,46.981C291.472,46.827 293.11,45.855 293.468,43.501C293.775,41.351 294.184,37.513 294.184,30.246L294.184,16.428C294.184,12.027 294.184,10.287 292.905,8.649C291.574,6.96 289.834,6.551 287.019,6.295L287.019,4.145L299.046,4.145L325.863,35.312L326.016,35.312L326.016,23.081C326.016,15.814 325.607,12.027 325.351,9.826C324.993,7.369 323.253,6.551 318.698,6.295L318.698,4.145L335.842,4.145L335.842,6.346C332.362,6.499 330.725,7.421 330.366,9.877C330.059,12.078 329.701,15.865 329.701,23.132L329.701,49.591" style="fill:#025580;fill-rule:nonzero;"/>
        <path d="M340.397,29.324C340.807,24.616 343.365,21.034 345.924,21.034C348.534,21.034 350.786,24.667 350.786,27.482C350.786,28.813 350.53,29.12 349.455,29.12L340.397,29.324M357.593,41.095C354.778,42.989 352.68,43.756 350.07,43.756C344.798,43.756 340.141,40.174 340.141,32.395C346.999,32.139 356.211,31.474 357.183,31.269C358.565,31.013 358.77,30.86 358.77,28.25C358.77,22.876 354.01,17.81 347.971,17.81C339.527,17.81 332.055,25.23 332.055,35.21C332.055,42.989 337.48,49.846 346.794,49.846C349.251,49.846 354.624,48.465 358.565,42.426L357.593,41.095Z" style="fill:#025580;fill-rule:nonzero;"/>
        <path d="M372.229,38.895C372.229,44.217 374.839,45.189 376.119,45.189C377.193,45.189 378.371,44.831 379.701,44.063L380.673,46.111L374.737,49.13C373.662,49.642 372.639,49.846 372.127,49.846C366.805,49.846 363.785,47.544 363.785,41.351L363.785,22.211L359.384,22.211L358.923,21.341L361.175,18.68L363.836,18.68L363.836,14.432L371.155,8.956L372.332,9.519L372.332,18.628L379.189,18.628C380.111,19.396 379.957,21.597 378.729,22.16L372.383,22.16L372.383,38.895" style="fill:#025580;fill-rule:nonzero;"/>
        <path d="M380.469,16.121C379.855,16.121 379.292,15.967 378.78,15.66C378.217,15.353 377.808,14.944 377.501,14.381C377.193,13.818 377.04,13.255 377.04,12.59C377.04,11.975 377.193,11.412 377.501,10.85C377.808,10.287 378.217,9.877 378.78,9.57C379.292,9.263 379.906,9.11 380.52,9.11C381.134,9.11 381.697,9.263 382.26,9.57C382.823,9.877 383.232,10.287 383.539,10.85C383.846,11.412 384,11.975 384,12.59C384,13.204 383.846,13.818 383.539,14.381C383.232,14.944 382.772,15.353 382.26,15.66C381.646,15.967 381.083,16.121 380.469,16.121M380.469,15.609C380.981,15.609 381.492,15.507 381.902,15.251C382.362,14.995 382.721,14.637 382.976,14.176C383.232,13.715 383.386,13.204 383.386,12.692C383.386,12.18 383.232,11.668 382.976,11.208C382.721,10.747 382.362,10.389 381.902,10.133C381.441,9.877 380.929,9.724 380.418,9.724C379.906,9.724 379.394,9.877 378.985,10.133C378.524,10.389 378.166,10.747 377.91,11.208C377.654,11.668 377.501,12.18 377.501,12.692C377.501,13.204 377.654,13.715 377.91,14.176C378.217,14.637 378.575,14.995 378.985,15.251C379.445,15.455 379.957,15.609 380.469,15.609ZM379.803,14.739L379.138,14.739L379.138,10.542L380.469,10.542C380.776,10.542 381.032,10.594 381.236,10.696C381.39,10.798 381.544,10.952 381.646,11.105C381.748,11.31 381.799,11.464 381.799,11.668C381.799,11.924 381.748,12.129 381.595,12.385C381.441,12.59 381.236,12.794 380.981,12.897C381.134,12.999 381.288,13.204 381.441,13.511L382.106,14.739L381.339,14.739L380.776,13.715L380.622,13.46C380.469,13.204 380.366,13.05 380.264,13.05L379.752,13.05L379.752,14.739L379.803,14.739ZM379.803,12.487L380.264,12.487C380.571,12.487 380.776,12.385 380.878,12.231C380.981,12.078 381.032,11.873 381.032,11.668C381.032,11.566 381.032,11.464 380.981,11.361C380.929,11.259 380.878,11.208 380.776,11.105C380.673,11.054 380.52,11.003 380.264,11.003L379.752,11.003L379.752,12.487L379.803,12.487Z" style="fill:#025580;fill-rule:nonzero;"/>
    </g>
</svg>
