<?xml version="1.0" encoding="utf-8"?>
<!-- Generator: Adobe Illustrator 17.0.0, SVG Export Plug-In . SVG Version: 6.00 Build 0)  -->
<!DOCTYPE svg PUBLIC "-//W3C//DTD SVG 1.1//EN" "http://www.w3.org/Graphics/SVG/1.1/DTD/svg11.dtd">
<svg version="1.1" id="Layer_1" xmlns="http://www.w3.org/2000/svg" xmlns:xlink="http://www.w3.org/1999/xlink" x="0px" y="0px"
	 width="260.184px" height="35px" viewBox="0 0 260.184 35" enable-background="new 0 0 260.184 35" xml:space="preserve">
<g>
	<g>
		<path d="M0,34.252v-4.542h3.58V7.801H0V3.259h14.321c6.572,0,10.58,3.046,10.58,8.336c0,3.473-2.03,5.611-4.595,6.626
			c3.687,1.015,6.305,3.634,6.305,7.214c0,5.664-4.382,8.817-11.542,8.817C15.069,34.252,0,34.252,0,34.252z M8.496,7.801v8.443
			h5.344c4.007,0,6.091-1.496,6.091-4.222c0-2.779-2.137-4.222-6.145-4.222L8.496,7.801L8.496,7.801z M8.496,29.709h6.092
			c4.702,0,7.054-1.55,7.054-4.542c0-2.938-2.512-4.542-7.427-4.542H8.496V29.709z"/>
		<path d="M52.581,18.114c-0.534-1.817-1.87-2.885-3.634-2.885c-4.115,0-8.015,3.046-8.015,8.603v5.878h7.909v4.542H31.207v-4.542
			h5.023V16.03h-3.954v-4.542h8.603v3.847c1.443-2.672,4.382-4.595,8.283-4.595c4.382,0,7.107,2.512,7.908,6.091L52.581,18.114z"/>
		<path d="M76.628,21v-1.283c0-3.206-2.565-4.542-5.344-4.542c-2.618,0-4.863,1.069-6.68,2.725l-3.099-3.366
			c2.137-1.977,5.183-3.794,9.779-3.794c5.717,0,10.153,3.046,10.153,8.817v10.153h3.313v4.542h-8.122v-2.405
			C75.399,33.825,72.086,35,68.826,35c-4.702,0-8.764-2.404-8.764-7.16c0-5.611,5.504-7.748,10.527-7.748
			C73.048,20.092,75.078,20.573,76.628,21z M76.628,25.06c-1.496-0.534-3.741-0.962-5.825-0.962c-2.993,0-5.878,0.962-5.878,3.687
			c0,2.03,1.817,2.993,4.328,2.993c3.473,0,7.374-1.871,7.374-5.076V25.06z"/>
		<path d="M113.285,29.709v4.542H90.309v-4.542h9.511V16.03h-7.267v-4.542h11.969v18.222H113.285z M104.522,6.946h-5.29V0h5.29
			L104.522,6.946L104.522,6.946z"/>
		<path d="M118.951,29.709h3.473V16.03h-3.26v-4.542h7.909v2.939c1.389-2.244,4.275-3.687,7.801-3.687
			c5.076,0,8.71,3.206,8.71,8.389v10.58h3.473v4.542h-11.809v-4.542h3.634v-9.297c0-3.954-2.405-5.076-4.595-5.076
			c-3.58,0-7.16,2.672-7.16,6.786v7.588h3.634v4.542H118.95L118.951,29.709L118.951,29.709z"/>
		<path d="M153.524,16.03h-5.931v-4.542h5.931V3.259h4.702v8.229h11.061v4.542h-11.061v9.565c0,3.527,2.458,4.97,5.29,4.97
			c2.672,0,4.916-1.496,6.573-3.153l3.153,3.259c-2.084,2.244-5.29,4.328-9.725,4.328c-5.717,0-9.993-3.153-9.993-9.244
			L153.524,16.03L153.524,16.03z"/>
		<path d="M198.891,18.114c-0.534-1.817-1.87-2.885-3.634-2.885c-4.115,0-8.015,3.046-8.015,8.603v5.878h7.909v4.542h-17.634v-4.542
			h5.023V16.03h-3.954v-4.542h8.603v3.847c1.443-2.672,4.382-4.595,8.283-4.595c4.382,0,7.107,2.512,7.908,6.091L198.891,18.114z"/>
		<path d="M230.526,30.778c-2.351,2.458-6.519,4.221-11.168,4.221c-7.641,0-12.985-5.13-12.985-12.129s5.183-12.129,12.397-12.129
			c7.16,0,12.183,5.504,12.183,12.985v0.802h-19.61c0.801,3.794,3.954,6.091,8.068,6.091c3.42,0,6.359-1.389,7.962-3.153
			L230.526,30.778z M211.556,20.519h14c-0.695-3.26-3.58-5.451-6.786-5.451C215.136,15.068,212.358,17.313,211.556,20.519z"/>
		<path d="M259.756,30.778c-2.352,2.458-6.519,4.221-11.168,4.221c-7.641,0-12.985-5.13-12.985-12.129S240.787,10.741,248,10.741
			c7.161,0,12.183,5.504,12.183,12.985v0.802h-19.611c0.802,3.794,3.954,6.091,8.069,6.091c3.42,0,6.358-1.389,7.962-3.153
			L259.756,30.778z M240.786,20.519h14c-0.695-3.26-3.58-5.451-6.786-5.451C244.367,15.068,241.588,17.313,240.786,20.519z"/>
	</g>
</g>
</svg>
