<?xml version="1.0" encoding="utf-8"?>
<!-- Generator: Adobe Illustrator 17.0.0, SVG Export Plug-In . SVG Version: 6.00 Build 0)  -->
<!DOCTYPE svg PUBLIC "-//W3C//DTD SVG 1.1//EN" "http://www.w3.org/Graphics/SVG/1.1/DTD/svg11.dtd">
<svg version="1.1" id="Layer_1" xmlns="http://www.w3.org/2000/svg" xmlns:xlink="http://www.w3.org/1999/xlink" x="0px" y="0px"
	 width="197.126px" height="50px" viewBox="0 0 197.126 50" enable-background="new 0 0 197.126 50" xml:space="preserve">
<path fill="#003087" d="M36.077,3.77C33.762,1.131,29.577,0,24.223,0H8.684C7.589,0,6.658,0.797,6.487,1.877L0.017,42.91
	c-0.129,0.809,0.498,1.542,1.318,1.542h9.593l2.409-15.281l-0.075,0.479c0.171-1.08,1.095-1.877,2.189-1.877h4.559
	c8.955,0,15.967-3.637,18.016-14.16c0.061-0.311,0.113-0.614,0.159-0.91c-0.259-0.137-0.259-0.137,0,0
	C38.795,8.814,38.181,6.167,36.077,3.77"/>
<path fill="#009CDE" d="M152.278,13.25h-10.727c-0.734,0-1.358,0.534-1.473,1.259l-4.337,27.506
	c-0.086,0.542,0.335,1.033,0.882,1.033h5.505c0.513,0,0.95-0.373,1.03-0.88l1.231-7.799c0.113-0.725,0.739-1.259,1.472-1.259h3.394
	c7.066,0,11.145-3.419,12.21-10.197c0.48-2.962,0.019-5.292-1.368-6.922C158.571,14.198,155.867,13.25,152.278,13.25
	 M153.516,23.296c-0.586,3.85-3.527,3.85-6.372,3.85h-1.618l1.135-7.189c0.068-0.434,0.443-0.754,0.882-0.754h0.743
	c1.936,0,3.765,0,4.708,1.102C153.559,20.966,153.729,21.945,153.516,23.296"/>
<path fill="#003087" d="M75.768,13.25H65.041c-0.734,0-1.358,0.534-1.473,1.259l-4.337,27.506c-0.086,0.542,0.333,1.033,0.882,1.033
	h5.123c0.733,0,1.357-0.534,1.472-1.257l1.171-7.421c0.113-0.725,0.739-1.259,1.472-1.259h3.394c7.066,0,11.145-3.419,12.21-10.197
	c0.48-2.962,0.019-5.292-1.368-6.922C82.061,14.198,79.357,13.25,75.768,13.25 M77.005,23.296c-0.586,3.85-3.527,3.85-6.372,3.85
	h-1.618l1.135-7.189c0.068-0.434,0.443-0.754,0.882-0.754h0.743c1.936,0,3.765,0,4.708,1.102
	C77.048,20.966,77.218,21.945,77.005,23.296"/>
<path fill="#003087" d="M107.829,23.173h-5.137c-0.44,0-0.815,0.319-0.884,0.755l-0.225,1.436l-0.358-0.52
	c-1.113-1.614-3.593-2.155-6.069-2.155c-5.675,0-10.522,4.301-11.465,10.333c-0.491,3.01,0.206,5.885,1.913,7.892
	c1.567,1.844,3.803,2.611,6.469,2.611c4.575,0,7.112-2.938,7.112-2.938l-0.23,1.427c-0.086,0.542,0.333,1.033,0.884,1.033h4.625
	c0.734,0,1.358-0.532,1.473-1.257l2.777-17.584C108.799,23.664,108.379,23.173,107.829,23.173 M100.671,33.171
	c-0.497,2.935-2.826,4.906-5.798,4.906c-1.49,0-2.683-0.48-3.449-1.387c-0.759-0.899-1.046-2.181-0.805-3.607
	c0.462-2.91,2.83-4.943,5.756-4.943c1.459,0,2.643,0.484,3.424,1.4C100.586,30.462,100.896,31.751,100.671,33.171"/>
<path fill="#009CDE" d="M184.34,23.173h-5.137c-0.44,0-0.815,0.319-0.884,0.755l-0.225,1.436l-0.36-0.52
	c-1.112-1.614-3.592-2.155-6.067-2.155c-5.675,0-10.522,4.301-11.465,10.333c-0.491,3.01,0.206,5.885,1.913,7.892
	c1.567,1.844,3.803,2.611,6.469,2.611c4.575,0,7.112-2.938,7.112-2.938l-0.23,1.427c-0.086,0.542,0.333,1.033,0.884,1.033h4.625
	c0.734,0,1.358-0.532,1.473-1.257l2.777-17.584C185.309,23.664,184.889,23.173,184.34,23.173 M177.181,33.171
	c-0.497,2.935-2.826,4.906-5.798,4.906c-1.49,0-2.683-0.48-3.449-1.387c-0.761-0.899-1.046-2.181-0.805-3.607
	c0.462-2.91,2.83-4.943,5.756-4.943c1.459,0,2.643,0.484,3.424,1.4C177.097,30.462,177.407,31.751,177.181,33.171"/>
<path fill="#003087" d="M135.188,23.173h-5.163c-0.494,0-0.956,0.245-1.232,0.654l-7.123,10.489l-3.018-10.08
	c-0.189-0.631-0.77-1.064-1.429-1.064h-5.074c-0.613,0-1.044,0.603-0.846,1.183l5.684,16.688l-5.347,7.545
	c-0.419,0.592,0.004,1.411,0.73,1.411h5.157c0.488,0,0.946-0.239,1.225-0.64l17.169-24.781
	C136.333,23.983,135.91,23.173,135.188,23.173"/>
<path fill="#009CDE" d="M190.393,14.006l-4.402,28.01c-0.086,0.542,0.333,1.033,0.882,1.033h4.429c0.733,0,1.358-0.534,1.472-1.259
	l4.341-27.506c0.086-0.542-0.333-1.033-0.884-1.033h-4.954C190.836,13.251,190.461,13.57,190.393,14.006"/>
<path fill="#003087" d="M36.077,3.77C33.762,1.131,29.577,0,24.223,0H8.684C7.589,0,6.658,0.797,6.487,1.877L0.017,42.91
	c-0.129,0.809,0.498,1.542,1.318,1.542h9.593l2.409-15.281l-0.075,0.479c0.171-1.08,1.095-1.877,2.189-1.877h4.559
	c8.955,0,15.967-3.637,18.016-14.16c0.061-0.311,0.113-0.614,0.159-0.91c-0.259-0.137-0.259-0.137,0,0
	C38.795,8.814,38.181,6.167,36.077,3.77"/>
<path fill="#003087" d="M15.926,12.754c0.102-0.65,0.52-1.183,1.082-1.452c0.256-0.122,0.541-0.189,0.84-0.189h12.182
	c1.443,0,2.788,0.094,4.018,0.292c0.353,0.057,0.694,0.122,1.026,0.196c0.332,0.073,0.654,0.156,0.967,0.248
	c0.156,0.046,0.31,0.093,0.461,0.142c0.604,0.202,1.167,0.437,1.685,0.712c0.61-3.891-0.004-6.536-2.108-8.933
	C33.76,1.131,29.577,0,24.223,0H8.683C7.589,0,6.658,0.797,6.487,1.877l-6.47,41.032c-0.129,0.81,0.498,1.542,1.317,1.542h9.594
	l2.409-15.281L15.926,12.754z"/>
<path fill="#009CDE" d="M38.185,12.703L38.185,12.703c-0.047,0.297-0.098,0.599-0.159,0.91c-2.048,10.521-9.06,14.16-18.016,14.16
	h-4.56c-1.094,0-2.018,0.797-2.188,1.877l-2.335,14.801l-0.662,4.199C10.153,49.358,10.701,50,11.417,50h8.087
	c0.957,0,1.772-0.697,1.921-1.642l0.079-0.412l1.524-9.659l0.098-0.534c0.149-0.945,0.964-1.642,1.921-1.642h1.21
	c7.834,0,13.967-3.182,15.76-12.387c0.748-3.846,0.361-7.058-1.618-9.313C39.799,13.728,39.053,13.164,38.185,12.703"/>
<path fill="#012169" d="M36.041,11.849c-0.313-0.091-0.635-0.174-0.967-0.248s-0.675-0.138-1.026-0.195
	c-1.231-0.199-2.575-0.293-4.019-0.293H17.848c-0.3,0-0.585,0.068-0.84,0.191c-0.563,0.27-0.979,0.801-1.082,1.452l-2.589,16.415
	l-0.075,0.479c0.17-1.08,1.094-1.877,2.188-1.877h4.56c8.955,0,15.967-3.637,18.016-14.16c0.061-0.311,0.112-0.613,0.159-0.91
	c-0.519-0.274-1.08-0.51-1.685-0.711C36.351,11.943,36.197,11.894,36.041,11.849"/>
</svg>
