<?xml version="1.0" encoding="UTF-8" standalone="no"?>
<svg width="51px" height="60px" viewBox="0 0 51 60" version="1.1" xmlns="http://www.w3.org/2000/svg" xmlns:xlink="http://www.w3.org/1999/xlink" xmlns:sketch="http://www.bohemiancoding.com/sketch/ns">
    <!-- Generator: Sketch 3.2.2 (9983) - http://www.bohemiancoding.com/sketch -->
    <title>129 - Money Power (Webby)</title>
    <desc>Created with Sketch.</desc>
    <defs></defs>
    <g id="Page-1" stroke="none" stroke-width="1" fill="none" fill-rule="evenodd" sketch:type="MSPage">
        <g id="129---Money-Power-(Webby)" sketch:type="MSLayerGroup" transform="translate(2.000000, 1.000000)">
            <path d="M17.302,0.761 L0.331,17.732 L9.523,26.923 C10.145,26.356 10.964,26 11.868,26 L21.868,26 C23.793,26 25.368,27.575 25.368,29.5 C25.368,31.425 23.793,33 21.868,33 L15.599,33 L30.029,47.43 L47,30.46 L17.302,0.761 L17.302,0.761 Z" id="Fill-27" fill="#FFFFFF" sketch:type="MSShapeGroup"></path>
            <path d="M17.302,0.761 L0.331,17.732 L9.523,26.923 C10.145,26.356 10.964,26 11.868,26 L21.868,26 C23.793,26 25.368,27.575 25.368,29.5 C25.368,31.425 23.793,33 21.868,33 L15.599,33 L30.029,47.43 L47,30.46 L17.302,0.761 L17.302,0.761 Z" id="Stroke-28" stroke="#0096E6" stroke-width="2" stroke-linecap="round" sketch:type="MSShapeGroup"></path>
            <path d="M19.368,47 L43.368,47 L43.368,58 L19.368,58 L19.368,47 Z" id="Fill-102" fill="#FFFFFF" sketch:type="MSShapeGroup"></path>
            <path d="M19.368,47 L43.368,47 L43.368,58 L19.368,58 L19.368,47 Z" id="Stroke-103" stroke="#0096E6" stroke-width="2" stroke-linecap="round" sketch:type="MSShapeGroup"></path>
            <path d="M35.368,58 L19.368,58 L19.368,47 L28.793,47 C32.424,47 35.368,49.944 35.368,53.575 L35.368,58 L35.368,58 Z" id="Fill-104" fill="#FFFFFF" sketch:type="MSShapeGroup"></path>
            <path d="M35.368,58 L19.368,58 L19.368,47 L28.793,47 C32.424,47 35.368,49.944 35.368,53.575 L35.368,58 L35.368,58 Z" id="Stroke-105" stroke="#0096E6" stroke-width="2" stroke-linecap="round" sketch:type="MSShapeGroup"></path>
            <path d="M31.368,52.5 C31.368,53.881 30.248,55 28.868,55 C27.487,55 26.368,53.881 26.368,52.5 C26.368,51.119 27.487,50 28.868,50 C30.248,50 31.368,51.119 31.368,52.5 L31.368,52.5 Z" id="Fill-106" fill="#D0E8F9" sketch:type="MSShapeGroup"></path>
            <path d="M31.368,52.5 C31.368,53.881 30.248,55 28.868,55 C27.487,55 26.368,53.881 26.368,52.5 C26.368,51.119 27.487,50 28.868,50 C30.248,50 31.368,51.119 31.368,52.5 L31.368,52.5 Z" id="Stroke-107" stroke="#0096E6" stroke-width="2" stroke-linecap="round" sketch:type="MSShapeGroup"></path>
            <path d="M27.272,10.702 C28.505,10.161 29.368,8.933 29.368,7.5 C29.368,5.567 27.801,4 25.868,4 C24.435,4 23.207,4.863 22.666,6.096 L27.272,10.702 L27.272,10.702 Z" id="Fill-108" fill="#D0E8F9" sketch:type="MSShapeGroup"></path>
            <path d="M27.272,10.702 C28.505,10.161 29.368,8.933 29.368,7.5 C29.368,5.567 27.801,4 25.868,4 C24.435,4 23.207,4.863 22.666,6.096 L27.272,10.702 L27.272,10.702 Z" id="Stroke-109" stroke="#0096E6" stroke-width="2" stroke-linecap="round" sketch:type="MSShapeGroup"></path>
            <path d="M32.272,15.702 C33.505,15.161 34.368,13.933 34.368,12.5 C34.368,10.567 32.801,9 30.868,9 C29.435,9 28.207,9.863 27.666,11.096 L32.272,15.702 L32.272,15.702 Z" id="Fill-110" fill="#D0E8F9" sketch:type="MSShapeGroup"></path>
            <path d="M32.272,15.702 C33.505,15.161 34.368,13.933 34.368,12.5 C34.368,10.567 32.801,9 30.868,9 C29.435,9 28.207,9.863 27.666,11.096 L32.272,15.702 L32.272,15.702 Z" id="Stroke-111" stroke="#0096E6" stroke-width="2" stroke-linecap="round" sketch:type="MSShapeGroup"></path>
            <path d="M37.272,20.702 C38.505,20.161 39.368,18.933 39.368,17.5 C39.368,15.567 37.801,14 35.868,14 C34.435,14 33.207,14.863 32.666,16.096 L37.272,20.702 L37.272,20.702 Z" id="Fill-112" fill="#D0E8F9" sketch:type="MSShapeGroup"></path>
            <path d="M37.272,20.702 C38.505,20.161 39.368,18.933 39.368,17.5 C39.368,15.567 37.801,14 35.868,14 C34.435,14 33.207,14.863 32.666,16.096 L37.272,20.702 L37.272,20.702 Z" id="Stroke-113" stroke="#0096E6" stroke-width="2" stroke-linecap="round" sketch:type="MSShapeGroup"></path>
            <path d="M42.272,25.702 C43.505,25.161 44.368,23.933 44.368,22.5 C44.368,20.567 42.801,19 40.868,19 C39.435,19 38.207,19.863 37.666,21.096 L42.272,25.702 L42.272,25.702 Z" id="Fill-114" fill="#D0E8F9" sketch:type="MSShapeGroup"></path>
            <path d="M42.272,25.702 C43.505,25.161 44.368,23.933 44.368,22.5 C44.368,20.567 42.801,19 40.868,19 C39.435,19 38.207,19.863 37.666,21.096 L42.272,25.702 L42.272,25.702 Z" id="Stroke-115" stroke="#0096E6" stroke-width="2" stroke-linecap="round" sketch:type="MSShapeGroup"></path>
            <path d="M21.868,33 L11.868,33 C9.943,33 8.368,31.425 8.368,29.5 C8.368,27.575 9.943,26 11.868,26 L21.868,26 C23.793,26 25.368,27.575 25.368,29.5 C25.368,31.425 23.793,33 21.868,33 L21.868,33 Z" id="Fill-116" fill="#D0E8F9" sketch:type="MSShapeGroup"></path>
            <path d="M21.868,33 L11.868,33 C9.943,33 8.368,31.425 8.368,29.5 C8.368,27.575 9.943,26 11.868,26 L21.868,26 C23.793,26 25.368,27.575 25.368,29.5 C25.368,31.425 23.793,33 21.868,33 L21.868,33 Z" id="Stroke-117" stroke="#0096E6" stroke-width="2" stroke-linecap="round" sketch:type="MSShapeGroup"></path>
            <path d="M22.958,12.075 L20.13,9.247 C18.568,10.809 16.035,10.809 14.473,9.247 L8.816,14.903 C10.378,16.466 10.378,18.998 8.816,20.56 L11.645,23.389 M35.686,24.803 L38.515,27.631 C36.953,29.193 36.953,31.726 38.515,33.288 L32.858,38.945 C31.296,37.383 28.763,37.383 27.201,38.945 L24.373,36.117" id="Stroke-118" stroke="#0096E6" stroke-width="2" stroke-linecap="round" sketch:type="MSShapeGroup"></path>
            <path d="M42.05,31.167 C41.66,31.557 41.027,31.557 40.636,31.167 C40.246,30.776 40.246,30.143 40.636,29.753 C41.027,29.362 41.66,29.362 42.05,29.753 C42.441,30.143 42.441,30.776 42.05,31.167" id="Fill-119" fill="#0096E6" sketch:type="MSShapeGroup"></path>
            <path d="M30.737,42.481 C30.346,42.871 29.713,42.871 29.322,42.481 C28.932,42.09 28.932,41.457 29.322,41.066 C29.713,40.676 30.346,40.676 30.737,41.066 C31.127,41.457 31.127,42.09 30.737,42.481" id="Fill-120" fill="#0096E6" sketch:type="MSShapeGroup"></path>
            <path d="M18.009,7.125 C17.618,7.516 16.985,7.516 16.594,7.125 C16.204,6.735 16.204,6.102 16.594,5.711 C16.985,5.32 17.618,5.32 18.009,5.711 C18.399,6.102 18.399,6.735 18.009,7.125" id="Fill-121" fill="#0096E6" sketch:type="MSShapeGroup"></path>
            <path d="M6.695,18.439 C6.304,18.829 5.671,18.829 5.281,18.439 C4.89,18.048 4.89,17.415 5.281,17.025 C5.671,16.634 6.304,16.634 6.695,17.025 C7.085,17.415 7.085,18.048 6.695,18.439" id="Fill-122" fill="#0096E6" sketch:type="MSShapeGroup"></path>
            <path d="M29.599,47 L15.599,33 L11.868,33 C11.29,33.282 9.713,32.262 10.318,32.781 L21.13,43.552 C21.204,43.625 21.29,43.679 21.368,43.745 L21.368,47 L29.599,47 L29.599,47 Z" id="Fill-123" fill="#FFFFFF" sketch:type="MSShapeGroup"></path>
            <path d="M29.599,47 L15.599,33 L11.868,33 C11.29,33.282 9.713,32.262 10.318,32.781 L21.13,43.552 C21.204,43.625 21.29,43.679 21.368,43.745 L21.368,47 L29.599,47 L29.599,47 Z" id="Stroke-124" stroke="#0096E6" stroke-width="2" stroke-linecap="round" sketch:type="MSShapeGroup"></path>
            <path d="M30.46,47 L41.368,47 L41.368,42.49 C43.186,41.121 44.368,38.951 44.368,36.5 C44.368,35.492 44.162,34.535 43.801,33.659 L30.46,47 L30.46,47 Z" id="Fill-125" fill="#FFFFFF" sketch:type="MSShapeGroup"></path>
            <path d="M30.46,47 L41.368,47 L41.368,42.49 C43.186,41.121 44.368,38.951 44.368,36.5 C44.368,35.492 44.162,34.535 43.801,33.659 L30.46,47 L30.46,47 Z" id="Stroke-126" stroke="#0096E6" stroke-width="2" stroke-linecap="round" sketch:type="MSShapeGroup"></path>
            <path d="M30.029,17.732 C26.515,14.217 20.816,14.217 17.302,17.732 C15.057,19.977 14.252,23.111 14.876,26 L21.868,26 C23.793,26 25.368,27.575 25.368,29.5 C25.368,31.313 23.966,32.798 22.195,32.967 C24.96,33.423 27.897,32.593 30.029,30.46 C33.544,26.945 33.544,21.247 30.029,17.732 L30.029,17.732 Z" id="Stroke-127" stroke="#0096E6" stroke-width="2" stroke-linecap="round" sketch:type="MSShapeGroup"></path>
        </g>
    </g>
</svg>