<?xml version="1.0" encoding="utf-8"?>
<!-- Generator: Adobe Illustrator 17.0.0, SVG Export Plug-In . SVG Version: 6.00 Build 0)  -->
<!DOCTYPE svg PUBLIC "-//W3C//DTD SVG 1.1//EN" "http://www.w3.org/Graphics/SVG/1.1/DTD/svg11.dtd">
<svg version="1.1" id="Layer_1" xmlns="http://www.w3.org/2000/svg" xmlns:xlink="http://www.w3.org/1999/xlink" x="0px" y="0px"
	 width="120.556px" height="50px" viewBox="0 297.533 120.556 50" enable-background="new 0 297.533 120.556 50"
	 xml:space="preserve">
<g id="Stripe_Logo">
	<path fill="#231F20" d="M12.598,320.024c-2.598-0.961-4.021-1.708-4.021-2.883c0-0.996,0.819-1.566,2.278-1.566
		c2.669,0,5.409,1.032,7.295,1.957l1.068-6.584c-1.495-0.712-4.555-1.886-8.79-1.886c-2.989,0-5.481,0.783-7.26,2.242
		c-1.851,1.53-2.812,3.737-2.812,6.406c0,4.84,2.954,6.904,7.758,8.648c3.096,1.103,4.128,1.886,4.128,3.096
		c0,1.174-0.997,1.851-2.812,1.851c-2.242,0-5.943-1.103-8.363-2.527L0,335.433c2.064,1.174,5.907,2.384,9.893,2.384
		c3.167,0,5.801-0.747,7.58-2.171c1.993-1.566,3.025-3.879,3.025-6.868C20.498,323.832,17.473,321.768,12.598,320.024
		 M37.878,316.145l1.068-6.548H33.31v-7.949l-7.578,1.247l-1.094,6.702l-2.665,0.432l-0.998,6.116h3.652v12.847
		c0,3.345,0.854,5.658,2.598,7.082c1.459,1.174,3.559,1.744,6.512,1.744c2.278,0,3.665-0.391,4.626-0.641v-6.94
		c-0.534,0.142-1.744,0.391-2.562,0.391c-1.744,0-2.491-0.89-2.491-2.918v-11.566L37.878,316.145L37.878,316.145z M54.804,309.215
		c-2.491,0-4.484,1.307-5.267,3.656l-0.534-3.274h-7.722v27.687h8.825v-17.972c1.103-1.352,2.669-1.841,4.804-1.841
		c0.463,0,0.961,0,1.566,0.107v-8.149C55.872,309.286,55.338,309.215,54.804,309.215 M63.061,306.857c2.562,0,4.626-2.1,4.626-4.662
		c0-2.598-2.064-4.662-4.626-4.662c-2.598,0-4.662,2.064-4.662,4.662C58.399,304.757,60.462,306.857,63.061,306.857 M58.612,309.597
		h8.861v27.687h-8.861C58.612,337.284,58.612,309.597,58.612,309.597z M92.584,312.088c-1.566-2.028-3.737-3.025-6.512-3.025
		c-2.562,0-4.804,1.068-6.904,3.31l-0.462-2.776h-7.758v37.936l8.826-1.459v-8.897c1.352,0.427,2.74,0.641,3.986,0.641
		c2.207,0,5.409-0.57,7.9-3.274c2.384-2.598,3.594-6.619,3.594-11.922C95.253,317.925,94.363,314.366,92.584,312.088 M85.253,329.17
		c-0.712,1.352-1.815,2.064-3.096,2.064c-0.89,0-1.673-0.178-2.384-0.534v-13.167c1.495-1.566,2.847-1.744,3.345-1.744
		c2.242,0,3.345,2.42,3.345,7.153C86.463,325.647,86.072,327.747,85.253,329.17 M120.556,323.192c0-4.413-0.961-7.9-2.847-10.356
		c-1.922-2.491-4.804-3.772-8.47-3.772c-7.509,0-12.171,5.552-12.171,14.449c0,4.982,1.245,8.719,3.701,11.103
		c2.207,2.135,5.374,3.203,9.466,3.203c3.772,0,7.26-0.89,9.466-2.349l-0.961-6.05c-2.171,1.174-4.697,1.815-7.545,1.815
		c-1.708,0-2.883-0.356-3.737-1.103c-0.925-0.783-1.459-2.064-1.637-3.879h14.626C120.484,325.825,120.556,323.832,120.556,323.192
		 M105.751,320.843c0.249-3.95,1.317-5.801,3.345-5.801c1.993,0,3.025,1.886,3.167,5.801H105.751z"/>
</g>
</svg>
