<svg xmlns:sketch="http://www.bohemiancoding.com/sketch/ns" xmlns:dc="http://purl.org/dc/elements/1.1/" xmlns:cc="http://creativecommons.org/ns#" xmlns:rdf="http://www.w3.org/1999/02/22-rdf-syntax-ns#" xmlns:svg="http://www.w3.org/2000/svg" xmlns="http://www.w3.org/2000/svg" xmlns:sodipodi="http://sodipodi.sourceforge.net/DTD/sodipodi-0.dtd" xmlns:inkscape="http://www.inkscape.org/namespaces/inkscape"><symbol viewBox="0 0 38 60" id="icon-demo"><title>71 - Generic Mouse (Webby)</title><desc>Created with Sketch.</desc> <!-- Generator: Sketch 3.2.2 (9983) - http://www.bohemiancoding.com/sketch -->    <g id="demo-Page-1" stroke="none" stroke-width="1" fill="none" fill-rule="evenodd" sketch:type="MSPage"> <g id="demo-71---Generic-Mouse-(Webby)" sketch:type="MSLayerGroup" transform="translate(1.000000, 0.000000)"> <path d="M2.916,31.656 C3.753,28.666 4.086,25.567 3.981,22.463 C3.817,17.602 2.261,12.091 3.253,8.23 C3.695,5.137 6.139,2.715 9.236,2.302 L9.236,2.302 C16.266,0.529 22.79,0.6 28.764,2.302 C31.861,2.715 34.305,5.137 34.747,8.23 C36.231,14.006 36.431,20.038 35.331,25.9 L34.658,29.488 C35.516,31.966 36,34.665 36,37.5 C36,49.374 27.717,59 17.5,59 C7.283,59 0,52.874 0,41 C0,37.776 2.113,34.523 2.916,31.656 L2.916,31.656 Z" id="demo-Fill-1090" fill="#FFFFFF" sketch:type="MSShapeGroup"/> <path d="M2.916,31.656 C3.753,28.666 4.086,25.567 3.981,22.463 C3.817,17.602 2.261,12.091 3.253,8.23 C3.695,5.137 6.139,2.715 9.236,2.302 L9.236,2.302 C16.266,0.529 22.79,0.6 28.764,2.302 C31.861,2.715 34.305,5.137 34.747,8.23 C36.231,14.006 36.431,20.038 35.331,25.9 L34.658,29.488 C35.516,31.966 36,34.665 36,37.5 C36,49.374 27.717,59 17.5,59 C7.283,59 0,52.874 0,41 C0,37.776 2.113,34.523 2.916,31.656 L2.916,31.656 Z" id="demo-Stroke-1091" stroke="#0F81E0" stroke-width="2" stroke-linecap="round" stroke-linejoin="round" sketch:type="MSShapeGroup"/> <path d="M35.331,25.9 L34.658,29.488 C35.516,31.966 36,34.665 36,37.5 C36,40.521 35.459,43.393 34.491,46.001 C22.792,49.958 32.939,31.194 35.42,25.346 C35.388,25.53 35.366,25.716 35.331,25.9 L35.331,25.9 Z" id="demo-Fill-1092" fill="#C6E3F8" sketch:type="MSShapeGroup"/> <path d="M35.331,25.9 L34.658,29.488 C35.516,31.966 36,34.665 36,37.5 C36,40.521 35.459,43.393 34.491,46.001 C22.792,49.958 32.939,31.194 35.42,25.346 C35.388,25.53 35.366,25.716 35.331,25.9 L35.331,25.9 Z" id="demo-Stroke-1093" stroke="#0F81E0" stroke-width="2" stroke-linecap="round" stroke-linejoin="round" sketch:type="MSShapeGroup"/> <path d="M0.027,40.644 C0.172,37.537 2.143,34.418 2.916,31.656 C3.753,28.666 4.086,25.567 3.981,22.463 C3.979,22.388 3.973,22.31 3.97,22.234 C6.642,31.726 9.82,45.361 0.027,40.644 L0.027,40.644 Z" id="demo-Fill-1094" fill="#C6E3F8" sketch:type="MSShapeGroup"/> <path d="M0.027,40.644 C0.172,37.537 2.143,34.418 2.916,31.656 C3.753,28.666 4.086,25.567 3.981,22.463 C3.979,22.388 3.973,22.31 3.97,22.234 C6.642,31.726 9.82,45.361 0.027,40.644 L0.027,40.644 Z" id="demo-Stroke-1095" stroke="#0F81E0" stroke-width="2" stroke-linecap="round" stroke-linejoin="round" sketch:type="MSShapeGroup"/> <path d="M19,21 L19,21 C20.1,21 21,20.1 21,19 L21,11 C21,9.9 20.1,9 19,9 C17.9,9 17,9.9 17,11 L17,19 C17,20.1 17.9,21 19,21 L19,21 Z" id="demo-Fill-1096" fill="#C6E3F8" sketch:type="MSShapeGroup"/> <path d="M19,21 L19,21 C20.1,21 21,20.1 21,19 L21,11 C21,9.9 20.1,9 19,9 C17.9,9 17,9.9 17,11 L17,19 C17,20.1 17.9,21 19,21 L19,21 Z" id="demo-Stroke-1097" stroke="#0F81E0" stroke-width="2" stroke-linecap="round" stroke-linejoin="round" sketch:type="MSShapeGroup"/> <path d="M19,9 L19,1" id="demo-Fill-1098" fill="#FFFFFF" sketch:type="MSShapeGroup"/> <path d="M19,9 L19,1" id="demo-Stroke-1099" stroke="#0F81E0" stroke-width="2" stroke-linecap="round" stroke-linejoin="round" sketch:type="MSShapeGroup"/> <path d="M19,21 L19,27" id="demo-Stroke-1100" stroke="#0F81E0" stroke-width="2" stroke-linecap="round" stroke-linejoin="round" sketch:type="MSShapeGroup"/> <path d="M14,44 C14,46.209 15.791,48 18,48 C20.209,48 22,46.209 22,44 C22,41.791 20.209,40 18,40 C15.791,40 14,41.791 14,44 L14,44 Z" id="demo-Fill-1101" fill="#C6E3F8" sketch:type="MSShapeGroup"/> <path d="M14,44 C14,46.209 15.791,48 18,48 C20.209,48 22,46.209 22,44 C22,41.791 20.209,40 18,40 C15.791,40 14,41.791 14,44 L14,44 Z" id="demo-Stroke-1102" stroke="#0F81E0" stroke-width="2" stroke-linecap="round" stroke-linejoin="round" sketch:type="MSShapeGroup"/> </g> </g> </symbol><symbol viewBox="0.01 0.027 63.479 55.46" id="icon-discount"><title>discount</title> <g> <circle fill="#D0E8F9" stroke="#0096E6" stroke-width="2" stroke-linecap="round" stroke-linejoin="round" stroke-miterlimit="10" cx="9.029" cy="46.468" r="8.019"/> <circle fill="#D0E8F9" stroke="#0096E6" stroke-width="2" stroke-linecap="round" stroke-linejoin="round" stroke-miterlimit="10" cx="9.029" cy="9.046" r="8.019"/> <g> <g> <line fill="none" stroke="#0096E6" stroke-width="2" stroke-linecap="round" stroke-linejoin="round" x1="27.74" y1="42.458" x2="29.077" y2="42.458"/> <line fill="none" stroke="#0096E6" stroke-width="2" stroke-linecap="round" stroke-linejoin="round" stroke-dasharray="2.916,5.832" x1="34.909" y1="42.458" x2="58.236" y2="42.458"/> <line fill="none" stroke="#0096E6" stroke-width="2" stroke-linecap="round" stroke-linejoin="round" x1="61.152" y1="42.458" x2="62.489" y2="42.458"/> </g> <path fill="#D0E8F9" d="M22.172,27.282c0,0,9.476-18.871,27.19-18.871c4.772,0,9.298,1.042,13.365,2.909L22.302,27.04"/> </g> <path fill="none" stroke="#0096E6" stroke-width="2" stroke-linecap="round" stroke-linejoin="round" stroke-miterlimit="10" d="
		M28.86,37.112c-7.207-7.369-11.812-18.036-11.812-28.066"/> <path fill="none" stroke="#0096E6" stroke-width="2" stroke-linecap="round" stroke-linejoin="round" stroke-miterlimit="10" d="
		M17.048,46.468c0-17.715,14.362-37.422,32.076-37.422c4.772,0,9.298,1.042,13.365,2.909L22.394,27.757l24.057,9.355"/> </g> </symbol><symbol viewBox="0 0 45 58" id="icon-export"><title>17 - CSV File (Webby)</title><desc>Created with Sketch.</desc> <!-- Generator: Sketch 3.2.2 (9983) - http://www.bohemiancoding.com/sketch -->    <g id="export-Page-1" stroke="none" stroke-width="1" fill="none" fill-rule="evenodd" sketch:type="MSPage"> <g id="export-17---CSV-File-(Webby)" sketch:type="MSLayerGroup" transform="translate(1.000000, 1.000000)"> <path d="M30.485,0 L1.463,0 C0.655,0 0,0.655 0,1.926 L0,55 C0,55.345 0.655,56 1.463,56 L41.537,56 C42.345,56 43,55.345 43,55 L43,12.978 C43,12.282 42.907,12.058 42.743,11.893 L31.107,0.257 C30.942,0.093 30.718,0 30.485,0 L30.485,0 Z" id="export-Fill-23" fill="#FFFFFF" sketch:type="MSShapeGroup"/> <path d="M30.485,0 L1.463,0 C0.655,0 0,0.655 0,1.926 L0,55 C0,55.345 0.655,56 1.463,56 L41.537,56 C42.345,56 43,55.345 43,55 L43,12.978 C43,12.282 42.907,12.058 42.743,11.893 L31.107,0.257 C30.942,0.093 30.718,0 30.485,0 L30.485,0 Z" id="export-Stroke-24" stroke="#0096E6" stroke-width="2" sketch:type="MSShapeGroup"/> <path d="M41.537,56 L1.463,56 C0.655,56 0,55.345 0,54.537 L0,39 L43,39 L43,54.537 C43,55.345 42.345,56 41.537,56 L41.537,56 Z" id="export-Fill-361" fill="#D0E8F9" sketch:type="MSShapeGroup"/> <path d="M41.537,56 L1.463,56 C0.655,56 0,55.345 0,54.537 L0,39 L43,39 L43,54.537 C43,55.345 42.345,56 41.537,56 L41.537,56 Z" id="export-Stroke-362" stroke="#0096E6" stroke-width="2" sketch:type="MSShapeGroup"/> <path d="M31,1.391 L31,12 L41.609,12 C42.066,12 42.296,11.446 41.972,11.123 L31.877,1.028 C31.553,0.704 31,0.933 31,1.391 L31,1.391 Z" id="export-Fill-363" fill="#D0E8F9" sketch:type="MSShapeGroup"/> <path d="M31,1.391 L31,12 L41.609,12 C42.066,12 42.296,11.446 41.972,11.123 L31.877,1.028 C31.553,0.704 31,0.933 31,1.391 L31,1.391 Z" id="export-Stroke-364" stroke="#0096E6" stroke-width="2" sketch:type="MSShapeGroup"/> <path d="M15.08,51.975 C14.706,52.339 14.282,52.612 13.809,52.795 C13.334,52.977 12.824,53.068 12.277,53.068 C11.676,53.068 11.122,52.959 10.616,52.74 C10.11,52.522 9.668,52.198 9.29,51.769 C8.912,51.341 8.615,50.804 8.401,50.156 C8.187,49.509 8.08,48.762 8.08,47.914 C8.08,47.066 8.187,46.321 8.401,45.679 C8.615,45.036 8.912,44.501 9.29,44.072 C9.668,43.644 10.112,43.318 10.623,43.095 C11.133,42.871 11.685,42.76 12.277,42.76 C12.824,42.76 13.334,42.851 13.809,43.033 C14.282,43.216 14.706,43.489 15.08,43.854 L13.945,44.865 C13.717,44.601 13.464,44.409 13.186,44.291 C12.908,44.173 12.619,44.113 12.318,44.113 C11.981,44.113 11.66,44.177 11.354,44.305 C11.049,44.433 10.775,44.648 10.534,44.954 C10.293,45.26 10.103,45.653 9.967,46.137 C9.83,46.62 9.757,47.212 9.748,47.914 C9.757,48.598 9.828,49.181 9.96,49.664 C10.092,50.148 10.274,50.541 10.507,50.847 C10.739,51.152 11.003,51.375 11.3,51.517 C11.596,51.658 11.908,51.729 12.236,51.729 C12.564,51.729 12.872,51.669 13.159,51.551 C13.446,51.433 13.708,51.241 13.945,50.977 L15.08,51.975" id="export-Fill-365" fill="#0096E6" sketch:type="MSShapeGroup"/> <path d="M23.133,50.238 C23.133,50.603 23.058,50.956 22.907,51.298 C22.757,51.64 22.545,51.94 22.271,52.2 C21.998,52.46 21.661,52.667 21.26,52.822 C20.858,52.977 20.403,53.055 19.893,53.055 C19.674,53.055 19.448,53.043 19.216,53.02 C18.983,52.998 18.748,52.959 18.512,52.904 C18.274,52.85 18.049,52.774 17.835,52.679 C17.621,52.583 17.436,52.467 17.281,52.33 L17.568,51.154 C17.696,51.227 17.857,51.298 18.054,51.366 C18.249,51.435 18.452,51.498 18.662,51.558 C18.872,51.617 19.081,51.665 19.291,51.701 C19.5,51.737 19.696,51.756 19.879,51.756 C20.435,51.756 20.861,51.626 21.157,51.366 C21.453,51.106 21.602,50.722 21.602,50.211 C21.602,49.901 21.497,49.637 21.287,49.418 C21.077,49.199 20.815,49.001 20.501,48.823 C20.186,48.646 19.847,48.468 19.482,48.29 C19.118,48.112 18.776,47.902 18.457,47.661 C18.138,47.42 17.873,47.135 17.664,46.807 C17.454,46.479 17.35,46.068 17.35,45.576 C17.35,45.13 17.432,44.733 17.596,44.387 C17.76,44.04 17.98,43.746 18.259,43.505 C18.537,43.264 18.86,43.079 19.229,42.951 C19.599,42.823 19.988,42.76 20.398,42.76 C20.817,42.76 21.241,42.799 21.67,42.876 C22.098,42.953 22.444,43.079 22.709,43.252 C22.654,43.37 22.59,43.5 22.518,43.642 C22.444,43.783 22.376,43.915 22.312,44.038 C22.248,44.161 22.194,44.264 22.148,44.346 C22.102,44.428 22.075,44.474 22.066,44.482 C22.012,44.455 21.95,44.419 21.882,44.373 C21.814,44.327 21.715,44.282 21.588,44.236 C21.46,44.19 21.292,44.159 21.082,44.141 C20.872,44.122 20.603,44.127 20.275,44.154 C20.093,44.173 19.92,44.225 19.756,44.312 C19.592,44.398 19.446,44.505 19.318,44.633 C19.19,44.761 19.09,44.904 19.018,45.063 C18.944,45.223 18.908,45.376 18.908,45.521 C18.908,45.886 19.013,46.18 19.223,46.403 C19.432,46.627 19.692,46.822 20.002,46.991 C20.311,47.16 20.649,47.324 21.014,47.483 C21.378,47.643 21.718,47.837 22.032,48.065 C22.347,48.292 22.608,48.577 22.818,48.919 C23.028,49.261 23.133,49.7 23.133,50.238" id="export-Fill-366" fill="#0096E6" sketch:type="MSShapeGroup"/> <path d="M27.535,53.055 L24.404,42.924 L26.277,42.924 L28.615,51.619 L31.09,42.924 L32.949,42.924 L29.668,53.055 L27.535,53.055" id="export-Fill-367" fill="#0096E6" sketch:type="MSShapeGroup"/> <path d="M6,17 L16,17 L16,21 L6,21 L6,17 Z" id="export-Fill-368" fill="#D0E8F9" sketch:type="MSShapeGroup"/> <path d="M6,17 L16,17 L16,21 L6,21 L6,17 Z" id="export-Stroke-369" stroke="#0096E6" stroke-width="2" sketch:type="MSShapeGroup"/> <path d="M6,13 L16,13 L16,17 L6,17 L6,13 Z" id="export-Fill-370" fill="#D0E8F9" sketch:type="MSShapeGroup"/> <path d="M6,13 L16,13 L16,17 L6,17 L6,13 Z" id="export-Stroke-371" stroke="#0096E6" stroke-width="2" sketch:type="MSShapeGroup"/> <path d="M16,17 L37,17 L37,21 L16,21 L16,17 Z" id="export-Fill-372" fill="#D0E8F9" sketch:type="MSShapeGroup"/> <path d="M16,17 L37,17 L37,21 L16,21 L16,17 Z" id="export-Stroke-373" stroke="#0096E6" stroke-width="2" sketch:type="MSShapeGroup"/> <path d="M6,21 L16,21 L16,25 L6,25 L6,21 Z" id="export-Fill-374" fill="#D0E8F9" sketch:type="MSShapeGroup"/> <path d="M6,21 L16,21 L16,25 L6,25 L6,21 Z" id="export-Stroke-375" stroke="#0096E6" stroke-width="2" sketch:type="MSShapeGroup"/> <path d="M16,21 L37,21 L37,25 L16,25 L16,21 Z" id="export-Fill-376" fill="#D0E8F9" sketch:type="MSShapeGroup"/> <path d="M16,21 L37,21 L37,25 L16,25 L16,21 Z" id="export-Stroke-377" stroke="#0096E6" stroke-width="2" sketch:type="MSShapeGroup"/> <path d="M6,25 L16,25 L16,29 L6,29 L6,25 Z" id="export-Fill-378" fill="#D0E8F9" sketch:type="MSShapeGroup"/> <path d="M6,25 L16,25 L16,29 L6,29 L6,25 Z" id="export-Stroke-379" stroke="#0096E6" stroke-width="2" sketch:type="MSShapeGroup"/> <path d="M16,25 L37,25 L37,29 L16,29 L16,25 Z" id="export-Fill-380" fill="#D0E8F9" sketch:type="MSShapeGroup"/> <path d="M16,25 L37,25 L37,29 L16,29 L16,25 Z" id="export-Stroke-381" stroke="#0096E6" stroke-width="2" sketch:type="MSShapeGroup"/> <path d="M6,29 L16,29 L16,33 L6,33 L6,29 Z" id="export-Fill-382" fill="#D0E8F9" sketch:type="MSShapeGroup"/> <path d="M6,29 L16,29 L16,33 L6,33 L6,29 Z" id="export-Stroke-383" stroke="#0096E6" stroke-width="2" sketch:type="MSShapeGroup"/> <path d="M16,29 L37,29 L37,33 L16,33 L16,29 Z" id="export-Fill-384" fill="#D0E8F9" sketch:type="MSShapeGroup"/> <path d="M16,29 L37,29 L37,33 L16,33 L16,29 Z" id="export-Stroke-385" stroke="#0096E6" stroke-width="2" sketch:type="MSShapeGroup"/> </g> </g> </symbol><symbol viewBox="0 0 16.5 16.484" id="icon-external"><title>external</title> <g> <polyline fill="none" stroke="#FFFFFF" stroke-width="1.5" stroke-linecap="round" stroke-linejoin="round" stroke-miterlimit="10" points="
		6.75,3.734 0.75,3.734 0.75,15.734 12.75,15.734 12.75,9.766 	"/> <line fill="none" stroke="#FFFFFF" stroke-width="1.5" stroke-linecap="round" stroke-linejoin="round" stroke-miterlimit="10" x1="3.75" y1="12.75" x2="15.75" y2="0.75"/> <polyline fill="none" stroke="#FFFFFF" stroke-width="1.5" stroke-linecap="round" stroke-linejoin="round" stroke-miterlimit="10" points="
		9.75,0.75 15.75,0.75 15.75,6.75 	"/> </g> </symbol><symbol viewBox="0 0 58 58" id="icon-help"><title>109 - Help (Webby)</title><desc>Created with Sketch.</desc> <!-- Generator: Sketch 3.2.2 (9983) - http://www.bohemiancoding.com/sketch -->    <g id="help-Page-1" stroke="none" stroke-width="1" fill="none" fill-rule="evenodd" sketch:type="MSPage"> <g id="help-Icons" sketch:type="MSArtboardGroup" transform="translate(-241.000000, -3598.000000)"> <g id="help-109---Help-(Webby)" sketch:type="MSLayerGroup" transform="translate(242.000000, 3599.000000)"> <path d="M56,28 C56,43.464 43.464,56 28,56 C12.536,56 0,43.464 0,28 C0,12.536 12.536,0 28,0 C43.464,0 56,12.536 56,28 L56,28 Z" id="help-Fill-107" fill="#FFFFFF" sketch:type="MSShapeGroup"/> <path d="M56,28 C56,43.464 43.464,56 28,56 C12.536,56 0,43.464 0,28 C0,12.536 12.536,0 28,0 C43.464,0 56,12.536 56,28 L56,28 Z" id="help-Stroke-108" stroke="#0096E6" stroke-width="2" stroke-linecap="round" stroke-linejoin="round" sketch:type="MSShapeGroup"/> <path d="M13.44,28 C13.44,19.959 19.959,13.44 28,13.44 C36.041,13.44 42.56,19.959 42.56,28 C42.56,36.041 36.041,42.56 28,42.56 C19.959,42.56 13.44,36.041 13.44,28 L13.44,28 Z" id="help-Fill-109" fill="#FFFFFF" sketch:type="MSShapeGroup"/> <path d="M13.44,28 C13.44,19.959 19.959,13.44 28,13.44 C36.041,13.44 42.56,19.959 42.56,28 C42.56,36.041 36.041,42.56 28,42.56 C19.959,42.56 13.44,36.041 13.44,28 L13.44,28 Z" id="help-Stroke-110" stroke="#0096E6" stroke-width="2" stroke-linecap="round" stroke-linejoin="round" sketch:type="MSShapeGroup"/> <path d="M20.422,1.046 L23.683,14.091 M32.317,14.091 L35.578,1.046 M35.578,54.953 L32.317,41.909 M23.683,41.909 L20.422,54.953 M54.954,20.422 L41.909,23.683 M41.909,32.317 L54.954,35.578 M1.046,35.578 L14.091,32.317 M14.091,23.683 L1.046,20.422" id="help-Stroke-111" stroke="#0096E6" stroke-width="2" stroke-linecap="round" stroke-linejoin="round" sketch:type="MSShapeGroup"/> <path d="M17.147,2.19 C17.3,2.125 17.455,2.062 17.609,2 L17.109,2" id="help-Stroke-112" stroke="#0096E6" stroke-width="2" stroke-linecap="round" stroke-linejoin="round" sketch:type="MSShapeGroup"/> <path d="M13.201,2 L6.37,2 C3.956,2 2,3.956 2,6.37 L2,15.155" id="help-Stroke-113" stroke="#0096E6" stroke-width="2" stroke-linecap="round" stroke-linejoin="round" stroke-dasharray="0.977,3.908" sketch:type="MSShapeGroup"/> <path d="M2,17.109 L2,17.609 C2.062,17.454 2.125,17.3 2.19,17.147" id="help-Stroke-114" stroke="#0096E6" stroke-width="2" stroke-linecap="round" stroke-linejoin="round" sketch:type="MSShapeGroup"/> <path d="M3.804,13.916 C6.545,9.216 10.616,5.388 15.502,2.946" id="help-Stroke-115" stroke="#0096E6" stroke-width="2" stroke-linecap="round" stroke-linejoin="round" stroke-dasharray="0.903,3.613" sketch:type="MSShapeGroup"/> <path d="M53.81,17.147 C53.875,17.3 53.938,17.454 54,17.609 L54,17.109" id="help-Stroke-116" stroke="#0096E6" stroke-width="2" stroke-linecap="round" stroke-linejoin="round" sketch:type="MSShapeGroup"/> <path d="M54,13.201 L54,6.37 C54,3.956 52.044,2 49.63,2 L40.845,2" id="help-Stroke-117" stroke="#0096E6" stroke-width="2" stroke-linecap="round" stroke-linejoin="round" stroke-dasharray="0.977,3.908" sketch:type="MSShapeGroup"/> <path d="M38.891,2 L38.391,2 C38.546,2.062 38.7,2.125 38.853,2.19" id="help-Stroke-118" stroke="#0096E6" stroke-width="2" stroke-linecap="round" stroke-linejoin="round" sketch:type="MSShapeGroup"/> <path d="M42.084,3.804 C46.784,6.545 50.612,10.616 53.054,15.502" id="help-Stroke-119" stroke="#0096E6" stroke-width="2" stroke-linecap="round" stroke-linejoin="round" stroke-dasharray="0.903,3.613" sketch:type="MSShapeGroup"/> <path d="M38.853,53.81 C38.7,53.875 38.546,53.938 38.391,54 L38.891,54" id="help-Stroke-120" stroke="#0096E6" stroke-width="2" stroke-linecap="round" stroke-linejoin="round" sketch:type="MSShapeGroup"/> <path d="M42.799,54 L49.63,54 C52.044,54 54,52.044 54,49.63 L54,40.845" id="help-Stroke-121" stroke="#0096E6" stroke-width="2" stroke-linecap="round" stroke-linejoin="round" stroke-dasharray="0.977,3.908" sketch:type="MSShapeGroup"/> <path d="M54,38.89 L54,38.391 C53.938,38.545 53.875,38.7 53.81,38.853" id="help-Stroke-122" stroke="#0096E6" stroke-width="2" stroke-linecap="round" stroke-linejoin="round" sketch:type="MSShapeGroup"/> <path d="M52.196,42.084 C49.455,46.784 45.384,50.612 40.498,53.054" id="help-Stroke-123" stroke="#0096E6" stroke-width="2" stroke-linecap="round" stroke-linejoin="round" stroke-dasharray="0.903,3.613" sketch:type="MSShapeGroup"/> <path d="M2.19,38.853 C2.125,38.7 2.062,38.545 2,38.391 L2,38.89" id="help-Stroke-124" stroke="#0096E6" stroke-width="2" stroke-linecap="round" stroke-linejoin="round" sketch:type="MSShapeGroup"/> <path d="M2,42.798 L2,49.63 C2,52.044 3.956,54 6.37,54 L15.155,54" id="help-Stroke-125" stroke="#0096E6" stroke-width="2" stroke-linecap="round" stroke-linejoin="round" stroke-dasharray="0.977,3.908" sketch:type="MSShapeGroup"/> <path d="M17.109,54 L17.609,54 C17.455,53.938 17.3,53.875 17.147,53.81" id="help-Stroke-126" stroke="#0096E6" stroke-width="2" stroke-linecap="round" stroke-linejoin="round" sketch:type="MSShapeGroup"/> <path d="M13.916,52.196 C9.216,49.455 5.388,45.384 2.946,40.498" id="help-Stroke-127" stroke="#0096E6" stroke-width="2" stroke-linecap="round" stroke-linejoin="round" stroke-dasharray="0.903,3.613" sketch:type="MSShapeGroup"/> </g> </g> </g> </symbol><symbol viewBox="0 0 60 44" id="icon-integrations"><title>143 - Credit Card (Webby)</title><desc>Created with Sketch.</desc> <!-- Generator: Sketch 3.2.2 (9983) - http://www.bohemiancoding.com/sketch -->    <g id="integrations-Page-1" stroke="none" stroke-width="1" fill="none" fill-rule="evenodd" sketch:type="MSPage"> <g id="integrations-143---Credit-Card-(Webby)" sketch:type="MSLayerGroup" transform="translate(1.000000, 1.000000)"> <path d="M54.783,42 L3.217,42 C1.44,42 0,40.56 0,38.783 L0,3.217 C0,1.44 1.44,0 3.217,0 L54.783,0 C56.56,0 58,1.44 58,3.217 L58,38.783 C58,40.56 56.56,42 54.783,42 L54.783,42 Z" id="integrations-Fill-5" fill="#FFFFFF" sketch:type="MSShapeGroup"/> <path d="M54.783,42 L3.217,42 C1.44,42 0,40.56 0,38.783 L0,3.217 C0,1.44 1.44,0 3.217,0 L54.783,0 C56.56,0 58,1.44 58,3.217 L58,38.783 C58,40.56 56.56,42 54.783,42 L54.783,42 Z" id="integrations-Stroke-6" stroke="#0096E6" stroke-width="2" sketch:type="MSShapeGroup"/> <path d="M46,12 C46,15.314 43.314,18 40,18 C36.686,18 34,15.314 34,12 C34,8.686 36.686,6 40,6 C43.314,6 46,8.686 46,12 L46,12 Z" id="integrations-Fill-323" fill="#D0E8F9" sketch:type="MSShapeGroup"/> <path d="M46,12 C46,15.314 43.314,18 40,18 C36.686,18 34,15.314 34,12 C34,8.686 36.686,6 40,6 C43.314,6 46,8.686 46,12 L46,12 Z" id="integrations-Stroke-324" stroke="#0096E6" stroke-width="2" stroke-linecap="round" sketch:type="MSShapeGroup"/> <path d="M53,12 C53,15.314 50.314,18 47,18 C43.686,18 41,15.314 41,12 C41,8.686 43.686,6 47,6 C50.314,6 53,8.686 53,12 L53,12 Z" id="integrations-Fill-325" fill="#D0E8F9" sketch:type="MSShapeGroup"/> <path d="M53,12 C53,15.314 50.314,18 47,18 C43.686,18 41,15.314 41,12 C41,8.686 43.686,6 47,6 C50.314,6 53,8.686 53,12 L53,12 Z" id="integrations-Stroke-326" stroke="#0096E6" stroke-width="2" stroke-linecap="round" sketch:type="MSShapeGroup"/> <path d="M5,8 L14,8 M18,8 L27,8 M5,13 L6,13 M10,13 L12,13 M16,13 L17,13 M21,13 L23,13" id="integrations-Stroke-375" stroke="#0096E6" stroke-width="2" stroke-linecap="round" sketch:type="MSShapeGroup"/> <path d="M5,29 L14,29 L14,35 L5,35 L5,29 Z" id="integrations-Fill-376" fill="#D0E8F9" sketch:type="MSShapeGroup"/> <path d="M5,29 L14,29 L14,35 L5,35 L5,29 Z" id="integrations-Stroke-377" stroke="#0096E6" stroke-width="2" sketch:type="MSShapeGroup"/> <path d="M18,29 L27,29 L27,35 L18,35 L18,29 Z" id="integrations-Fill-378" fill="#D0E8F9" sketch:type="MSShapeGroup"/> <path d="M18,29 L27,29 L27,35 L18,35 L18,29 Z" id="integrations-Stroke-379" stroke="#0096E6" stroke-width="2" sketch:type="MSShapeGroup"/> <path d="M31,29 L40,29 L40,35 L31,35 L31,29 Z" id="integrations-Fill-380" fill="#D0E8F9" sketch:type="MSShapeGroup"/> <path d="M31,29 L40,29 L40,35 L31,35 L31,29 Z" id="integrations-Stroke-381" stroke="#0096E6" stroke-width="2" sketch:type="MSShapeGroup"/> <path d="M44,29 L53,29 L53,35 L44,35 L44,29 Z" id="integrations-Fill-382" fill="#D0E8F9" sketch:type="MSShapeGroup"/> <path d="M44,29 L53,29 L53,35 L44,35 L44,29 Z" id="integrations-Stroke-383" stroke="#0096E6" stroke-width="2" sketch:type="MSShapeGroup"/> </g> </g> </symbol><symbol viewBox="0 0 60 60" id="icon-member-management"><title>65 - Profile (Webby)</title><desc>Created with Sketch.</desc> <!-- Generator: Sketch 3.2.2 (9983) - http://www.bohemiancoding.com/sketch -->    <g id="member-management-Page-1" stroke="none" stroke-width="1" fill="none" fill-rule="evenodd" sketch:type="MSPage"> <g id="member-management-65---Profile-(Webby)" sketch:type="MSLayerGroup" transform="translate(1.000000, 1.000000)"> <path d="M0,0 L58,0 L58,58 L0,58 L0,0 Z" id="member-management-Fill-1559" fill="#FFFFFF" sketch:type="MSShapeGroup"/> <path d="M0,0 L58,0 L58,58 L0,58 L0,0 Z" id="member-management-Stroke-1560" stroke="#0096E6" stroke-width="2" sketch:type="MSShapeGroup"/> <path d="M0,0 L58,0 L58,12 L0,12 L0,0 Z" id="member-management-Fill-1561" fill="#D0E8F9" sketch:type="MSShapeGroup"/> <path d="M0,0 L58,0 L58,12 L0,12 L0,0 Z" id="member-management-Stroke-1562" stroke="#0096E6" stroke-width="2" sketch:type="MSShapeGroup"/> <path d="M35,46 L22,46 M40,50 L17,50" id="member-management-Stroke-1563" stroke="#0096E6" stroke-width="2" stroke-linecap="round" sketch:type="MSShapeGroup"/> <path d="M9,6 C9,7.657 7.657,9 6,9 C4.343,9 3,7.657 3,6 C3,4.343 4.343,3 6,3 C7.657,3 9,4.343 9,6 L9,6 Z" id="member-management-Fill-1564" fill="#FFFFFF" sketch:type="MSShapeGroup"/> <path d="M9,6 C9,7.657 7.657,9 6,9 C4.343,9 3,7.657 3,6 C3,4.343 4.343,3 6,3 C7.657,3 9,4.343 9,6 L9,6 Z" id="member-management-Stroke-1565" stroke="#0096E6" stroke-width="2" sketch:type="MSShapeGroup"/> <path d="M18,6 C18,7.657 16.657,9 15,9 C13.343,9 12,7.657 12,6 C12,4.343 13.343,3 15,3 C16.657,3 18,4.343 18,6 L18,6 Z" id="member-management-Fill-1566" fill="#FFFFFF" sketch:type="MSShapeGroup"/> <path d="M18,6 C18,7.657 16.657,9 15,9 C13.343,9 12,7.657 12,6 C12,4.343 13.343,3 15,3 C16.657,3 18,4.343 18,6 L18,6 Z" id="member-management-Stroke-1567" stroke="#0096E6" stroke-width="2" sketch:type="MSShapeGroup"/> <path d="M27,6 C27,7.657 25.657,9 24,9 C22.343,9 21,7.657 21,6 C21,4.343 22.343,3 24,3 C25.657,3 27,4.343 27,6 L27,6 Z" id="member-management-Fill-1568" fill="#FFFFFF" sketch:type="MSShapeGroup"/> <path d="M27,6 C27,7.657 25.657,9 24,9 C22.343,9 21,7.657 21,6 C21,4.343 22.343,3 24,3 C25.657,3 27,4.343 27,6 L27,6 Z" id="member-management-Stroke-1569" stroke="#0096E6" stroke-width="2" sketch:type="MSShapeGroup"/> <path d="M41,29 C41,35.627 35.627,41 29,41 C22.373,41 17,35.627 17,29 C17,22.373 22.373,17 29,17 C35.627,17 41,22.373 41,29 L41,29 Z" id="member-management-Fill-1570" fill="#FFFFFF" sketch:type="MSShapeGroup"/> <path d="M41,29 C41,35.627 35.627,41 29,41 C22.373,41 17,35.627 17,29 C17,22.373 22.373,17 29,17 C35.627,17 41,22.373 41,29 L41,29 Z" id="member-management-Stroke-1571" stroke="#0096E6" stroke-width="2" sketch:type="MSShapeGroup"/> <path d="M31.932,36.567 C31.485,36.344 31.202,35.886 31.202,35.386 L31.202,34.028 C31.3,33.918 31.411,33.775 31.53,33.607 C32.002,32.941 32.358,32.208 32.606,31.439 C33.049,31.302 33.377,30.892 33.377,30.405 L33.377,28.955 C33.377,28.636 33.235,28.351 33.014,28.152 L33.014,26.057 C33.014,26.057 33.445,22.795 29.028,22.795 C24.612,22.795 25.042,26.057 25.042,26.057 L25.042,28.152 C24.822,28.351 24.68,28.636 24.68,28.955 L24.68,30.405 C24.68,30.787 24.881,31.123 25.181,31.317 C25.543,32.894 26.492,34.028 26.492,34.028 L26.492,35.353 C26.492,35.836 26.228,36.28 25.804,36.512 L22.571,38.275 C22.35,38.396 22.153,38.546 21.974,38.714 C23.951,40.146 26.373,41 29,41 C31.623,41 34.041,40.149 36.016,38.722 C35.829,38.557 35.622,38.412 35.393,38.298 L31.932,36.567 L31.932,36.567 Z" id="member-management-Fill-1572" fill="#D0E8F9" sketch:type="MSShapeGroup"/> <path d="M31.932,36.567 C31.485,36.344 31.202,35.886 31.202,35.386 L31.202,34.028 C31.3,33.918 31.411,33.775 31.53,33.607 C32.002,32.941 32.358,32.208 32.606,31.439 C33.049,31.302 33.377,30.892 33.377,30.405 L33.377,28.955 C33.377,28.636 33.235,28.351 33.014,28.152 L33.014,26.057 C33.014,26.057 33.445,22.795 29.028,22.795 C24.612,22.795 25.042,26.057 25.042,26.057 L25.042,28.152 C24.822,28.351 24.68,28.636 24.68,28.955 L24.68,30.405 C24.68,30.787 24.881,31.123 25.181,31.317 C25.543,32.894 26.492,34.028 26.492,34.028 L26.492,35.353 C26.492,35.836 26.228,36.28 25.804,36.512 L22.571,38.275 C22.35,38.396 22.153,38.546 21.974,38.714 C23.951,40.146 26.373,41 29,41 C31.623,41 34.041,40.149 36.016,38.722 C35.829,38.557 35.622,38.412 35.393,38.298 L31.932,36.567 L31.932,36.567 Z" id="member-management-Stroke-1573" stroke="#0096E6" stroke-width="2" sketch:type="MSShapeGroup"/> </g> </g> </symbol><symbol viewBox="0 0 60 60" id="icon-reports"><title>113 - Chart Presentation (Webby)</title><desc>Created with Sketch.</desc> <!-- Generator: Sketch 3.2.2 (9983) - http://www.bohemiancoding.com/sketch -->    <g id="reports-Page-1" stroke="none" stroke-width="1" fill="none" fill-rule="evenodd" sketch:type="MSPage"> <g id="reports-113---Chart-Presentation-(Webby)" sketch:type="MSLayerGroup" transform="translate(1.000000, 1.000000)"> <path d="M0,0 L58,0 L58,6 L0,6 L0,0 Z" id="reports-Fill-1" fill="#D0E8F9" sketch:type="MSShapeGroup"/> <path d="M0,0 L58,0 L58,6 L0,6 L0,0 Z" id="reports-Stroke-2" stroke="#0096E6" stroke-width="2" sketch:type="MSShapeGroup"/> <path d="M0,48 L58,48 M29,48 L29,51" id="reports-Stroke-3" stroke="#0096E6" stroke-width="2" stroke-linecap="round" sketch:type="MSShapeGroup"/> <path d="M32,55 C32,56.657 30.657,58 29,58 C27.343,58 26,56.657 26,55 C26,53.343 27.343,52 29,52 C30.657,52 32,53.343 32,55 L32,55 Z" id="reports-Fill-4" fill="#D0E8F9" sketch:type="MSShapeGroup"/> <path d="M32,55 C32,56.657 30.657,58 29,58 C27.343,58 26,56.657 26,55 C26,53.343 27.343,52 29,52 C30.657,52 32,53.343 32,55 L32,55 Z" id="reports-Stroke-5" stroke="#0096E6" stroke-width="2" stroke-linecap="round" sketch:type="MSShapeGroup"/> <path d="M2,6 L56,6 L56,48 L2,48 L2,6 Z" id="reports-Fill-6" fill="#FFFFFF" sketch:type="MSShapeGroup"/> <path d="M2,6 L56,6 L56,48 L2,48 L2,6 Z" id="reports-Stroke-7" stroke="#0096E6" stroke-width="2" stroke-linecap="round" sketch:type="MSShapeGroup"/> <path d="M35,43 L35,40 M39,43 L39,36 M43,43 L43,38 M47,43 L47,31 M51,43 L51,35 M9,38 L19,38 M9,42 L24,42" id="reports-Stroke-8" stroke="#0096E6" stroke-width="2" stroke-linecap="round" sketch:type="MSShapeGroup"/> <path d="M29,21.5 C29,27.299 24.299,32 18.5,32 C12.701,32 8,27.299 8,21.5 C8,15.701 12.701,11 18.5,11 C24.299,11 29,15.701 29,21.5 L29,21.5 Z" id="reports-Fill-9" fill="#D0E8F9" sketch:type="MSShapeGroup"/> <path d="M29,21.5 C29,27.299 24.299,32 18.5,32 C12.701,32 8,27.299 8,21.5 C8,15.701 12.701,11 18.5,11 C24.299,11 29,15.701 29,21.5 L29,21.5 Z" id="reports-Stroke-10" stroke="#0096E6" stroke-width="2" stroke-linecap="round" sketch:type="MSShapeGroup"/> <path d="M18.014,11.011 C18.008,11.016 18.005,11.02 18,11.025 L18,21.963 C18,21.984 18.016,22 18.037,22 L28.975,22 C28.98,21.995 28.984,21.992 28.989,21.986 C29.268,15.803 24.197,10.732 18.014,11.011 L18.014,11.011 Z M18,22 L25.408,29.408 L18,22 Z M38,17 L46,17 L38,17 Z M48,12 L51,12 L48,12 Z M38,12 L40,12 L38,12 Z" id="reports-Stroke-11" stroke="#0096E6" stroke-width="2" stroke-linecap="round" sketch:type="MSShapeGroup"/> </g> </g> </symbol><symbol viewBox="0 0 43 59" id="icon-simple-setup"><title>49 - Joystick (Webby)</title><desc>Created with Sketch.</desc> <!-- Generator: Sketch 3.2.2 (9983) - http://www.bohemiancoding.com/sketch -->    <g id="simple-setup-Page-1" stroke="none" stroke-width="1" fill="none" fill-rule="evenodd" sketch:type="MSPage"> <g id="simple-setup-49---Joystick-(Webby)" sketch:type="MSLayerGroup" transform="translate(1.000000, 1.000000)"> <path d="M30.163,10.326 C30.163,15.938 25.613,20.488 20,20.488 C14.387,20.488 9.837,15.938 9.837,10.326 C9.837,4.713 14.387,0.163 20,0.163 C25.613,0.163 30.163,4.713 30.163,10.326 L30.163,10.326 Z" id="simple-setup-Fill-1143" fill="#C6E3F8" sketch:type="MSShapeGroup"/> <path d="M30.163,10.326 C30.163,15.938 25.613,20.488 20,20.488 C14.387,20.488 9.837,15.938 9.837,10.326 C9.837,4.713 14.387,0.163 20,0.163 C25.613,0.163 30.163,4.713 30.163,10.326 L30.163,10.326 Z" id="simple-setup-Stroke-1144" stroke="#0F81E0" stroke-width="2" sketch:type="MSShapeGroup"/> <path d="M14,10 C14,7.236 16.236,5 19,5" id="simple-setup-Stroke-1145" stroke="#0F81E0" stroke-width="2" stroke-linecap="round" sketch:type="MSShapeGroup"/> <path d="M35.679,16 L28.432,16 C26.606,18.708 23.511,20.488 20,20.488 C16.489,20.488 13.394,18.708 11.568,16 L5.321,16 C2.382,16 0,18.382 0,21.321 L0,51.679 C0,54.618 2.382,57 5.321,57 L35.679,57 C38.618,57 41,54.618 41,51.679 L41,21.321 C41,18.382 38.618,16 35.679,16 L35.679,16 Z" id="simple-setup-Fill-1146" fill="#FFFFFF" sketch:type="MSShapeGroup"/> <path d="M35.679,16 L28.432,16 C26.606,18.708 23.511,20.488 20,20.488 C16.489,20.488 13.394,18.708 11.568,16 L5.321,16 C2.382,16 0,18.382 0,21.321 L0,51.679 C0,54.618 2.382,57 5.321,57 L35.679,57 C38.618,57 41,54.618 41,51.679 L41,21.321 C41,18.382 38.618,16 35.679,16 L35.679,16 Z" id="simple-setup-Stroke-1147" stroke="#0F81E0" stroke-width="2" sketch:type="MSShapeGroup"/> <path d="M20,20.488 C18.956,20.488 17.948,20.33 17,20.037 L17,35.163 C17,36.82 18.343,38.163 20,38.163 C21.657,38.163 23,36.82 23,35.163 L23,20.037 C22.052,20.33 21.044,20.488 20,20.488 L20,20.488 Z" id="simple-setup-Fill-1639" fill="#FFFFFF" sketch:type="MSShapeGroup"/> <path d="M20,20.488 C18.956,20.488 17.948,20.33 17,20.037 L17,35.163 C17,36.82 18.343,38.163 20,38.163 C21.657,38.163 23,36.82 23,35.163 L23,20.037 C22.052,20.33 21.044,20.488 20,20.488 L20,20.488 Z" id="simple-setup-Stroke-1640" stroke="#0F81E0" stroke-width="2" sketch:type="MSShapeGroup"/> <path d="M10,49.233 C10,50.761 8.761,52 7.233,52 C5.704,52 4.465,50.761 4.465,49.233 C4.465,47.704 5.704,46.465 7.233,46.465 C8.761,46.465 10,47.704 10,49.233 L10,49.233 Z" id="simple-setup-Fill-1641" fill="#C6E3F8" sketch:type="MSShapeGroup"/> <path d="M10,49.233 C10,50.761 8.761,52 7.233,52 C5.704,52 4.465,50.761 4.465,49.233 C4.465,47.704 5.704,46.465 7.233,46.465 C8.761,46.465 10,47.704 10,49.233 L10,49.233 Z" id="simple-setup-Stroke-1642" stroke="#0F81E0" stroke-width="2" sketch:type="MSShapeGroup"/> <path d="M29,53 C33.422,53 37,49.422 37,45" id="simple-setup-Stroke-1643" stroke="#0F81E0" stroke-width="2" stroke-linecap="round" sketch:type="MSShapeGroup"/> <path d="M23,22.362 L23,35.163 C23,36.82 21.657,38.163 20,38.163 C18.343,38.163 17,36.82 17,35.163 L17,22.362 C11.269,23.718 7,28.855 7,35 C7,42.18 12.82,48 20,48 C27.18,48 33,42.18 33,35 C33,28.855 28.731,23.718 23,22.362 L23,22.362 Z" id="simple-setup-Fill-1644" fill="#FFFFFF" sketch:type="MSShapeGroup"/> <path d="M23,22.362 L23,35.163 C23,36.82 21.657,38.163 20,38.163 C18.343,38.163 17,36.82 17,35.163 L17,22.362 C11.269,23.718 7,28.855 7,35 C7,42.18 12.82,48 20,48 C27.18,48 33,42.18 33,35 C33,28.855 28.731,23.718 23,22.362 L23,22.362 Z" id="simple-setup-Stroke-1645" stroke="#0F81E0" stroke-width="2" sketch:type="MSShapeGroup"/> <path d="M23,25.659 L23,35.163 C23,36.82 21.657,38.163 20,38.163 C18.343,38.163 17,36.82 17,35.163 L17,25.659 C13.271,26.913 10.581,30.43 10.581,34.581 C10.581,39.783 14.798,44 20,44 C25.202,44 29.419,39.783 29.419,34.581 C29.419,30.43 26.729,26.913 23,25.659 L23,25.659 Z" id="simple-setup-Fill-1646" fill="#FFFFFF" sketch:type="MSShapeGroup"/> <path d="M23,25.659 L23,35.163 C23,36.82 21.657,38.163 20,38.163 C18.343,38.163 17,36.82 17,35.163 L17,25.659 C13.271,26.913 10.581,30.43 10.581,34.581 C10.581,39.783 14.798,44 20,44 C25.202,44 29.419,39.783 29.419,34.581 C29.419,30.43 26.729,26.913 23,25.659 L23,25.659 Z" id="simple-setup-Stroke-1647" stroke="#0F81E0" stroke-width="2" sketch:type="MSShapeGroup"/> </g> </g> </symbol><symbol viewBox="0 0 55 57" id="icon-subscriptions"><title>254 - LIke Calendar (Webby)</title><desc>Created with Sketch.</desc> <!-- Generator: Sketch 3.2.2 (9983) - http://www.bohemiancoding.com/sketch -->    <g id="subscriptions-Page-1" stroke="none" stroke-width="1" fill="none" fill-rule="evenodd" sketch:type="MSPage"> <g id="subscriptions-254---LIke-Calendar-(Webby)" sketch:type="MSLayerGroup" transform="translate(1.000000, 1.000000)" stroke="#0096E6" stroke-width="2"> <path d="M41,38.257 C41.969,36.074 44.109,34.058 46.684,34.058 C50.151,34.058 52.648,36.879 52.962,40.241 C52.962,40.241 53.131,41.075 52.758,42.578 C52.25,44.624 51.057,46.442 49.447,47.829 L41.118,54.956 C41.05,55.014 40.95,55.014 40.882,54.956 L32.553,47.829 C30.943,46.441 29.75,44.624 29.242,42.577 C28.869,41.075 29.038,40.24 29.038,40.24 C29.352,36.878 31.849,34.057 35.316,34.057 C37.891,34.057 40.031,36.074 41,38.257 L41,38.257 Z" id="subscriptions-Stroke-132" fill="#D0E8F9" sketch:type="MSShapeGroup"/> <path d="M6,0 L13,0 L13,8 L6,8 L6,0 Z" id="subscriptions-Stroke-4446" stroke-linecap="round" stroke-linejoin="round" sketch:type="MSShapeGroup"/> <path d="M37,0 L44,0 L44,8 L37,8 L37,0 Z" id="subscriptions-Stroke-4448" stroke-linecap="round" stroke-linejoin="round" sketch:type="MSShapeGroup"/> <path d="M44,4 L44,8 L37,8 L37,4 L13,4 L13,8 L6,8 L6,4 L0,4 L0,14 L50,14 L50,4 L44,4 L44,4 Z" id="subscriptions-Stroke-4450" stroke-linecap="round" stroke-linejoin="round" sketch:type="MSShapeGroup"/> <path d="M7,21 L16,21 L16,30 L7,30 L7,21 Z" id="subscriptions-Stroke-4452" stroke-linecap="round" sketch:type="MSShapeGroup"/> <path d="M7,30 L16,30 L16,39 L7,39 L7,30 Z" id="subscriptions-Stroke-4454" stroke-linecap="round" sketch:type="MSShapeGroup"/> <path d="M7,39 L16,39 L16,48 L7,48 L7,39 Z" id="subscriptions-Stroke-4456" stroke-linecap="round" sketch:type="MSShapeGroup"/> <path d="M16,21 L25,21 L25,30 L16,30 L16,21 Z" id="subscriptions-Stroke-4458" stroke-linecap="round" sketch:type="MSShapeGroup"/> <path d="M16,30 L25,30 L25,39 L16,39 L16,30 Z" id="subscriptions-Stroke-4460" stroke-linecap="round" sketch:type="MSShapeGroup"/> <path d="M16,39 L25,39 L25,48 L16,48 L16,39 Z" id="subscriptions-Stroke-4462" stroke-linecap="round" sketch:type="MSShapeGroup"/> <path d="M25,21 L34,21 L34,30 L25,30 L25,21 Z" id="subscriptions-Stroke-4464" stroke-linecap="round" sketch:type="MSShapeGroup"/> <path d="M34,21 L43,21 L43,30 L34,30 L34,21 Z" id="subscriptions-Stroke-4466" stroke-linecap="round" sketch:type="MSShapeGroup"/> <path d="M50,28 L50,4 L44,4 L44,8 L37,8 L37,4 L13,4 L13,8 L6,8 L6,4 L0,4 L0,55 L25,55" id="subscriptions-Stroke-4468" stroke-linecap="round" stroke-linejoin="round" sketch:type="MSShapeGroup"/> </g> </g> </symbol><symbol viewBox="0 0 60 60" id="icon-support"><title>support</title> <g> <path fill="#D8EAF9" d="M15.243,25.566L1.651,22.19v15.699l13.592-3.379V25.566z M44.875,34.51l13.592,3.378V22.189l-13.592,3.378
		V34.51z M37.632,58.632L34.234,45.12h-8.996L21.84,58.632H37.632z M21.84,1.444l3.398,13.512h8.996l3.398-13.512H21.84z"/> <ellipse fill="none" stroke="#3492D0" stroke-width="2.0703" stroke-linecap="round" stroke-linejoin="round" stroke-miterlimit="10" cx="29.938" cy="30.039" rx="28.966" ry="29.004"/> <ellipse fill-rule="evenodd" clip-rule="evenodd" fill="#FFFFFF" cx="29.938" cy="30.038" rx="15.062" ry="15.082"/> <ellipse fill="none" stroke="#3492D0" stroke-width="2.0703" stroke-linecap="round" stroke-linejoin="round" stroke-miterlimit="10" cx="29.938" cy="30.038" rx="15.062" ry="15.082"/> <path fill="none" stroke="#3492D0" stroke-width="2.0703" stroke-linecap="round" stroke-linejoin="round" stroke-miterlimit="10" d="
		M15.549,25.566L2.054,22.19 M2.054,37.889l13.495-3.379 M44.326,34.51l13.495,3.378 M57.821,22.189l-13.495,3.378 M25.472,44.446
		l-3.373,13.512 M37.777,57.958l-3.373-13.512 M34.404,15.631l3.373-13.512 M22.098,2.118l3.373,13.512"/> </g> <rect x="-0.062" y="-0.001" display="none" fill="none" width="60" height="60"/> </symbol><symbol viewBox="0 0 60 31" id="icon-unlimited-subscriptions"><title>188 - Infinity (Webby)</title><desc>Created with Sketch.</desc> <!-- Generator: Sketch 3.2.2 (9983) - http://www.bohemiancoding.com/sketch -->    <g id="unlimited-subscriptions-Page-1" stroke="none" stroke-width="1" fill="none" fill-rule="evenodd" sketch:type="MSPage"> <g id="unlimited-subscriptions-Icons" sketch:type="MSArtboardGroup" transform="translate(-360.000000, -2653.000000)" stroke="#0F81E0" stroke-width="2" stroke-linecap="round" stroke-linejoin="round"> <g id="unlimited-subscriptions-188---Infinity-(Webby)" sketch:type="MSLayerGroup" transform="translate(361.000000, 2654.000000)"> <path d="M29,14.5 C29,22.508 22.508,29 14.5,29 C6.492,29 0,22.508 0,14.5 C0,6.492 6.492,0 14.5,0 C17.483,0 20.256,0.901 22.562,2.446 C23.358,2.979 24.098,3.589 24.771,4.266" id="unlimited-subscriptions-Path" sketch:type="MSShapeGroup"/> <path d="M29,14.5 C29,6.492 35.492,0 43.5,0 C51.508,0 58,6.492 58,14.5 C58,22.508 51.508,29 43.5,29 C39.497,29 35.873,27.378 33.249,24.755" id="unlimited-subscriptions-Path" sketch:type="MSShapeGroup"/> </g> </g> </g> </symbol></svg>