<svg xmlns:sketch="http://www.bohemiancoding.com/sketch/ns" xmlns:dc="http://purl.org/dc/elements/1.1/" xmlns:cc="http://creativecommons.org/ns#" xmlns:rdf="http://www.w3.org/1999/02/22-rdf-syntax-ns#" xmlns:svg="http://www.w3.org/2000/svg" xmlns="http://www.w3.org/2000/svg" xmlns:sodipodi="http://sodipodi.sourceforge.net/DTD/sodipodi-0.dtd" xmlns:inkscape="http://www.inkscape.org/namespaces/inkscape"><symbol viewBox="0 0 32 32" id="icon-announcement"><title>announcement</title> <g id="announcement-Outline_Icons"> <path d="M1.516,12.851L1.516,19.149" style="fill:none;stroke:#fff;stroke-width:2px;"/> <path d="M30.484,4.035L30.484,27.965" style="fill:none;stroke:#fff;stroke-width:2px;"/> <path d="M30.484,26.706L1.516,17.889L1.516,14.111L30.484,5.294L30.484,26.706Z" style="fill:none;stroke:#fff;stroke-width:2px;"/> <path d="M16.63,23.067C16.63,25.5 14.657,27.475 12.222,27.475C9.786,27.475 7.813,25.5 7.813,23.067L7.813,19.778" style="fill:none;stroke:#fff;stroke-width:2px;"/> </g> </symbol><symbol viewBox="0 0 38 60" id="icon-demo"><title>71 - Generic Mouse (Webby)</title><desc>Created with Sketch.</desc>   <g id="demo-Page-1" sketch:type="MSPage"> <g id="demo-_x37_1---Generic-Mouse-_x28_Webby_x29_" transform="translate(1.000000, 0.000000)" sketch:type="MSLayerGroup"> <path id="demo-Fill-1090" sketch:type="MSShapeGroup" fill="#FFFFFF" stroke="#2A76D2" stroke-miterlimit="10" d="M2.916,31.656
			c0.837-2.99,1.17-6.089,1.065-9.193C3.817,17.602,2.261,12.091,3.253,8.23c0.442-3.093,2.886-5.515,5.983-5.928l0,0
			c7.03-1.773,13.554-1.702,19.528,0c3.097,0.413,5.541,2.835,5.983,5.928c1.484,5.776,1.684,11.808,0.584,17.67l-0.673,3.588
			C35.516,31.966,36,34.665,36,37.5C36,49.374,27.717,59,17.5,59S0,52.874,0,41C0,37.776,2.113,34.523,2.916,31.656L2.916,31.656z"/> <path id="demo-Stroke-1091" sketch:type="MSShapeGroup" fill="none" stroke="#2A76D2" stroke-width="2" stroke-linecap="round" stroke-linejoin="round" d="
			M2.916,31.656c0.837-2.99,1.17-6.089,1.065-9.193C3.817,17.602,2.261,12.091,3.253,8.23c0.442-3.093,2.886-5.515,5.983-5.928l0,0
			c7.03-1.773,13.554-1.702,19.528,0c3.097,0.413,5.541,2.835,5.983,5.928c1.484,5.776,1.684,11.808,0.584,17.67l-0.673,3.588
			C35.516,31.966,36,34.665,36,37.5C36,49.374,27.717,59,17.5,59S0,52.874,0,41C0,37.776,2.113,34.523,2.916,31.656L2.916,31.656z"/> <path id="demo-Fill-1092" sketch:type="MSShapeGroup" fill="#CFE0F4" stroke="#2A76D2" stroke-miterlimit="10" d="M35.331,25.9
			l-0.673,3.588C35.516,31.966,36,34.665,36,37.5c0,3.021-0.541,5.893-1.509,8.501c-11.699,3.957-1.552-14.807,0.929-20.655
			C35.388,25.53,35.366,25.716,35.331,25.9L35.331,25.9z"/> <path id="demo-Stroke-1093" sketch:type="MSShapeGroup" fill="none" stroke="#2A76D2" stroke-width="2" stroke-linecap="round" stroke-linejoin="round" d="
			M35.331,25.9l-0.673,3.588C35.516,31.966,36,34.665,36,37.5c0,3.021-0.541,5.893-1.509,8.501
			c-11.699,3.957-1.552-14.807,0.929-20.655C35.388,25.53,35.366,25.716,35.331,25.9L35.331,25.9z"/> <path id="demo-Fill-1094" sketch:type="MSShapeGroup" fill="#CFE0F4" stroke="#2A76D2" stroke-miterlimit="10" d="M0.027,40.644
			c0.145-3.107,2.116-6.226,2.889-8.988c0.837-2.99,1.17-6.089,1.065-9.193c-0.002-0.075-0.008-0.153-0.011-0.229
			C6.642,31.726,9.82,45.361,0.027,40.644L0.027,40.644z"/> <path id="demo-Stroke-1095" sketch:type="MSShapeGroup" fill="none" stroke="#2A76D2" stroke-width="2" stroke-linecap="round" stroke-linejoin="round" d="
			M0.027,40.644c0.145-3.107,2.116-6.226,2.889-8.988c0.837-2.99,1.17-6.089,1.065-9.193c-0.002-0.075-0.008-0.153-0.011-0.229
			C6.642,31.726,9.82,45.361,0.027,40.644L0.027,40.644z"/> <path id="demo-Fill-1096" sketch:type="MSShapeGroup" fill="#CFE0F4" stroke="#2A76D2" stroke-miterlimit="10" d="M19,21L19,21
			c1.1,0,2-0.9,2-2v-8c0-1.1-0.9-2-2-2c-1.1,0-2,0.9-2,2v8C17,20.1,17.9,21,19,21L19,21z"/> <path id="demo-Stroke-1097" sketch:type="MSShapeGroup" fill="none" stroke="#2A76D2" stroke-width="2" stroke-linecap="round" stroke-linejoin="round" d="
			M19,21L19,21c1.1,0,2-0.9,2-2v-8c0-1.1-0.9-2-2-2c-1.1,0-2,0.9-2,2v8C17,20.1,17.9,21,19,21L19,21z"/> <path id="demo-Fill-1098" sketch:type="MSShapeGroup" fill="#FFFFFF" stroke="#2A76D2" stroke-miterlimit="10" d="M19,9V1"/> <path id="demo-Stroke-1099" sketch:type="MSShapeGroup" fill="none" stroke="#2A76D2" stroke-width="2" stroke-linecap="round" stroke-linejoin="round" d="
			M19,9V1"/> <path id="demo-Stroke-1100" sketch:type="MSShapeGroup" fill="none" stroke="#2A76D2" stroke-width="2" stroke-linecap="round" stroke-linejoin="round" d="
			M19,21v6"/> <path id="demo-Fill-1101" sketch:type="MSShapeGroup" fill="#CFE0F4" stroke="#2A76D2" stroke-miterlimit="10" d="M14,44
			c0,2.209,1.791,4,4,4s4-1.791,4-4s-1.791-4-4-4S14,41.791,14,44L14,44z"/> <path id="demo-Stroke-1102" sketch:type="MSShapeGroup" fill="none" stroke="#2A76D2" stroke-width="2" stroke-linecap="round" stroke-linejoin="round" d="
			M14,44c0,2.209,1.791,4,4,4s4-1.791,4-4s-1.791-4-4-4S14,41.791,14,44L14,44z"/> </g> </g> </symbol><symbol viewBox="0 0 60 60" id="icon-detailed-referral-statistics"><title>detailed-referral-statistics</title> <path d="M3.931,47.379L12.621,38.69L18.414,46.414L25.172,31.931L30.966,39.655L41.586,23.241L47.379,30.966L58,14.552L58,56.069L3.931,56.069L3.931,47.379Z" style="fill:#cfe0f4;fill-rule:nonzero;stroke:#2a76d2;stroke-width:1.93px;"/> <circle cx="52.207" cy="26.138" r="0.966" style="fill:#2a76d2;"/> <circle cx="55.103" cy="23.241" r="0.966" style="fill:#2a76d2;"/> <circle cx="55.103" cy="29.034" r="0.966" style="fill:#2a76d2;"/> <circle cx="52.207" cy="31.931" r="0.966" style="fill:#2a76d2;"/> <circle cx="46.414" cy="31.931" r="0.966" style="fill:#2a76d2;"/> <circle cx="40.621" cy="31.931" r="0.966" style="fill:#2a76d2;"/> <circle cx="43.517" cy="29.034" r="0.966" style="fill:#2a76d2;"/> <circle cx="26.138" cy="40.621" r="0.966" style="fill:#2a76d2;"/> <circle cx="52.207" cy="37.724" r="0.966" style="fill:#2a76d2;"/> <circle cx="55.103" cy="34.828" r="0.966" style="fill:#2a76d2;"/> <circle cx="55.103" cy="40.621" r="0.966" style="fill:#2a76d2;"/> <circle cx="46.414" cy="37.724" r="0.966" style="fill:#2a76d2;"/> <circle cx="49.31" cy="34.828" r="0.966" style="fill:#2a76d2;"/> <circle cx="49.31" cy="40.621" r="0.966" style="fill:#2a76d2;"/> <circle cx="31.931" cy="40.621" r="0.966" style="fill:#2a76d2;"/> <circle cx="34.828" cy="37.724" r="0.966" style="fill:#2a76d2;"/> <circle cx="40.621" cy="37.724" r="0.966" style="fill:#2a76d2;"/> <circle cx="23.241" cy="43.517" r="0.966" style="fill:#2a76d2;"/> <circle cx="29.034" cy="43.517" r="0.966" style="fill:#2a76d2;"/> <circle cx="11.655" cy="43.517" r="0.966" style="fill:#2a76d2;"/> <circle cx="52.207" cy="43.517" r="0.966" style="fill:#2a76d2;"/> <circle cx="46.414" cy="43.517" r="0.966" style="fill:#2a76d2;"/> <circle cx="34.828" cy="43.517" r="0.966" style="fill:#2a76d2;"/> <circle cx="40.621" cy="43.517" r="0.966" style="fill:#2a76d2;"/> <circle cx="37.724" cy="34.828" r="0.966" style="fill:#2a76d2;"/> <circle cx="43.517" cy="34.828" r="0.966" style="fill:#2a76d2;"/> <circle cx="37.724" cy="40.621" r="0.966" style="fill:#2a76d2;"/> <circle cx="43.517" cy="40.621" r="0.966" style="fill:#2a76d2;"/> <circle cx="23.241" cy="49.31" r="0.966" style="fill:#2a76d2;"/> <circle cx="26.138" cy="46.414" r="0.966" style="fill:#2a76d2;"/> <circle cx="26.138" cy="52.207" r="0.966" style="fill:#2a76d2;"/> <circle cx="29.034" cy="49.31" r="0.966" style="fill:#2a76d2;"/> <circle cx="17.448" cy="49.31" r="0.966" style="fill:#2a76d2;"/> <circle cx="20.345" cy="46.414" r="0.966" style="fill:#2a76d2;"/> <circle cx="20.345" cy="52.207" r="0.966" style="fill:#2a76d2;"/> <circle cx="5.862" cy="49.31" r="0.966" style="fill:#2a76d2;"/> <circle cx="11.655" cy="49.31" r="0.966" style="fill:#2a76d2;"/> <circle cx="8.759" cy="46.414" r="0.966" style="fill:#2a76d2;"/> <circle cx="14.552" cy="46.414" r="0.966" style="fill:#2a76d2;"/> <circle cx="8.759" cy="52.207" r="0.966" style="fill:#2a76d2;"/> <circle cx="14.552" cy="52.207" r="0.966" style="fill:#2a76d2;"/> <circle cx="52.207" cy="49.31" r="0.966" style="fill:#2a76d2;"/> <circle cx="55.103" cy="46.414" r="0.966" style="fill:#2a76d2;"/> <circle cx="55.103" cy="52.207" r="0.966" style="fill:#2a76d2;"/> <circle cx="46.414" cy="49.31" r="0.966" style="fill:#2a76d2;"/> <circle cx="49.31" cy="46.414" r="0.966" style="fill:#2a76d2;"/> <circle cx="49.31" cy="52.207" r="0.966" style="fill:#2a76d2;"/> <circle cx="31.931" cy="46.414" r="0.966" style="fill:#2a76d2;"/> <circle cx="31.931" cy="52.207" r="0.966" style="fill:#2a76d2;"/> <circle cx="34.828" cy="49.31" r="0.966" style="fill:#2a76d2;"/> <circle cx="40.621" cy="49.31" r="0.966" style="fill:#2a76d2;"/> <circle cx="23.241" cy="55.103" r="0.966" style="fill:#2a76d2;"/> <circle cx="29.034" cy="55.103" r="0.966" style="fill:#2a76d2;"/> <circle cx="17.448" cy="55.103" r="0.966" style="fill:#2a76d2;"/> <circle cx="5.862" cy="55.103" r="0.966" style="fill:#2a76d2;"/> <circle cx="11.655" cy="55.103" r="0.966" style="fill:#2a76d2;"/> <circle cx="52.207" cy="55.103" r="0.966" style="fill:#2a76d2;"/> <circle cx="46.414" cy="55.103" r="0.966" style="fill:#2a76d2;"/> <circle cx="34.828" cy="55.103" r="0.966" style="fill:#2a76d2;"/> <circle cx="40.621" cy="55.103" r="0.966" style="fill:#2a76d2;"/> <circle cx="37.724" cy="46.414" r="0.966" style="fill:#2a76d2;"/> <circle cx="43.517" cy="46.414" r="0.966" style="fill:#2a76d2;"/> <circle cx="37.724" cy="52.207" r="0.966" style="fill:#2a76d2;"/> <circle cx="43.517" cy="52.207" r="0.966" style="fill:#2a76d2;"/> <path d="M3.931,2L3.931,58" style="fill:none;stroke:#2a76d2;stroke-width:1.93px;"/> <path d="M58,56.069L2,56.069" style="fill:none;stroke:#2a76d2;stroke-width:1.93px;"/> <path d="M7.793,28.069L9.724,28.069" style="fill:none;stroke:#2a76d2;stroke-width:1.93px;"/> <path d="M7.793,24.207L9.724,24.207" style="fill:none;stroke:#2a76d2;stroke-width:1.93px;"/> <path d="M7.793,20.345L9.724,20.345" style="fill:none;stroke:#2a76d2;stroke-width:1.93px;"/> <path d="M7.793,16.483L9.724,16.483" style="fill:none;stroke:#2a76d2;stroke-width:1.93px;"/> <path d="M7.793,12.621L9.724,12.621" style="fill:none;stroke:#2a76d2;stroke-width:1.93px;"/> <path d="M7.793,8.759L9.724,8.759" style="fill:none;stroke:#2a76d2;stroke-width:1.93px;"/> <path d="M7.793,4.897L9.724,4.897" style="fill:none;stroke:#2a76d2;stroke-width:1.93px;"/> </symbol><symbol viewBox="0 0 63.479 55.46" id="icon-discount"><title>discount</title> <g> <circle fill="#CFE0F4" stroke="#2A76D2" stroke-width="2" stroke-linecap="round" stroke-linejoin="round" stroke-miterlimit="10" cx="9.029" cy="46.468" r="8.019"/> <circle fill="#CFE0F4" stroke="#2A76D2" stroke-width="2" stroke-linecap="round" stroke-linejoin="round" stroke-miterlimit="10" cx="9.029" cy="9.046" r="8.019"/> <g> <g> <line fill="none" stroke="#2A76D2" stroke-width="2" stroke-linecap="round" stroke-linejoin="round" x1="27.74" y1="42.458" x2="29.077" y2="42.458"/> <line fill="none" stroke="#2A76D2" stroke-width="2" stroke-linecap="round" stroke-linejoin="round" stroke-dasharray="2.916,5.832" x1="34.909" y1="42.458" x2="58.236" y2="42.458"/> <line fill="none" stroke="#2A76D2" stroke-width="2" stroke-linecap="round" stroke-linejoin="round" x1="61.152" y1="42.458" x2="62.489" y2="42.458"/> </g> <path fill="#CFE0F4" d="M22.172,27.282c0,0,9.476-18.871,27.19-18.871c4.772,0,9.298,1.042,13.365,2.909L22.302,27.04"/> </g> <path fill="none" stroke="#2A76D2" stroke-width="2" stroke-linecap="round" stroke-linejoin="round" stroke-miterlimit="10" d="
		M28.86,37.112c-7.207-7.369-11.812-18.036-11.812-28.066"/> <path fill="none" stroke="#2A76D2" stroke-width="2" stroke-linecap="round" stroke-linejoin="round" stroke-miterlimit="10" d="
		M17.048,46.468c0-17.715,14.362-37.422,32.076-37.422c4.772,0,9.298,1.042,13.365,2.909L22.394,27.757l24.057,9.355"/> </g> </symbol><symbol viewBox="0 0 45 58" id="icon-export"><title>17 - CSV File (Webby)</title><desc>Created with Sketch.</desc>   <g id="export-Page-1" sketch:type="MSPage"> <g id="export-_x31_7---CSV-File-_x28_Webby_x29_" transform="translate(1.000000, 1.000000)" sketch:type="MSLayerGroup"> <path id="export-Fill-23" sketch:type="MSShapeGroup" fill="#FFFFFF" stroke="#2A76D2" stroke-miterlimit="10" d="M30.485,0H1.463
			C0.655,0,0,0.655,0,1.926V55c0,0.345,0.655,1,1.463,1h40.074C42.345,56,43,55.345,43,55V12.978c0-0.696-0.093-0.92-0.257-1.085
			L31.107,0.257C30.942,0.093,30.718,0,30.485,0L30.485,0z"/> <path id="export-Stroke-24" sketch:type="MSShapeGroup" fill="none" stroke="#2A76D2" stroke-width="2" d="M30.485,0H1.463
			C0.655,0,0,0.655,0,1.926V55c0,0.345,0.655,1,1.463,1h40.074C42.345,56,43,55.345,43,55V12.978c0-0.696-0.093-0.92-0.257-1.085
			L31.107,0.257C30.942,0.093,30.718,0,30.485,0L30.485,0z"/> <path id="export-Fill-361" sketch:type="MSShapeGroup" fill="#CFE0F4" stroke="#2A76D2" stroke-miterlimit="10" d="M41.537,56H1.463
			C0.655,56,0,55.345,0,54.537V39h43v15.537C43,55.345,42.345,56,41.537,56L41.537,56z"/> <path id="export-Stroke-362" sketch:type="MSShapeGroup" fill="none" stroke="#2A76D2" stroke-width="2" d="M41.537,56H1.463
			C0.655,56,0,55.345,0,54.537V39h43v15.537C43,55.345,42.345,56,41.537,56L41.537,56z"/> <path id="export-Fill-363" sketch:type="MSShapeGroup" fill="#CFE0F4" stroke="#2A76D2" stroke-miterlimit="10" d="M31,1.391V12h10.609
			c0.457,0,0.687-0.554,0.363-0.877L31.877,1.028C31.553,0.704,31,0.933,31,1.391L31,1.391z"/> <path id="export-Stroke-364" sketch:type="MSShapeGroup" fill="none" stroke="#2A76D2" stroke-width="2" d="M31,1.391V12h10.609
			c0.457,0,0.687-0.554,0.363-0.877L31.877,1.028C31.553,0.704,31,0.933,31,1.391L31,1.391z"/> <path id="export-Fill-365" sketch:type="MSShapeGroup" fill="#2A76D2" d="M15.08,51.975c-0.374,0.364-0.798,0.637-1.271,0.82
			c-0.475,0.182-0.985,0.273-1.532,0.273c-0.601,0-1.155-0.109-1.661-0.328c-0.506-0.218-0.948-0.542-1.326-0.971
			c-0.378-0.428-0.675-0.965-0.889-1.613c-0.214-0.647-0.321-1.394-0.321-2.242s0.107-1.593,0.321-2.235
			c0.214-0.643,0.511-1.178,0.889-1.607c0.378-0.428,0.822-0.754,1.333-0.977c0.51-0.224,1.062-0.335,1.654-0.335
			c0.547,0,1.057,0.091,1.532,0.273c0.473,0.183,0.897,0.456,1.271,0.821l-1.135,1.011c-0.228-0.264-0.481-0.456-0.759-0.574
			s-0.567-0.178-0.868-0.178c-0.337,0-0.658,0.064-0.964,0.192c-0.305,0.128-0.579,0.343-0.82,0.649
			c-0.241,0.306-0.431,0.699-0.567,1.183c-0.137,0.483-0.21,1.075-0.219,1.777c0.009,0.684,0.08,1.267,0.212,1.75
			c0.132,0.484,0.314,0.877,0.547,1.183c0.232,0.305,0.496,0.528,0.793,0.67c0.296,0.141,0.608,0.212,0.936,0.212
			s0.636-0.06,0.923-0.178c0.287-0.118,0.549-0.31,0.786-0.574L15.08,51.975"/> <path id="export-Fill-366" sketch:type="MSShapeGroup" fill="#2A76D2" d="M23.133,50.238c0,0.365-0.075,0.718-0.226,1.06
			c-0.15,0.342-0.362,0.642-0.636,0.902c-0.273,0.26-0.61,0.467-1.011,0.622c-0.402,0.155-0.857,0.233-1.367,0.233
			c-0.219,0-0.445-0.012-0.677-0.035c-0.233-0.022-0.468-0.061-0.704-0.116c-0.238-0.054-0.463-0.13-0.677-0.225
			c-0.214-0.096-0.399-0.212-0.554-0.349l0.287-1.176c0.128,0.073,0.289,0.144,0.486,0.212c0.195,0.069,0.398,0.132,0.608,0.192
			c0.21,0.059,0.419,0.107,0.629,0.143c0.209,0.036,0.405,0.055,0.588,0.055c0.556,0,0.982-0.13,1.278-0.39
			c0.296-0.26,0.445-0.644,0.445-1.155c0-0.31-0.105-0.574-0.315-0.793c-0.21-0.219-0.472-0.417-0.786-0.595
			c-0.315-0.177-0.654-0.355-1.019-0.533c-0.364-0.178-0.706-0.388-1.025-0.629s-0.584-0.526-0.793-0.854
			c-0.21-0.328-0.314-0.739-0.314-1.231c0-0.446,0.082-0.843,0.246-1.189c0.164-0.347,0.384-0.641,0.663-0.882
			c0.278-0.241,0.601-0.426,0.97-0.554c0.37-0.128,0.759-0.191,1.169-0.191c0.419,0,0.843,0.039,1.272,0.116
			c0.428,0.077,0.774,0.203,1.039,0.376c-0.055,0.118-0.119,0.248-0.191,0.39c-0.074,0.141-0.142,0.273-0.206,0.396
			c-0.064,0.123-0.118,0.226-0.164,0.308c-0.046,0.082-0.073,0.128-0.082,0.136c-0.054-0.027-0.116-0.063-0.184-0.109
			c-0.068-0.046-0.167-0.091-0.294-0.137c-0.128-0.046-0.296-0.077-0.506-0.095c-0.21-0.019-0.479-0.014-0.807,0.013
			c-0.182,0.019-0.355,0.071-0.519,0.158c-0.164,0.086-0.31,0.193-0.438,0.321c-0.128,0.128-0.228,0.271-0.3,0.43
			c-0.074,0.16-0.11,0.313-0.11,0.458c0,0.365,0.105,0.659,0.315,0.882c0.209,0.224,0.469,0.419,0.779,0.588
			c0.309,0.169,0.647,0.333,1.012,0.492c0.364,0.16,0.704,0.354,1.018,0.582c0.315,0.227,0.576,0.512,0.786,0.854
			C23.028,49.261,23.133,49.7,23.133,50.238"/> <path id="export-Fill-367" sketch:type="MSShapeGroup" fill="#2A76D2" d="M27.535,53.055l-3.131-10.131h1.873l2.338,8.695l2.475-8.695
			h1.859l-3.281,10.131H27.535"/> <path id="export-Fill-368" sketch:type="MSShapeGroup" fill="#CFE0F4" stroke="#2A76D2" stroke-miterlimit="10" d="M6,17h10v4H6V17z"/> <path id="export-Stroke-369" sketch:type="MSShapeGroup" fill="none" stroke="#2A76D2" stroke-width="2" d="M6,17h10v4H6V17z"/> <path id="export-Fill-370" sketch:type="MSShapeGroup" fill="#CFE0F4" stroke="#2A76D2" stroke-miterlimit="10" d="M6,13h10v4H6V13z"/> <path id="export-Stroke-371" sketch:type="MSShapeGroup" fill="none" stroke="#2A76D2" stroke-width="2" d="M6,13h10v4H6V13z"/> <path id="export-Fill-372" sketch:type="MSShapeGroup" fill="#CFE0F4" stroke="#2A76D2" stroke-miterlimit="10" d="M16,17h21v4H16V17z"/> <path id="export-Stroke-373" sketch:type="MSShapeGroup" fill="none" stroke="#2A76D2" stroke-width="2" d="M16,17h21v4H16V17z"/> <path id="export-Fill-374" sketch:type="MSShapeGroup" fill="#CFE0F4" stroke="#2A76D2" stroke-miterlimit="10" d="M6,21h10v4H6V21z"/> <path id="export-Stroke-375" sketch:type="MSShapeGroup" fill="none" stroke="#2A76D2" stroke-width="2" d="M6,21h10v4H6V21z"/> <path id="export-Fill-376" sketch:type="MSShapeGroup" fill="#CFE0F4" stroke="#2A76D2" stroke-miterlimit="10" d="M16,21h21v4H16V21z"/> <path id="export-Stroke-377" sketch:type="MSShapeGroup" fill="none" stroke="#2A76D2" stroke-width="2" d="M16,21h21v4H16V21z"/> <path id="export-Fill-378" sketch:type="MSShapeGroup" fill="#CFE0F4" stroke="#2A76D2" stroke-miterlimit="10" d="M6,25h10v4H6V25z"/> <path id="export-Stroke-379" sketch:type="MSShapeGroup" fill="none" stroke="#2A76D2" stroke-width="2" d="M6,25h10v4H6V25z"/> <path id="export-Fill-380" sketch:type="MSShapeGroup" fill="#CFE0F4" stroke="#2A76D2" stroke-miterlimit="10" d="M16,25h21v4H16V25z"/> <path id="export-Stroke-381" sketch:type="MSShapeGroup" fill="none" stroke="#2A76D2" stroke-width="2" d="M16,25h21v4H16V25z"/> <path id="export-Fill-382" sketch:type="MSShapeGroup" fill="#CFE0F4" stroke="#2A76D2" stroke-miterlimit="10" d="M6,29h10v4H6V29z"/> <path id="export-Stroke-383" sketch:type="MSShapeGroup" fill="none" stroke="#2A76D2" stroke-width="2" d="M6,29h10v4H6V29z"/> <path id="export-Fill-384" sketch:type="MSShapeGroup" fill="#CFE0F4" stroke="#2A76D2" stroke-miterlimit="10" d="M16,29h21v4H16V29z"/> <path id="export-Stroke-385" sketch:type="MSShapeGroup" fill="none" stroke="#2A76D2" stroke-width="2" d="M16,29h21v4H16V29z"/> </g> </g> </symbol><symbol viewBox="0 0 16.5 16.484" id="icon-external"><title>external</title> <g> <polyline fill="none" stroke="#FFFFFF" stroke-width="1.5" stroke-linecap="round" stroke-linejoin="round" stroke-miterlimit="10" points="
		6.75,3.734 0.75,3.734 0.75,15.734 12.75,15.734 12.75,9.766 	"/> <line fill="none" stroke="#FFFFFF" stroke-width="1.5" stroke-linecap="round" stroke-linejoin="round" stroke-miterlimit="10" x1="3.75" y1="12.75" x2="15.75" y2="0.75"/> <polyline fill="none" stroke="#FFFFFF" stroke-width="1.5" stroke-linecap="round" stroke-linejoin="round" stroke-miterlimit="10" points="
		9.75,0.75 15.75,0.75 15.75,6.75 	"/> </g> </symbol><symbol viewBox="0 0 58 58" id="icon-help"><title>109 - Help (Webby)</title><desc>Created with Sketch.</desc> <!-- Generator: Sketch 3.2.2 (9983) - http://www.bohemiancoding.com/sketch -->    <g id="help-Page-1" stroke="none" stroke-width="1" fill="none" fill-rule="evenodd" sketch:type="MSPage"> <g id="help-Icons" sketch:type="MSArtboardGroup" transform="translate(-241.000000, -3598.000000)"> <g id="help-109---Help-(Webby)" sketch:type="MSLayerGroup" transform="translate(242.000000, 3599.000000)"> <path d="M56,28 C56,43.464 43.464,56 28,56 C12.536,56 0,43.464 0,28 C0,12.536 12.536,0 28,0 C43.464,0 56,12.536 56,28 L56,28 Z" id="help-Fill-107" fill="#FFFFFF" sketch:type="MSShapeGroup"/> <path d="M56,28 C56,43.464 43.464,56 28,56 C12.536,56 0,43.464 0,28 C0,12.536 12.536,0 28,0 C43.464,0 56,12.536 56,28 L56,28 Z" id="help-Stroke-108" stroke="#0096E6" stroke-width="2" stroke-linecap="round" stroke-linejoin="round" sketch:type="MSShapeGroup"/> <path d="M13.44,28 C13.44,19.959 19.959,13.44 28,13.44 C36.041,13.44 42.56,19.959 42.56,28 C42.56,36.041 36.041,42.56 28,42.56 C19.959,42.56 13.44,36.041 13.44,28 L13.44,28 Z" id="help-Fill-109" fill="#FFFFFF" sketch:type="MSShapeGroup"/> <path d="M13.44,28 C13.44,19.959 19.959,13.44 28,13.44 C36.041,13.44 42.56,19.959 42.56,28 C42.56,36.041 36.041,42.56 28,42.56 C19.959,42.56 13.44,36.041 13.44,28 L13.44,28 Z" id="help-Stroke-110" stroke="#0096E6" stroke-width="2" stroke-linecap="round" stroke-linejoin="round" sketch:type="MSShapeGroup"/> <path d="M20.422,1.046 L23.683,14.091 M32.317,14.091 L35.578,1.046 M35.578,54.953 L32.317,41.909 M23.683,41.909 L20.422,54.953 M54.954,20.422 L41.909,23.683 M41.909,32.317 L54.954,35.578 M1.046,35.578 L14.091,32.317 M14.091,23.683 L1.046,20.422" id="help-Stroke-111" stroke="#0096E6" stroke-width="2" stroke-linecap="round" stroke-linejoin="round" sketch:type="MSShapeGroup"/> <path d="M17.147,2.19 C17.3,2.125 17.455,2.062 17.609,2 L17.109,2" id="help-Stroke-112" stroke="#0096E6" stroke-width="2" stroke-linecap="round" stroke-linejoin="round" sketch:type="MSShapeGroup"/> <path d="M13.201,2 L6.37,2 C3.956,2 2,3.956 2,6.37 L2,15.155" id="help-Stroke-113" stroke="#0096E6" stroke-width="2" stroke-linecap="round" stroke-linejoin="round" stroke-dasharray="0.977,3.908" sketch:type="MSShapeGroup"/> <path d="M2,17.109 L2,17.609 C2.062,17.454 2.125,17.3 2.19,17.147" id="help-Stroke-114" stroke="#0096E6" stroke-width="2" stroke-linecap="round" stroke-linejoin="round" sketch:type="MSShapeGroup"/> <path d="M3.804,13.916 C6.545,9.216 10.616,5.388 15.502,2.946" id="help-Stroke-115" stroke="#0096E6" stroke-width="2" stroke-linecap="round" stroke-linejoin="round" stroke-dasharray="0.903,3.613" sketch:type="MSShapeGroup"/> <path d="M53.81,17.147 C53.875,17.3 53.938,17.454 54,17.609 L54,17.109" id="help-Stroke-116" stroke="#0096E6" stroke-width="2" stroke-linecap="round" stroke-linejoin="round" sketch:type="MSShapeGroup"/> <path d="M54,13.201 L54,6.37 C54,3.956 52.044,2 49.63,2 L40.845,2" id="help-Stroke-117" stroke="#0096E6" stroke-width="2" stroke-linecap="round" stroke-linejoin="round" stroke-dasharray="0.977,3.908" sketch:type="MSShapeGroup"/> <path d="M38.891,2 L38.391,2 C38.546,2.062 38.7,2.125 38.853,2.19" id="help-Stroke-118" stroke="#0096E6" stroke-width="2" stroke-linecap="round" stroke-linejoin="round" sketch:type="MSShapeGroup"/> <path d="M42.084,3.804 C46.784,6.545 50.612,10.616 53.054,15.502" id="help-Stroke-119" stroke="#0096E6" stroke-width="2" stroke-linecap="round" stroke-linejoin="round" stroke-dasharray="0.903,3.613" sketch:type="MSShapeGroup"/> <path d="M38.853,53.81 C38.7,53.875 38.546,53.938 38.391,54 L38.891,54" id="help-Stroke-120" stroke="#0096E6" stroke-width="2" stroke-linecap="round" stroke-linejoin="round" sketch:type="MSShapeGroup"/> <path d="M42.799,54 L49.63,54 C52.044,54 54,52.044 54,49.63 L54,40.845" id="help-Stroke-121" stroke="#0096E6" stroke-width="2" stroke-linecap="round" stroke-linejoin="round" stroke-dasharray="0.977,3.908" sketch:type="MSShapeGroup"/> <path d="M54,38.89 L54,38.391 C53.938,38.545 53.875,38.7 53.81,38.853" id="help-Stroke-122" stroke="#0096E6" stroke-width="2" stroke-linecap="round" stroke-linejoin="round" sketch:type="MSShapeGroup"/> <path d="M52.196,42.084 C49.455,46.784 45.384,50.612 40.498,53.054" id="help-Stroke-123" stroke="#0096E6" stroke-width="2" stroke-linecap="round" stroke-linejoin="round" stroke-dasharray="0.903,3.613" sketch:type="MSShapeGroup"/> <path d="M2.19,38.853 C2.125,38.7 2.062,38.545 2,38.391 L2,38.89" id="help-Stroke-124" stroke="#0096E6" stroke-width="2" stroke-linecap="round" stroke-linejoin="round" sketch:type="MSShapeGroup"/> <path d="M2,42.798 L2,49.63 C2,52.044 3.956,54 6.37,54 L15.155,54" id="help-Stroke-125" stroke="#0096E6" stroke-width="2" stroke-linecap="round" stroke-linejoin="round" stroke-dasharray="0.977,3.908" sketch:type="MSShapeGroup"/> <path d="M17.109,54 L17.609,54 C17.455,53.938 17.3,53.875 17.147,53.81" id="help-Stroke-126" stroke="#0096E6" stroke-width="2" stroke-linecap="round" stroke-linejoin="round" sketch:type="MSShapeGroup"/> <path d="M13.916,52.196 C9.216,49.455 5.388,45.384 2.946,40.498" id="help-Stroke-127" stroke="#0096E6" stroke-width="2" stroke-linecap="round" stroke-linejoin="round" stroke-dasharray="0.903,3.613" sketch:type="MSShapeGroup"/> </g> </g> </g> </symbol><symbol viewBox="0 0 60 60" id="icon-high-quality-banners"><title>high-quality-banners</title> <g id="high-quality-banners-_73---Picture-Content--Webby-"> <rect id="high-quality-banners-Fill-141" x="1" y="1" width="58" height="58" style="fill:#fff;"/> <rect id="high-quality-banners-Stroke-142" x="1" y="1" width="58" height="58" style="fill:none;stroke:#2a76d2;stroke-width:2px;"/> <path id="high-quality-banners-Fill-1483" d="M21,28.069C21,30.592 18.954,32.638 16.431,32.638C13.908,32.638 11.862,30.592 11.862,28.069C11.862,25.546 13.908,23.5 16.431,23.5C18.954,23.5 21,25.546 21,28.069Z" style="fill:#cfe0f4;"/> <path id="high-quality-banners-Stroke-1484" d="M21,28.069C21,30.592 18.954,32.638 16.431,32.638C13.908,32.638 11.862,30.592 11.862,28.069C11.862,25.546 13.908,23.5 16.431,23.5C18.954,23.5 21,25.546 21,28.069Z" style="fill:none;stroke:#2a76d2;stroke-width:2px;"/> <path id="high-quality-banners-Fill-1804" d="M6,50L6,54L54,54L54,43L39,30L29,41L23,36L6,50" style="fill:#cfe0f4;"/> <path id="high-quality-banners-Stroke-1858" d="M6,50.5L23.017,35.517L33.983,46.483M28.5,41L39,29.5L54,44" style="fill:none;stroke:#2a76d2;stroke-width:2px;stroke-linecap:round;stroke-linejoin:round;"/> <rect id="high-quality-banners-Stroke-1859" x="6" y="18" width="48" height="36" style="fill:none;stroke:#2a76d2;stroke-width:2px;"/> <rect id="high-quality-banners-Fill-1860" x="1" y="1" width="58" height="12" style="fill:#cfe0f4;"/> <rect id="high-quality-banners-Stroke-1861" x="1" y="1" width="58" height="12" style="fill:none;stroke:#2a76d2;stroke-width:2px;"/> <path id="high-quality-banners-Fill-1862" d="M10,7C10,8.657 8.657,10 7,10C5.343,10 4,8.657 4,7C4,5.343 5.343,4 7,4C8.657,4 10,5.343 10,7Z" style="fill:#fff;"/> <path id="high-quality-banners-Stroke-1863" d="M10,7C10,8.657 8.657,10 7,10C5.343,10 4,8.657 4,7C4,5.343 5.343,4 7,4C8.657,4 10,5.343 10,7Z" style="fill:none;stroke:#2a76d2;stroke-width:2px;"/> <path id="high-quality-banners-Fill-1864" d="M19,7C19,8.657 17.657,10 16,10C14.343,10 13,8.657 13,7C13,5.343 14.343,4 16,4C17.657,4 19,5.343 19,7Z" style="fill:#fff;"/> <path id="high-quality-banners-Stroke-1865" d="M19,7C19,8.657 17.657,10 16,10C14.343,10 13,8.657 13,7C13,5.343 14.343,4 16,4C17.657,4 19,5.343 19,7Z" style="fill:none;stroke:#2a76d2;stroke-width:2px;"/> <path id="high-quality-banners-Fill-1866" d="M28,7C28,8.657 26.657,10 25,10C23.343,10 22,8.657 22,7C22,5.343 23.343,4 25,4C26.657,4 28,5.343 28,7Z" style="fill:#fff;"/> <path id="high-quality-banners-Stroke-1867" d="M28,7C28,8.657 26.657,10 25,10C23.343,10 22,8.657 22,7C22,5.343 23.343,4 25,4C26.657,4 28,5.343 28,7Z" style="fill:none;stroke:#2a76d2;stroke-width:2px;"/> </g> </symbol><symbol viewBox="0 0 60 44" id="icon-integrations"><title>143 - Credit Card (Webby)</title><desc>Created with Sketch.</desc>   <g id="integrations-Page-1" sketch:type="MSPage"> <g id="integrations-_x31_43---Credit-Card-_x28_Webby_x29_" transform="translate(1.000000, 1.000000)" sketch:type="MSLayerGroup"> <path id="integrations-Fill-5" sketch:type="MSShapeGroup" fill="#FFFFFF" stroke="#2A76D2" stroke-miterlimit="10" d="M54.783,42H3.217
			C1.44,42,0,40.56,0,38.783V3.217C0,1.44,1.44,0,3.217,0h51.566C56.56,0,58,1.44,58,3.217v35.566C58,40.56,56.56,42,54.783,42
			L54.783,42z"/> <path id="integrations-Stroke-6" sketch:type="MSShapeGroup" fill="none" stroke="#2A76D2" stroke-width="2" d="M54.783,42H3.217
			C1.44,42,0,40.56,0,38.783V3.217C0,1.44,1.44,0,3.217,0h51.566C56.56,0,58,1.44,58,3.217v35.566C58,40.56,56.56,42,54.783,42
			L54.783,42z"/> <path id="integrations-Fill-323" sketch:type="MSShapeGroup" fill="#CFE0F4" stroke="#2A76D2" stroke-miterlimit="10" d="M46,12
			c0,3.314-2.686,6-6,6s-6-2.686-6-6s2.686-6,6-6S46,8.686,46,12L46,12z"/> <path id="integrations-Stroke-324" sketch:type="MSShapeGroup" fill="none" stroke="#2A76D2" stroke-width="2" stroke-linecap="round" d="
			M46,12c0,3.314-2.686,6-6,6s-6-2.686-6-6s2.686-6,6-6S46,8.686,46,12L46,12z"/> <path id="integrations-Fill-325" sketch:type="MSShapeGroup" fill="#CFE0F4" stroke="#2A76D2" stroke-miterlimit="10" d="M53,12
			c0,3.314-2.686,6-6,6s-6-2.686-6-6s2.686-6,6-6S53,8.686,53,12L53,12z"/> <path id="integrations-Stroke-326" sketch:type="MSShapeGroup" fill="none" stroke="#2A76D2" stroke-width="2" stroke-linecap="round" d="
			M53,12c0,3.314-2.686,6-6,6s-6-2.686-6-6s2.686-6,6-6S53,8.686,53,12L53,12z"/> <path id="integrations-Stroke-375" sketch:type="MSShapeGroup" fill="none" stroke="#2A76D2" stroke-width="2" stroke-linecap="round" d="M5,8
			h9 M18,8h9 M5,13h1 M10,13h2 M16,13h1 M21,13h2"/> <path id="integrations-Fill-376" sketch:type="MSShapeGroup" fill="#CFE0F4" stroke="#2A76D2" stroke-miterlimit="10" d="M5,29h9v6H5V29z"/> <path id="integrations-Stroke-377" sketch:type="MSShapeGroup" fill="none" stroke="#2A76D2" stroke-width="2" d="M5,29h9v6H5V29z"/> <path id="integrations-Fill-378" sketch:type="MSShapeGroup" fill="#CFE0F4" stroke="#2A76D2" stroke-miterlimit="10" d="M18,29h9v6h-9V29z"/> <path id="integrations-Stroke-379" sketch:type="MSShapeGroup" fill="none" stroke="#2A76D2" stroke-width="2" d="M18,29h9v6h-9V29z"/> <path id="integrations-Fill-380" sketch:type="MSShapeGroup" fill="#CFE0F4" stroke="#2A76D2" stroke-miterlimit="10" d="M31,29h9v6h-9V29z"/> <path id="integrations-Stroke-381" sketch:type="MSShapeGroup" fill="none" stroke="#2A76D2" stroke-width="2" d="M31,29h9v6h-9V29z"/> <path id="integrations-Fill-382" sketch:type="MSShapeGroup" fill="#CFE0F4" stroke="#2A76D2" stroke-miterlimit="10" d="M44,29h9v6h-9V29z"/> <path id="integrations-Stroke-383" sketch:type="MSShapeGroup" fill="none" stroke="#2A76D2" stroke-width="2" d="M44,29h9v6h-9V29z"/> </g> </g> </symbol><symbol viewBox="0 0 60 57" id="icon-member-emails"><title>8 - Mail Contents (Webby)</title><desc>Created with Sketch.</desc>   <g id="member-emails-Page-1" sketch:type="MSPage"> <g id="member-emails-_x38_---Mail-Contents-_x28_Webby_x29_" transform="translate(1.000000, 1.000000)" sketch:type="MSLayerGroup"> <path id="member-emails-Fill-25" sketch:type="MSShapeGroup" fill="#FFFFFF" stroke="#2A76D2" stroke-miterlimit="10" d="M0,55h58V14H0V55z"/> <path id="member-emails-Stroke-26" sketch:type="MSShapeGroup" fill="none" stroke="#2A76D2" stroke-width="2" stroke-linecap="round" d="M0,55
			h58V14H0V55z"/> <path id="member-emails-Fill-27" sketch:type="MSShapeGroup" fill="#FFFFFF" stroke="#2A76D2" stroke-miterlimit="10" d="M58,53.709V15.291
			c0-0.529-0.606-0.829-1.027-0.508L37,35l19.973,19.218C57.394,54.538,58,54.238,58,53.709L58,53.709z"/> <path id="member-emails-Stroke-28" sketch:type="MSShapeGroup" fill="none" stroke="#2A76D2" stroke-width="2" stroke-linecap="round" d="
			M58,53.709V15.291c0-0.529-0.606-0.829-1.027-0.508L37,35l19.973,19.218C57.394,54.538,58,54.238,58,53.709L58,53.709z"/> <path id="member-emails-Fill-43" sketch:type="MSShapeGroup" fill="#FFFFFF" stroke="#2A76D2" stroke-miterlimit="10" d="M0,14.001
			l27.139,27.267c1.048,0.976,2.674,0.976,3.723,0L58,14"/> <path id="member-emails-Stroke-44" sketch:type="MSShapeGroup" fill="none" stroke="#2A76D2" stroke-width="2" stroke-linecap="round" d="
			M0,14.001l27.139,27.267c1.048,0.976,2.674,0.976,3.723,0L58,14"/> <path id="member-emails-Fill-45" sketch:type="MSShapeGroup" fill="#FFFFFF" stroke="#2A76D2" stroke-miterlimit="10" d="M0,53.709V15.291
			c0-0.529,0.606-0.829,1.027-0.508L21,35L1.027,54.218C0.606,54.538,0,54.238,0,53.709L0,53.709z"/> <path id="member-emails-Stroke-46" sketch:type="MSShapeGroup" fill="none" stroke="#2A76D2" stroke-width="2" stroke-linecap="round" d="
			M0,53.709V15.291c0-0.529,0.606-0.829,1.027-0.508L21,35L1.027,54.218C0.606,54.538,0,54.238,0,53.709L0,53.709z"/> <path id="member-emails-Fill-123" sketch:type="MSShapeGroup" fill="#CFE0F4" stroke="#2A76D2" stroke-miterlimit="10" d="M56.672,14
			L53.051,0.486l-0.027-0.101L3.18,13.741C3.031,13.781,3.06,14,3.214,14H56.672L56.672,14z"/> <path id="member-emails-Stroke-124" sketch:type="MSShapeGroup" fill="none" stroke="#2A76D2" stroke-width="2" stroke-linecap="round" d="
			M56.672,14L53.051,0.486l-0.027-0.101L3.18,13.741C3.031,13.781,3.06,14,3.214,14H56.672L56.672,14z"/> <path id="member-emails-Fill-125" sketch:type="MSShapeGroup" fill="#FFFFFF" stroke="#2A76D2" stroke-miterlimit="10" d="M49.425,14
			l-1.351-5.041l-7.727,2.07L41.143,14H49.425L49.425,14z"/> <path id="member-emails-Stroke-126" sketch:type="MSShapeGroup" fill="none" stroke="#2A76D2" stroke-width="2" stroke-linecap="round" d="
			M49.425,14l-1.351-5.041l-7.727,2.07L41.143,14H49.425L49.425,14z"/> <path id="member-emails-Fill-127" sketch:type="MSShapeGroup" fill="#CFE0F4" stroke="#2A76D2" stroke-miterlimit="10" d="M3.18,13.741L32.07,6
			H3v8h0.214C3.06,14,3.031,13.781,3.18,13.741L3.18,13.741z"/> <path id="member-emails-Stroke-128" sketch:type="MSShapeGroup" fill="none" stroke="#2A76D2" stroke-width="2" stroke-linecap="round" d="
			M3.18,13.741L32.07,6H3v8h0.214C3.06,14,3.031,13.781,3.18,13.741L3.18,13.741z"/> </g> </g> </symbol><symbol viewBox="0 0 60 60" id="icon-member-management"><title>65 - Profile (Webby)</title><desc>Created with Sketch.</desc>   <g id="member-management-Page-1" sketch:type="MSPage"> <g id="member-management-_x36_5---Profile-_x28_Webby_x29_" transform="translate(1.000000, 1.000000)" sketch:type="MSLayerGroup"> <path id="member-management-Fill-1559" sketch:type="MSShapeGroup" fill="#FFFFFF" stroke="#2A76D2" stroke-miterlimit="10" d="M0,0h58v58H0V0z"/> <path id="member-management-Stroke-1560" sketch:type="MSShapeGroup" fill="none" stroke="#2A76D2" stroke-width="2" d="M0,0h58v58H0V0z"/> <path id="member-management-Fill-1561" sketch:type="MSShapeGroup" fill="#CFE0F4" stroke="#2A76D2" stroke-miterlimit="10" d="M0,0h58v12H0V0z"/> <path id="member-management-Stroke-1562" sketch:type="MSShapeGroup" fill="none" stroke="#2A76D2" stroke-width="2" d="M0,0h58v12H0V0z"/> <path id="member-management-Stroke-1563" sketch:type="MSShapeGroup" fill="none" stroke="#2A76D2" stroke-width="2" stroke-linecap="round" d="
			M35,46H22 M40,50H17"/> <path id="member-management-Fill-1564" sketch:type="MSShapeGroup" fill="#FFFFFF" stroke="#2A76D2" stroke-miterlimit="10" d="M9,6
			c0,1.657-1.343,3-3,3S3,7.657,3,6s1.343-3,3-3S9,4.343,9,6L9,6z"/> <path id="member-management-Stroke-1565" sketch:type="MSShapeGroup" fill="none" stroke="#2A76D2" stroke-width="2" d="M9,6c0,1.657-1.343,3-3,3
			S3,7.657,3,6s1.343-3,3-3S9,4.343,9,6L9,6z"/> <path id="member-management-Fill-1566" sketch:type="MSShapeGroup" fill="#FFFFFF" stroke="#2A76D2" stroke-miterlimit="10" d="M18,6
			c0,1.657-1.343,3-3,3s-3-1.343-3-3s1.343-3,3-3S18,4.343,18,6L18,6z"/> <path id="member-management-Stroke-1567" sketch:type="MSShapeGroup" fill="none" stroke="#2A76D2" stroke-width="2" d="M18,6c0,1.657-1.343,3-3,3
			s-3-1.343-3-3s1.343-3,3-3S18,4.343,18,6L18,6z"/> <path id="member-management-Fill-1568" sketch:type="MSShapeGroup" fill="#FFFFFF" stroke="#2A76D2" stroke-miterlimit="10" d="M27,6
			c0,1.657-1.343,3-3,3c-1.657,0-3-1.343-3-3s1.343-3,3-3C25.657,3,27,4.343,27,6L27,6z"/> <path id="member-management-Stroke-1569" sketch:type="MSShapeGroup" fill="none" stroke="#2A76D2" stroke-width="2" d="M27,6c0,1.657-1.343,3-3,3
			c-1.657,0-3-1.343-3-3s1.343-3,3-3C25.657,3,27,4.343,27,6L27,6z"/> <path id="member-management-Fill-1570" sketch:type="MSShapeGroup" fill="#FFFFFF" stroke="#2A76D2" stroke-miterlimit="10" d="M41,29
			c0,6.627-5.373,12-12,12s-12-5.373-12-12s5.373-12,12-12S41,22.373,41,29L41,29z"/> <path id="member-management-Stroke-1571" sketch:type="MSShapeGroup" fill="none" stroke="#2A76D2" stroke-width="2" d="M41,29
			c0,6.627-5.373,12-12,12s-12-5.373-12-12s5.373-12,12-12S41,22.373,41,29L41,29z"/> <path id="member-management-Fill-1572" sketch:type="MSShapeGroup" fill="#CFE0F4" stroke="#2A76D2" stroke-miterlimit="10" d="M31.932,36.567
			c-0.447-0.223-0.73-0.681-0.73-1.181v-1.358c0.098-0.11,0.209-0.253,0.328-0.421c0.472-0.666,0.828-1.399,1.076-2.168
			c0.443-0.137,0.771-0.547,0.771-1.034v-1.45c0-0.319-0.142-0.604-0.363-0.803v-2.095c0,0,0.431-3.262-3.986-3.262
			c-4.416,0-3.986,3.262-3.986,3.262v2.095c-0.22,0.199-0.362,0.484-0.362,0.803v1.45c0,0.382,0.201,0.718,0.501,0.912
			c0.362,1.577,1.311,2.711,1.311,2.711v1.325c0,0.483-0.264,0.927-0.688,1.159l-3.233,1.763c-0.221,0.121-0.418,0.271-0.597,0.439
			C23.951,40.146,26.373,41,29,41c2.623,0,5.041-0.851,7.016-2.278c-0.187-0.165-0.394-0.31-0.623-0.424L31.932,36.567
			L31.932,36.567z"/> <path id="member-management-Stroke-1573" sketch:type="MSShapeGroup" fill="none" stroke="#2A76D2" stroke-width="2" d="M31.932,36.567
			c-0.447-0.223-0.73-0.681-0.73-1.181v-1.358c0.098-0.11,0.209-0.253,0.328-0.421c0.472-0.666,0.828-1.399,1.076-2.168
			c0.443-0.137,0.771-0.547,0.771-1.034v-1.45c0-0.319-0.142-0.604-0.363-0.803v-2.095c0,0,0.431-3.262-3.986-3.262
			c-4.416,0-3.986,3.262-3.986,3.262v2.095c-0.22,0.199-0.362,0.484-0.362,0.803v1.45c0,0.382,0.201,0.718,0.501,0.912
			c0.362,1.577,1.311,2.711,1.311,2.711v1.325c0,0.483-0.264,0.927-0.688,1.159l-3.233,1.763c-0.221,0.121-0.418,0.271-0.597,0.439
			C23.951,40.146,26.373,41,29,41c2.623,0,5.041-0.851,7.016-2.278c-0.187-0.165-0.394-0.31-0.623-0.424L31.932,36.567
			L31.932,36.567z"/> </g> </g> </symbol><symbol viewBox="0 0 60 60" id="icon-refer-and-earn"><title>refer-and-earn</title> <g id="refer-and-earn-money"> <g id="refer-and-earn-money-bag"> <path d="M22.681,2.74C20.617,1.069 18.062,1.265 15.998,1.953C14.623,2.445 14.328,4.214 15.409,5.196C16.588,6.179 18.259,9.029 18.652,10.012C18.947,10.798 19.635,11.29 20.421,11.29L27.792,11.29C28.578,11.29 29.266,10.798 29.561,10.012C29.954,9.029 31.231,6.179 32.411,5.196C33.59,4.214 33.295,2.445 31.821,1.953C29.757,1.265 27.3,1.069 25.138,2.74C24.352,3.329 23.369,3.329 22.681,2.74Z" style="fill:#fff;fill-rule:nonzero;stroke:#2a76d2;stroke-width:1.97px;"/> <path d="M18.75,17.186L30.543,17.186" style="fill:none;stroke:#2a76d2;stroke-width:1.97px;"/> <path d="M18.75,14.238L30.543,14.238" style="fill:none;stroke:#2a76d2;stroke-width:1.97px;"/> <path d="M29.659,50.502C30.052,47.75 32.312,45.391 35.064,44.802C36.636,44.507 38.111,44.704 39.388,45.293L39.388,44.31L39.388,40.379L39.388,36.448C39.388,35.662 41.943,34.188 45.481,33.598C44.204,30.945 42.336,28.488 39.88,26.621L32.804,21.805C31.526,20.822 29.855,20.036 28.283,20.036L20.617,20.036C18.947,20.036 17.276,20.626 15.998,21.609L9.119,26.621C2.24,32.124 -0.021,41.559 3.812,49.323C5.483,52.566 7.743,55.317 10.397,55.514L30.543,55.514C29.757,54.236 29.364,52.173 29.659,50.502Z" style="fill:#fff;fill-rule:nonzero;stroke:#2a76d2;stroke-width:1.97px;stroke-linecap:butt;"/> <path d="M30.543,14.238L30.543,17.186" style="fill:none;stroke:#2a76d2;stroke-width:1.97px;"/> <path d="M30.74,17.186C32.312,18.759 34.769,18.759 36.342,17.186" style="fill:none;stroke:#2a76d2;stroke-width:1.97px;"/> <path d="M8.923,40.772C8.923,34.778 15.704,27.014 21.698,27.014" style="fill:none;stroke:#2a76d2;stroke-width:1.97px;"/> </g> <g id="refer-and-earn-coin"> <path d="M48.233,38.414C43.319,38.414 39.388,37.529 39.388,36.547L39.388,40.478C39.388,41.559 43.319,42.345 48.233,42.345C53.147,42.345 57.078,41.46 57.078,40.478L57.078,36.547C57.078,37.529 53.049,38.414 48.233,38.414Z" style="fill:#fff;fill-rule:nonzero;stroke:#2a76d2;stroke-width:1.97px;stroke-linejoin:round;stroke-miterlimit:1;"/> <path d="M57.078,36.547C57.078,37.628 53.147,38.414 48.233,38.414C43.319,38.414 39.388,37.529 39.388,36.547C39.388,35.466 43.319,33.5 48.233,33.5C53.147,33.5 57.078,35.466 57.078,36.547Z" style="fill:#fff;fill-rule:nonzero;stroke:#2a76d2;stroke-width:1.97px;"/> <path d="M48.233,42.345C43.319,42.345 39.388,41.46 39.388,40.478L39.388,44.409C39.388,45.49 43.319,46.276 48.233,46.276C53.147,46.276 57.078,45.391 57.078,44.409L57.078,40.478C57.078,41.46 53.049,42.345 48.233,42.345Z" style="fill:#fff;fill-rule:nonzero;stroke:#2a76d2;stroke-width:1.97px;stroke-miterlimit:1;"/> <path d="M48.233,54.138C46.268,54.138 44.4,54.04 42.926,53.745C42.435,55.121 41.649,56.3 40.469,57.086C41.943,57.676 44.892,58.069 48.135,58.069C53.049,58.069 57.078,57.185 57.078,56.202L57.078,52.271C57.176,53.254 53.049,54.138 48.233,54.138Z" style="fill:#fff;fill-rule:nonzero;stroke:#2a76d2;stroke-width:1.97px;stroke-miterlimit:1;"/> <path d="M48.233,46.276C43.319,46.276 39.388,45.391 39.388,44.409L39.388,45.391C41.157,46.276 42.533,47.848 43.123,49.912C44.597,50.109 46.366,50.305 48.233,50.305C53.147,50.305 57.078,49.421 57.078,48.438L57.078,44.507C57.078,45.391 53.049,46.276 48.233,46.276Z" style="fill:#fff;fill-rule:nonzero;stroke:#2a76d2;stroke-width:1.97px;stroke-miterlimit:1;"/> <path d="M48.233,50.207C46.268,50.207 44.499,50.109 43.123,49.814C43.221,50.404 43.319,50.993 43.319,51.583C43.319,52.369 43.221,53.057 42.926,53.745C44.4,53.941 46.268,54.138 48.233,54.138C53.147,54.138 57.078,53.254 57.078,52.271L57.078,48.34C57.078,49.323 53.049,50.207 48.233,50.207Z" style="fill:#fff;fill-rule:nonzero;stroke:#2a76d2;stroke-width:1.97px;"/> <circle cx="36.44" cy="51.583" r="6.879" style="fill:#cfe0f4;stroke:#2a76d2;stroke-width:1.97px;stroke-linecap:butt;"/> </g> </g> </symbol><symbol viewBox="0 0 32 32" id="icon-remove"><title>remove</title> <g> <g id="remove-Outline_Icons"> <path d="M4.303,4.5L27.303,27.5" style="fill:none;stroke:#fff;stroke-width:2px;"/> <path d="M27.303,4.5L4.303,27.5" style="fill:none;stroke:#fff;stroke-width:2px;"/> </g> </g> </symbol><symbol viewBox="0 0 60 60" id="icon-reports"><title>113 - Chart Presentation (Webby)</title><desc>Created with Sketch.</desc>   <g id="reports-Page-1" sketch:type="MSPage"> <g id="reports-_x31_13---Chart-Presentation-_x28_Webby_x29_" transform="translate(1.000000, 1.000000)" sketch:type="MSLayerGroup"> <path id="reports-Fill-1" sketch:type="MSShapeGroup" fill="#CFE0F4" stroke="#2A76D2" stroke-miterlimit="10" d="M0,0h58v6H0V0z"/> <path id="reports-Stroke-2" sketch:type="MSShapeGroup" fill="none" stroke="#2A76D2" stroke-width="2" d="M0,0h58v6H0V0z"/> <path id="reports-Stroke-3" sketch:type="MSShapeGroup" fill="none" stroke="#2A76D2" stroke-width="2" stroke-linecap="round" d="M0,48
			h58 M29,48v3"/> <path id="reports-Fill-4" sketch:type="MSShapeGroup" fill="#CFE0F4" stroke="#2A76D2" stroke-miterlimit="10" d="M32,55
			c0,1.657-1.343,3-3,3c-1.657,0-3-1.343-3-3s1.343-3,3-3C30.657,52,32,53.343,32,55L32,55z"/> <path id="reports-Stroke-5" sketch:type="MSShapeGroup" fill="none" stroke="#2A76D2" stroke-width="2" stroke-linecap="round" d="M32,55
			c0,1.657-1.343,3-3,3c-1.657,0-3-1.343-3-3s1.343-3,3-3C30.657,52,32,53.343,32,55L32,55z"/> <path id="reports-Fill-6" sketch:type="MSShapeGroup" fill="#FFFFFF" stroke="#2A76D2" stroke-miterlimit="10" d="M2,6h54v42H2V6z"/> <path id="reports-Stroke-7" sketch:type="MSShapeGroup" fill="none" stroke="#2A76D2" stroke-width="2" stroke-linecap="round" d="M2,6h54
			v42H2V6z"/> <path id="reports-Stroke-8" sketch:type="MSShapeGroup" fill="none" stroke="#2A76D2" stroke-width="2" stroke-linecap="round" d="M35,43
			v-3 M39,43v-7 M43,43v-5 M47,43V31 M51,43v-8 M9,38h10 M9,42h15"/> <path id="reports-Fill-9" sketch:type="MSShapeGroup" fill="#CFE0F4" stroke="#2A76D2" stroke-miterlimit="10" d="M29,21.5
			C29,27.299,24.299,32,18.5,32S8,27.299,8,21.5S12.701,11,18.5,11S29,15.701,29,21.5L29,21.5z"/> <path id="reports-Stroke-10" sketch:type="MSShapeGroup" fill="none" stroke="#2A76D2" stroke-width="2" stroke-linecap="round" d="
			M29,21.5C29,27.299,24.299,32,18.5,32S8,27.299,8,21.5S12.701,11,18.5,11S29,15.701,29,21.5L29,21.5z"/> <path id="reports-Stroke-11" sketch:type="MSShapeGroup" fill="none" stroke="#2A76D2" stroke-width="2" stroke-linecap="round" d="
			M18.014,11.011c-0.006,0.005-0.009,0.009-0.014,0.014v10.938C18,21.984,18.016,22,18.037,22h10.938
			c0.005-0.005,0.009-0.008,0.014-0.014C29.268,15.803,24.197,10.732,18.014,11.011L18.014,11.011z M18,22l7.408,7.408L18,22z
			 M38,17h8H38z M48,12h3H48z M38,12h2H38z"/> </g> </g> </symbol><symbol viewBox="0 0 43 59" id="icon-simple-setup"><title>49 - Joystick (Webby)</title><desc>Created with Sketch.</desc>   <g id="simple-setup-Page-1" sketch:type="MSPage"> <g id="simple-setup-_x34_9---Joystick-_x28_Webby_x29_" transform="translate(1.000000, 1.000000)" sketch:type="MSLayerGroup"> <path id="simple-setup-Fill-1143" sketch:type="MSShapeGroup" fill="#CFE0F4" stroke="#2A76D2" stroke-miterlimit="10" d="M30.163,10.326
			c0,5.612-4.55,10.162-10.163,10.162S9.837,15.938,9.837,10.326c0-5.613,4.55-10.163,10.163-10.163S30.163,4.713,30.163,10.326
			L30.163,10.326z"/> <path id="simple-setup-Stroke-1144" sketch:type="MSShapeGroup" fill="none" stroke="#2A76D2" stroke-width="2" d="M30.163,10.326
			c0,5.612-4.55,10.162-10.163,10.162S9.837,15.938,9.837,10.326c0-5.613,4.55-10.163,10.163-10.163S30.163,4.713,30.163,10.326
			L30.163,10.326z"/> <path id="simple-setup-Stroke-1145" sketch:type="MSShapeGroup" fill="none" stroke="#2A76D2" stroke-width="2" stroke-linecap="round" d="
			M14,10c0-2.764,2.236-5,5-5"/> <path id="simple-setup-Fill-1146" sketch:type="MSShapeGroup" fill="#FFFFFF" stroke="#2A76D2" stroke-miterlimit="10" d="M35.679,16h-7.247
			c-1.826,2.708-4.921,4.488-8.432,4.488c-3.511,0-6.606-1.78-8.432-4.488H5.321C2.382,16,0,18.382,0,21.321v30.358
			C0,54.618,2.382,57,5.321,57h30.358C38.618,57,41,54.618,41,51.679V21.321C41,18.382,38.618,16,35.679,16L35.679,16z"/> <path id="simple-setup-Stroke-1147" sketch:type="MSShapeGroup" fill="none" stroke="#2A76D2" stroke-width="2" d="M35.679,16h-7.247
			c-1.826,2.708-4.921,4.488-8.432,4.488c-3.511,0-6.606-1.78-8.432-4.488H5.321C2.382,16,0,18.382,0,21.321v30.358
			C0,54.618,2.382,57,5.321,57h30.358C38.618,57,41,54.618,41,51.679V21.321C41,18.382,38.618,16,35.679,16L35.679,16z"/> <path id="simple-setup-Fill-1639" sketch:type="MSShapeGroup" fill="#FFFFFF" stroke="#2A76D2" stroke-miterlimit="10" d="M20,20.488
			c-1.044,0-2.052-0.158-3-0.451v15.126c0,1.657,1.343,3,3,3c1.657,0,3-1.343,3-3V20.037C22.052,20.33,21.044,20.488,20,20.488
			L20,20.488z"/> <path id="simple-setup-Stroke-1640" sketch:type="MSShapeGroup" fill="none" stroke="#2A76D2" stroke-width="2" d="M20,20.488
			c-1.044,0-2.052-0.158-3-0.451v15.126c0,1.657,1.343,3,3,3c1.657,0,3-1.343,3-3V20.037C22.052,20.33,21.044,20.488,20,20.488
			L20,20.488z"/> <path id="simple-setup-Fill-1641" sketch:type="MSShapeGroup" fill="#CFE0F4" stroke="#2A76D2" stroke-miterlimit="10" d="M10,49.233
			C10,50.761,8.761,52,7.233,52c-1.529,0-2.768-1.239-2.768-2.767c0-1.529,1.239-2.768,2.768-2.768
			C8.761,46.465,10,47.704,10,49.233L10,49.233z"/> <path id="simple-setup-Stroke-1642" sketch:type="MSShapeGroup" fill="none" stroke="#2A76D2" stroke-width="2" d="M10,49.233
			C10,50.761,8.761,52,7.233,52c-1.529,0-2.768-1.239-2.768-2.767c0-1.529,1.239-2.768,2.768-2.768
			C8.761,46.465,10,47.704,10,49.233L10,49.233z"/> <path id="simple-setup-Stroke-1643" sketch:type="MSShapeGroup" fill="none" stroke="#2A76D2" stroke-width="2" stroke-linecap="round" d="
			M29,53c4.422,0,8-3.578,8-8"/> <path id="simple-setup-Fill-1644" sketch:type="MSShapeGroup" fill="#FFFFFF" stroke="#2A76D2" stroke-miterlimit="10" d="M23,22.362v12.801
			c0,1.657-1.343,3-3,3c-1.657,0-3-1.343-3-3V22.362C11.269,23.718,7,28.855,7,35c0,7.18,5.82,13,13,13s13-5.82,13-13
			C33,28.855,28.731,23.718,23,22.362L23,22.362z"/> <path id="simple-setup-Stroke-1645" sketch:type="MSShapeGroup" fill="none" stroke="#2A76D2" stroke-width="2" d="M23,22.362v12.801
			c0,1.657-1.343,3-3,3c-1.657,0-3-1.343-3-3V22.362C11.269,23.718,7,28.855,7,35c0,7.18,5.82,13,13,13s13-5.82,13-13
			C33,28.855,28.731,23.718,23,22.362L23,22.362z"/> <path id="simple-setup-Fill-1646" sketch:type="MSShapeGroup" fill="#FFFFFF" stroke="#2A76D2" stroke-miterlimit="10" d="M23,25.659v9.504
			c0,1.657-1.343,3-3,3c-1.657,0-3-1.343-3-3v-9.504c-3.729,1.254-6.419,4.771-6.419,8.922C10.581,39.783,14.798,44,20,44
			s9.419-4.217,9.419-9.419C29.419,30.43,26.729,26.913,23,25.659L23,25.659z"/> <path id="simple-setup-Stroke-1647" sketch:type="MSShapeGroup" fill="none" stroke="#2A76D2" stroke-width="2" d="M23,25.659v9.504
			c0,1.657-1.343,3-3,3c-1.657,0-3-1.343-3-3v-9.504c-3.729,1.254-6.419,4.771-6.419,8.922C10.581,39.783,14.798,44,20,44
			s9.419-4.217,9.419-9.419C29.419,30.43,26.729,26.913,23,25.659L23,25.659z"/> </g> </g> </symbol><symbol viewBox="0 0 60 60" id="icon-support"><title>support</title> <g> <path fill="#CFE0F4" d="M15.243,25.566L1.651,22.19v15.699l13.592-3.379V25.566z M44.875,34.51l13.592,3.378V22.189l-13.592,3.378
		V34.51z M37.632,58.632L34.234,45.12h-8.996L21.84,58.632H37.632z M21.84,1.444l3.398,13.512h8.996l3.398-13.512
		C37.632,1.444,21.84,1.444,21.84,1.444z"/> <ellipse fill="none" stroke="#2A76D2" stroke-width="2.0703" stroke-linecap="round" stroke-linejoin="round" stroke-miterlimit="10" cx="29.938" cy="30.039" rx="28.966" ry="29.004"/> <ellipse fill="#FFFFFF" stroke="#2A76D2" stroke-miterlimit="10" cx="29.938" cy="30.038" rx="15.062" ry="15.082"/> <ellipse fill="none" stroke="#2A76D2" stroke-width="2.0703" stroke-linecap="round" stroke-linejoin="round" stroke-miterlimit="10" cx="29.938" cy="30.038" rx="15.062" ry="15.082"/> <path fill="none" stroke="#2A76D2" stroke-width="2.0703" stroke-linecap="round" stroke-linejoin="round" stroke-miterlimit="10" d="
		M15.549,25.566L2.054,22.19 M2.054,37.889l13.495-3.379 M44.326,34.51l13.495,3.378 M57.821,22.189l-13.495,3.378 M25.472,44.446
		l-3.373,13.512 M37.777,57.958l-3.373-13.512 M34.404,15.631l3.373-13.512 M22.098,2.118l3.373,13.512"/> </g> <rect x="-0.062" y="-0.001" display="none" fill="none" width="60" height="60"/> </symbol><symbol viewBox="0 0 25 25" id="icon-tick"><title>tick</title> <g id="tick-tick"> <circle cx="12.5" cy="12.5" r="11" style="fill:none;stroke:#2869b8;stroke-width:2px;"/> <path d="M17.5,9L10,16L7.5,13.5" style="fill:none;stroke:#2869b8;stroke-width:2px;stroke-linecap:round;"/> </g> </symbol><symbol viewBox="0 0 60 31" id="icon-unlimited-subscriptions"><title>188 - Infinity (Webby)</title><desc>Created with Sketch.</desc>   <g id="unlimited-subscriptions-Page-1" sketch:type="MSPage"> <g id="unlimited-subscriptions-Icons" transform="translate(-360.000000, -2653.000000)" sketch:type="MSArtboardGroup"> <g id="unlimited-subscriptions-_x31_88---Infinity-_x28_Webby_x29_" transform="translate(361.000000, 2654.000000)" sketch:type="MSLayerGroup"> <path id="unlimited-subscriptions-Path" sketch:type="MSShapeGroup" fill="none" stroke="#2A76D2" stroke-width="2" stroke-linecap="round" stroke-linejoin="round" d="
				M29,14.5C29,22.508,22.508,29,14.5,29S0,22.508,0,14.5S6.492,0,14.5,0c2.983,0,5.756,0.901,8.062,2.446
				c0.796,0.533,1.536,1.143,2.209,1.82"/> <path id="unlimited-subscriptions-Path_1_" sketch:type="MSShapeGroup" fill="none" stroke="#2A76D2" stroke-width="2" stroke-linecap="round" stroke-linejoin="round" d="
				M29,14.5C29,6.492,35.492,0,43.5,0S58,6.492,58,14.5S51.508,29,43.5,29c-4.003,0-7.627-1.622-10.251-4.245"/> </g> </g> </g> </symbol></svg>