<svg id="Layer_1" xmlns="http://www.w3.org/2000/svg" viewBox="-408 285.3 25 25"><style>.st0{fill:none;stroke:#757576;stroke-width:2;stroke-linejoin:round;stroke-miterlimit:10}</style><path class="st0" d="M-393 295.3c-1.6-1.6-1.6-4.2 0-5.8l-3.2-3.2-2.6 2.6c-.2-.3-.4-.6-.6-.8-1.6-1.6-4.2-1.6-5.8 0-1.6 1.6-1.6 4.2 0 5.8.2.2.5.5.8.6l-2.6 2.6 3.2 3.2c1.6-1.6 4.2-1.6 5.8 0 1.6 1.6 1.6 4.2 0 5.8l3.2 3.2 2.6-2.6c.2.3.4.6.6.8 1.6 1.6 4.2 1.6 5.7 0 1.6-1.6 1.6-4.2 0-5.7-.2-.2-.5-.5-.8-.6l2.6-2.6-3.2-3.2c-1.5 1.5-4.1 1.5-5.7-.1z"/></svg>