<svg xmlns="http://www.w3.org/2000/svg" width="25" height="25" viewBox="0 0 25 25"><g fill="none" stroke="#757576" stroke-linejoin="round" stroke-miterlimit="10"><path stroke-width="1.5" d="M4.325 20.587c1.33-.92 3.952-1.746 6.175-2.587v-2.5S9 15 9 12.5c-.826 0-.826-2 0-2 0-.335-1.5-4 1-3.5.5-2 6-2 6.5 0 .347 1.388-.5 3.254-.5 3.5.826 0 .826 2 0 2 0 2.5-1.5 3-1.5 3V18c2.477.93 4.93 1.697 6.185 2.575"/><path stroke-width="2" d="M12.5 1C6.148 1 1 6.148 1 12.5c0 3.153 1.27 6.01 3.325 8.087C6.41 22.694 9.302 24 12.5 24c3.203 0 6.1-1.31 8.185-3.425C22.735 18.5 24 15.647 24 12.5 24 6.148 18.852 1 12.5 1z"/></g></svg>