<?xml version="1.0" encoding="utf-8"?>
<!-- Generator: Adobe Illustrator 19.0.0, SVG Export Plug-In . SVG Version: 6.00 Build 0)  -->
<svg version="1.1" id="Layer_1" xmlns="http://www.w3.org/2000/svg" xmlns:xlink="http://www.w3.org/1999/xlink" x="0px" y="0px"
	 viewBox="-408 285.3 25 25" style="enable-background:new -408 285.3 25 25;" xml:space="preserve">
<style type="text/css">
	.st0{fill:none;stroke:#757576;stroke-width:2;stroke-linejoin:round;stroke-miterlimit:10;}
</style>
<g>
	<path class="st0" d="M-393,295.3c-1.6-1.6-1.6-4.2,0-5.8l-3.2-3.2l-2.6,2.6c-0.2-0.3-0.4-0.6-0.6-0.8c-1.6-1.6-4.2-1.6-5.8,0
		c-1.6,1.6-1.6,4.2,0,5.8c0.2,0.2,0.5,0.5,0.8,0.6l-2.6,2.6l3.2,3.2c1.6-1.6,4.2-1.6,5.8,0c1.6,1.6,1.6,4.2,0,5.8l3.2,3.2l2.6-2.6
		c0.2,0.3,0.4,0.6,0.6,0.8c1.6,1.6,4.2,1.6,5.7,0c1.6-1.6,1.6-4.2,0-5.7c-0.2-0.2-0.5-0.5-0.8-0.6l2.6-2.6l-3.2-3.2
		C-388.8,296.9-391.4,296.9-393,295.3z"/>
</g>
</svg>
