<?xml version="1.0" encoding="utf-8"?>
<!-- Generator: Adobe Illustrator 17.0.0, SVG Export Plug-In . SVG Version: 6.00 Build 0)  -->
<!DOCTYPE svg PUBLIC "-//W3C//DTD SVG 1.1//EN" "http://www.w3.org/Graphics/SVG/1.1/DTD/svg11.dtd">
<svg version="1.1" id="Layer_1" xmlns="http://www.w3.org/2000/svg" xmlns:xlink="http://www.w3.org/1999/xlink" x="0px" y="0px"
	 width="25px" height="25px" viewBox="0 0 25 25" enable-background="new 0 0 25 25" xml:space="preserve">
<g>
	<path fill="none" stroke="#757576" stroke-width="1.5" stroke-linejoin="round" stroke-miterlimit="10" d="M4.325,20.587
		c1.33-0.92,3.952-1.746,6.175-2.587v-2.5c0,0-1.5-0.5-1.5-3c-0.826,0-0.826-2,0-2c0-0.335-1.5-4,1-3.5c0.5-2,6-2,6.5,0
		c0.347,1.388-0.5,3.254-0.5,3.5c0.826,0,0.826,2,0,2c0,2.5-1.5,3-1.5,3V18c2.477,0.929,4.93,1.697,6.185,2.575"/>
	<path fill="none" stroke="#757576" stroke-width="2" stroke-linejoin="round" stroke-miterlimit="10" d="M12.5,1
		C6.148,1,1,6.148,1,12.5c0,3.153,1.269,6.009,3.325,8.087C6.41,22.694,9.302,24,12.5,24c3.203,0,6.1-1.31,8.185-3.425
		C22.734,18.499,24,15.647,24,12.5C24,6.148,18.852,1,12.5,1z"/>
</g>
</svg>
